<?xml version="1.0" encoding="utf-8" ?>
<svg baseProfile="full" height="100%" version="1.1" width="100%" xmlns="http://www.w3.org/2000/svg" xmlns:ev="http://www.w3.org/2001/xml-events" xmlns:xlink="http://www.w3.org/1999/xlink"><defs /><path d="M 90.0 100.0 A 2000 2000 0.0 0,0 60.0 100.0 A 40.0 40.0 0.0 0,0 140.0 100.0 A 2000 2000 0.0 0,0 110.0 100.0 A 10.0 10.0 0.0 0,1 90.0 100.0" fill="rgb(0,0,0)" stroke="rgb(0,0,255)" stroke-width="0" /><path d="M 99.99999999999999 60.0 A 2000 2000 0.0 0,0 99.99999999999999 30.0 A 70.0 70.0 0.0 0,0 100.0 170.0 A 2000 2000 0.0 0,0 100.0 140.0 A 40.0 40.0 0.0 0,1 99.99999999999999 60.0" fill="rgb(0,0,0)" stroke="rgb(0,0,255)" stroke-width="0" /><path d="M 149.49747468305833 50.502525316941664 A 2000 2000 0.0 0,0 170.71067811865476 29.28932188134523 A 100.0 100.0 0.0 0,0 29.28932188134523 29.28932188134526 A 2000 2000 0.0 0,0 50.502525316941664 50.50252531694168 A 70.0 70.0 0.0 0,1 149.49747468305833 50.502525316941664" fill="rgb(0,0,0)" stroke="rgb(0,0,255)" stroke-width="0" /><path d="M 50.502525316941735 149.49747468305839 A 2000 2000 0.0 0,0 29.28932188134533 170.71067811865484 A 100.0 100.0 0.0 0,0 170.71067811865484 170.71067811865467 A 2000 2000 0.0 0,0 149.49747468305839 149.49747468305827 A 70.0 70.0 0.0 0,1 50.502525316941735 149.49747468305839" fill="rgb(0,0,0)" stroke="rgb(0,0,255)" stroke-width="0" /></svg>