<?xml version="1.0" encoding="utf-8" ?>
<svg baseProfile="full" height="100%" version="1.1" width="100%" xmlns="http://www.w3.org/2000/svg" xmlns:ev="http://www.w3.org/2001/xml-events" xmlns:xlink="http://www.w3.org/1999/xlink"><defs /><path d="M 90.0 100.0 A 2000 2000 0.0 0,0 72.0 100.0 A 28.0 28.0 0.0 0,0 128.0 100.0 A 2000 2000 0.0 0,0 110.0 100.0 A 10.0 10.0 0.0 0,1 90.0 100.0" fill="rgb(0,0,0)" stroke="rgb(0,0,255)" stroke-width="0" /><path d="M 100.0 72.0 A 2000 2000 0.0 0,0 99.99999999999999 54.0 A 46.0 46.0 0.0 0,0 100.0 146.0 A 2000 2000 0.0 0,0 100.0 128.0 A 28.0 28.0 0.0 0,1 100.0 72.0" fill="rgb(0,0,0)" stroke="rgb(0,0,255)" stroke-width="0" /><path d="M 132.52691193458116 67.4730880654188 A 2000 2000 0.0 0,0 145.25483399593904 54.74516600406095 A 64.0 64.0 0.0 0,0 54.74516600406095 54.74516600406096 A 2000 2000 0.0 0,0 67.4730880654188 67.4730880654188 A 46.0 46.0 0.0 0,1 132.52691193458116 67.4730880654188" fill="rgb(0,0,0)" stroke="rgb(0,0,255)" stroke-width="0" /><path d="M 67.47308806541885 132.52691193458122 A 2000 2000 0.0 0,0 54.74516600406101 145.2548339959391 A 64.0 64.0 0.0 0,0 145.2548339959391 145.25483399593898 A 2000 2000 0.0 0,0 132.52691193458122 132.52691193458116 A 46.0 46.0 0.0 0,1 67.47308806541885 132.52691193458122" fill="rgb(0,0,0)" stroke="rgb(0,0,255)" stroke-width="0" /><path d="M 159.12829008072234 75.50826032863421 A 2000 2000 0.0 0,0 175.7581216659255 68.61995854606259 A 82.0 82.0 0.0 0,0 131.3800414539373 24.24187833407447 A 2000 2000 0.0 0,0 124.4917396713657 40.871709919277635 A 64.0 64.0 0.0 0,1 159.12829008072234 75.50826032863421" fill="rgb(0,0,0)" stroke="rgb(0,0,255)" stroke-width="0" /><path d="M 124.49173967136579 159.12829008072234 A 2000 2000 0.0 0,0 131.38004145393742 175.7581216659255 A 82.0 82.0 0.0 0,0 175.75812166592556 131.3800414539373 A 2000 2000 0.0 0,0 159.12829008072237 124.4917396713657 A 64.0 64.0 0.0 0,1 124.49173967136579 159.12829008072234" fill="rgb(0,0,0)" stroke="rgb(0,0,255)" stroke-width="0" /><path d="M 40.87170991927767 124.49173967136579 A 2000 2000 0.0 0,0 24.241878334074514 131.38004145393742 A 82.0 82.0 0.0 0,0 68.61995854606263 175.7581216659255 A 2000 2000 0.0 0,0 75.50826032863425 159.12829008072237 A 64.0 64.0 0.0 0,1 40.87170991927767 124.49173967136579" fill="rgb(0,0,0)" stroke="rgb(0,0,255)" stroke-width="0" /><path d="M 75.50826032863421 40.87170991927767 A 2000 2000 0.0 0,0 68.61995854606258 24.241878334074514 A 82.0 82.0 0.0 0,0 24.24187833407443 68.61995854606278 A 2000 2000 0.0 0,0 40.871709919277606 75.50826032863435 A 64.0 64.0 0.0 0,1 75.50826032863421 40.87170991927767" fill="rgb(0,0,0)" stroke="rgb(0,0,255)" stroke-width="0" /><path d="M 180.42439299306488 84.00259359467745 A 2000 2000 0.0 0,0 198.07852804032302 80.49096779838713 A 100.0 100.0 0.0 0,0 183.14696123025453 44.442976698039786 A 2000 2000 0.0 0,0 168.1805082088087 54.44324089239262 A 82.0 82.0 0.0 0,1 180.42439299306488 84.00259359467745" fill="rgb(0,0,0)" stroke="rgb(0,0,255)" stroke-width="0" /><path d="M 168.18050820880873 145.55675910760735 A 2000 2000 0.0 0,0 183.14696123025453 155.5570233019602 A 100.0 100.0 0.0 0,0 198.07852804032308 119.50903220161274 A 2000 2000 0.0 0,0 180.4243929930649 115.99740640532244 A 82.0 82.0 0.0 0,1 168.18050820880873 145.55675910760735" fill="rgb(0,0,0)" stroke="rgb(0,0,255)" stroke-width="0" /><path d="M 115.99740640532256 180.42439299306488 A 2000 2000 0.0 0,0 119.50903220161288 198.07852804032302 A 100.0 100.0 0.0 0,0 155.55702330196021 183.14696123025453 A 2000 2000 0.0 0,0 145.55675910760738 168.1805082088087 A 82.0 82.0 0.0 0,1 115.99740640532256 180.42439299306488" fill="rgb(0,0,0)" stroke="rgb(0,0,255)" stroke-width="0" /><path d="M 54.44324089239266 168.18050820880873 A 2000 2000 0.0 0,0 44.44297669803983 183.14696123025456 A 100.0 100.0 0.0 0,0 80.49096779838727 198.07852804032308 A 2000 2000 0.0 0,0 84.00259359467756 180.4243929930649 A 82.0 82.0 0.0 0,1 54.44324089239266 168.18050820880873" fill="rgb(0,0,0)" stroke="rgb(0,0,255)" stroke-width="0" /><path d="M 19.5756070069351 115.9974064053225 A 2000 2000 0.0 0,0 1.9214719596769498 119.5090322016128 A 100.0 100.0 0.0 0,0 16.85303876974548 155.55702330196021 A 2000 2000 0.0 0,0 31.819491791191297 145.55675910760738 A 82.0 82.0 0.0 0,1 19.5756070069351 115.9974064053225" fill="rgb(0,0,0)" stroke="rgb(0,0,255)" stroke-width="0" /><path d="M 31.81949179119127 54.44324089239266 A 2000 2000 0.0 0,0 16.85303876974544 44.44297669803983 A 100.0 100.0 0.0 0,0 1.9214719596769356 80.49096779838727 A 2000 2000 0.0 0,0 19.575607006935087 84.00259359467756 A 82.0 82.0 0.0 0,1 31.81949179119127 54.44324089239266" fill="rgb(0,0,0)" stroke="rgb(0,0,255)" stroke-width="0" /><path d="M 84.00259359467736 19.57560700693513 A 2000 2000 0.0 0,0 80.49096779838702 1.9214719596769925 A 100.0 100.0 0.0 0,0 44.442976698039615 16.85303876974558 A 2000 2000 0.0 0,0 54.44324089239249 31.819491791191382 A 82.0 82.0 0.0 0,1 84.00259359467736 19.57560700693513" fill="rgb(0,0,0)" stroke="rgb(0,0,255)" stroke-width="0" /><path d="M 145.55675910760732 31.81949179119127 A 2000 2000 0.0 0,0 155.55702330196016 16.85303876974544 A 100.0 100.0 0.0 0,0 119.50903220161271 1.9214719596769356 A 2000 2000 0.0 0,0 115.99740640532244 19.575607006935087 A 82.0 82.0 0.0 0,1 145.55675910760732 31.81949179119127" fill="rgb(0,0,0)" stroke="rgb(0,0,255)" stroke-width="0" /></svg>