<?xml version="1.0" encoding="utf-8" ?>
<svg baseProfile="full" height="100%" version="1.1" width="100%" xmlns="http://www.w3.org/2000/svg" xmlns:ev="http://www.w3.org/2001/xml-events" xmlns:xlink="http://www.w3.org/1999/xlink"><defs /><path d="M 90.0 100.0 A 2000 2000 0.0 0,0 77.14285714285714 100.0 A 22.857142857142858 22.857142857142858 0.0 0,0 122.85714285714286 100.0 A 2000 2000 0.0 0,0 110.0 100.0 A 10.0 10.0 0.0 0,1 90.0 100.0" fill="rgb(0,0,0)" stroke="rgb(0,0,255)" stroke-width="0" /><path d="M 100.0 77.14285714285714 A 2000 2000 0.0 0,0 100.0 64.28571428571428 A 35.714285714285715 35.714285714285715 0.0 0,0 100.0 135.71428571428572 A 2000 2000 0.0 0,0 100.0 122.85714285714286 A 22.857142857142858 22.857142857142858 0.0 0,1 100.0 77.14285714285714" fill="rgb(0,0,0)" stroke="rgb(0,0,255)" stroke-width="0" /><path d="M 125.25381361380526 74.74618638619472 A 2000 2000 0.0 0,0 134.34518651477515 65.65481348522482 A 48.57142857142857 48.57142857142857 0.0 0,0 65.65481348522482 65.65481348522485 A 2000 2000 0.0 0,0 74.74618638619472 74.74618638619474 A 35.714285714285715 35.714285714285715 0.0 0,1 125.25381361380526 74.74618638619472" fill="rgb(0,0,0)" stroke="rgb(0,0,255)" stroke-width="0" /><path d="M 74.74618638619476 125.2538136138053 A 2000 2000 0.0 0,0 65.65481348522488 134.3451865147752 A 48.57142857142857 48.57142857142857 0.0 0,0 134.3451865147752 134.34518651477512 A 2000 2000 0.0 0,0 125.2538136138053 125.25381361380524 A 35.714285714285715 35.714285714285715 0.0 0,1 74.74618638619476 125.2538136138053" fill="rgb(0,0,0)" stroke="rgb(0,0,255)" stroke-width="0" /><path d="M 144.87414872197678 81.4125189994099 A 2000 2000 0.0 0,0 156.75259985426476 76.49230344043016 A 61.42857142857143 61.42857142857143 0.0 0,0 123.50769655956977 43.24740014573523 A 2000 2000 0.0 0,0 118.58748100059005 55.125851278023205 A 48.57142857142857 48.57142857142857 0.0 0,1 144.87414872197678 81.4125189994099" fill="rgb(0,0,0)" stroke="rgb(0,0,255)" stroke-width="0" /><path d="M 118.5874810005901 144.87414872197678 A 2000 2000 0.0 0,0 123.50769655956984 156.75259985426476 A 61.42857142857143 61.42857142857143 0.0 0,0 156.7525998542648 123.50769655956977 A 2000 2000 0.0 0,0 144.8741487219768 118.58748100059005 A 48.57142857142857 48.57142857142857 0.0 0,1 118.5874810005901 144.87414872197678" fill="rgb(0,0,0)" stroke="rgb(0,0,255)" stroke-width="0" /><path d="M 55.125851278023234 118.58748100059012 A 2000 2000 0.0 0,0 43.24740014573526 123.50769655956985 A 61.42857142857143 61.42857142857143 0.0 0,0 76.49230344043019 156.75259985426476 A 2000 2000 0.0 0,0 81.41251899940991 144.87414872197678 A 48.57142857142857 48.57142857142857 0.0 0,1 55.125851278023234 118.58748100059012" fill="rgb(0,0,0)" stroke="rgb(0,0,255)" stroke-width="0" /><path d="M 81.41251899940988 55.125851278023234 A 2000 2000 0.0 0,0 76.49230344043015 43.24740014573526 A 61.42857142857143 61.42857142857143 0.0 0,0 43.2474001457352 76.4923034404303 A 2000 2000 0.0 0,0 55.125851278023184 81.41251899941 A 48.57142857142857 48.57142857142857 0.0 0,1 81.41251899940988 55.125851278023234" fill="rgb(0,0,0)" stroke="rgb(0,0,255)" stroke-width="0" /><path d="M 160.2482386533413 88.01588021900923 A 2000 2000 0.0 0,0 172.85833511566852 85.50757607880186 A 74.28571428571429 74.28571428571429 0.0 0,0 161.7663140567605 58.72906840425812 A 2000 2000 0.0 0,0 151.0759904700135 65.87211425736729 A 61.42857142857143 61.42857142857143 0.0 0,1 160.2482386533413 88.01588021900923" fill="rgb(0,0,0)" stroke="rgb(0,0,255)" stroke-width="0" /><path d="M 151.0759904700135 134.12788574263269 A 2000 2000 0.0 0,0 161.76631405676054 141.27093159574184 A 74.28571428571429 74.28571428571429 0.0 0,0 172.85833511566858 114.49242392119804 A 2000 2000 0.0 0,0 160.2482386533413 111.98411978099068 A 61.42857142857143 61.42857142857143 0.0 0,1 151.0759904700135 134.12788574263269" fill="rgb(0,0,0)" stroke="rgb(0,0,255)" stroke-width="0" /><path d="M 111.98411978099077 160.2482386533413 A 2000 2000 0.0 0,0 114.49242392119814 172.85833511566852 A 74.28571428571429 74.28571428571429 0.0 0,0 141.2709315957419 161.7663140567605 A 2000 2000 0.0 0,0 134.1278857426327 151.0759904700135 A 61.42857142857143 61.42857142857143 0.0 0,1 111.98411978099077 160.2482386533413" fill="rgb(0,0,0)" stroke="rgb(0,0,255)" stroke-width="0" /><path d="M 65.87211425736731 151.07599047001352 A 2000 2000 0.0 0,0 58.72906840425815 161.76631405676054 A 74.28571428571429 74.28571428571429 0.0 0,0 85.50757607880197 172.85833511566858 A 2000 2000 0.0 0,0 88.01588021900932 160.2482386533413 A 61.42857142857143 61.42857142857143 0.0 0,1 65.87211425736731 151.07599047001352" fill="rgb(0,0,0)" stroke="rgb(0,0,255)" stroke-width="0" /><path d="M 39.7517613466587 111.98411978099072 A 2000 2000 0.0 0,0 27.141664884331433 114.49242392119808 A 74.28571428571429 74.28571428571429 0.0 0,0 38.2336859432395 141.2709315957419 A 2000 2000 0.0 0,0 48.92400952998651 134.1278857426327 A 61.42857142857143 61.42857142857143 0.0 0,1 39.7517613466587 111.98411978099072" fill="rgb(0,0,0)" stroke="rgb(0,0,255)" stroke-width="0" /><path d="M 48.924009529986485 65.87211425736731 A 2000 2000 0.0 0,0 38.233685943239465 58.72906840425815 A 74.28571428571429 74.28571428571429 0.0 0,0 27.141664884331433 85.50757607880197 A 2000 2000 0.0 0,0 39.75176134665869 88.01588021900932 A 61.42857142857143 61.42857142857143 0.0 0,1 48.924009529986485 65.87211425736731" fill="rgb(0,0,0)" stroke="rgb(0,0,255)" stroke-width="0" /><path d="M 88.01588021900918 39.75176134665872 A 2000 2000 0.0 0,0 85.50757607880179 27.141664884331476 A 74.28571428571429 74.28571428571429 0.0 0,0 58.729068404257994 38.23368594323957 A 2000 2000 0.0 0,0 65.8721142573672 48.92400952998657 A 61.42857142857143 61.42857142857143 0.0 0,1 88.01588021900918 39.75176134665872" fill="rgb(0,0,0)" stroke="rgb(0,0,255)" stroke-width="0" /><path d="M 134.12788574263266 48.924009529986485 A 2000 2000 0.0 0,0 141.27093159574184 38.233685943239465 A 74.28571428571429 74.28571428571429 0.0 0,0 114.49242392119803 27.141664884331433 A 2000 2000 0.0 0,0 111.98411978099067 39.75176134665869 A 61.42857142857143 61.42857142857143 0.0 0,1 134.12788574263266 48.924009529986485" fill="rgb(0,0,0)" stroke="rgb(0,0,255)" stroke-width="0" /><path d="M 173.92800826707747 92.71872671837544 A 2000 2000 0.0 0,0 186.72324046714857 91.45850634270965 A 87.14285714285715 87.14285714285715 0.0 0,0 183.3905149709496 74.70376383925391 A 2000 2000 0.0 0,0 171.08699636867834 78.43599540395415 A 74.28571428571429 74.28571428571429 0.0 0,1 173.92800826707747 92.71872671837544" fill="rgb(0,0,0)" stroke="rgb(0,0,255)" stroke-width="0" /><path d="M 171.0869963686784 121.56400459604569 A 2000 2000 0.0 0,0 183.39051497094968 125.2962361607459 A 87.14285714285715 87.14285714285715 0.0 0,0 186.72324046714863 108.54149365729015 A 2000 2000 0.0 0,0 173.9280082670775 107.2812732816244 A 74.28571428571429 74.28571428571429 0.0 0,1 171.0869963686784 121.56400459604569" fill="rgb(0,0,0)" stroke="rgb(0,0,255)" stroke-width="0" /><path d="M 157.42363367837478 147.12635825215648 A 2000 2000 0.0 0,0 167.36233950732426 155.2828433342605 A 87.14285714285715 87.14285714285715 0.0 0,0 176.85313875035672 141.07885849483688 A 2000 2000 0.0 0,0 165.51415106587785 135.01804330707404 A 74.28571428571429 74.28571428571429 0.0 0,1 157.42363367837478 147.12635825215648" fill="rgb(0,0,0)" stroke="rgb(0,0,255)" stroke-width="0" /><path d="M 135.01804330707415 165.5141510658778 A 2000 2000 0.0 0,0 141.07885849483696 176.85313875035666 A 87.14285714285715 87.14285714285715 0.0 0,0 155.28284333426058 167.36233950732418 A 2000 2000 0.0 0,0 147.12635825215656 157.42363367837473 A 74.28571428571429 74.28571428571429 0.0 0,1 135.01804330707415 165.5141510658778" fill="rgb(0,0,0)" stroke="rgb(0,0,255)" stroke-width="0" /><path d="M 107.28127328162456 173.92800826707747 A 2000 2000 0.0 0,0 108.54149365729036 186.72324046714857 A 87.14285714285715 87.14285714285715 0.0 0,0 125.2962361607461 183.3905149709496 A 2000 2000 0.0 0,0 121.56400459604585 171.08699636867834 A 74.28571428571429 74.28571428571429 0.0 0,1 107.28127328162456 173.92800826707747" fill="rgb(0,0,0)" stroke="rgb(0,0,255)" stroke-width="0" /><path d="M 78.43599540395431 171.0869963686784 A 2000 2000 0.0 0,0 74.7037638392541 183.39051497094968 A 87.14285714285715 87.14285714285715 0.0 0,0 91.45850634270985 186.72324046714863 A 2000 2000 0.0 0,0 92.7187267183756 173.9280082670775 A 74.28571428571429 74.28571428571429 0.0 0,1 78.43599540395431 171.0869963686784" fill="rgb(0,0,0)" stroke="rgb(0,0,255)" stroke-width="0" /><path d="M 52.87364174784352 157.42363367837478 A 2000 2000 0.0 0,0 44.717156665739516 167.3623395073243 A 87.14285714285715 87.14285714285715 0.0 0,0 58.92114150516307 176.85313875035666 A 2000 2000 0.0 0,0 64.9819566929259 165.5141510658778 A 74.28571428571429 74.28571428571429 0.0 0,1 52.87364174784352 157.42363367837478" fill="rgb(0,0,0)" stroke="rgb(0,0,255)" stroke-width="0" /><path d="M 34.4858489341222 135.01804330707415 A 2000 2000 0.0 0,0 23.14686124964335 141.078858494837 A 87.14285714285715 87.14285714285715 0.0 0,0 32.637660492675764 155.28284333426052 A 2000 2000 0.0 0,0 42.57636632162524 147.1263582521565 A 74.28571428571429 74.28571428571429 0.0 0,1 34.4858489341222 135.01804330707415" fill="rgb(0,0,0)" stroke="rgb(0,0,255)" stroke-width="0" /><path d="M 26.071991732922513 107.28127328162451 A 2000 2000 0.0 0,0 13.2767595328514 108.54149365729029 A 87.14285714285715 87.14285714285715 0.0 0,0 16.609485029050347 125.29623616074596 A 2000 2000 0.0 0,0 28.9130036313216 121.56400459604573 A 74.28571428571429 74.28571428571429 0.0 0,1 26.071991732922513 107.28127328162451" fill="rgb(0,0,0)" stroke="rgb(0,0,255)" stroke-width="0" /><path d="M 28.913003631321587 78.43599540395432 A 2000 2000 0.0 0,0 16.60948502905032 74.70376383925411 A 87.14285714285715 87.14285714285715 0.0 0,0 13.2767595328514 91.45850634270978 A 2000 2000 0.0 0,0 26.071991732922513 92.71872671837555 A 74.28571428571429 74.28571428571429 0.0 0,1 28.913003631321587 78.43599540395432" fill="rgb(0,0,0)" stroke="rgb(0,0,255)" stroke-width="0" /><path d="M 42.57636632162521 52.87364174784353 A 2000 2000 0.0 0,0 32.63766049267572 44.71715666573952 A 87.14285714285715 87.14285714285715 0.0 0,0 23.146861249643322 58.92114150516308 A 2000 2000 0.0 0,0 34.48584893412219 64.9819566929259 A 74.28571428571429 74.28571428571429 0.0 0,1 42.57636632162521 52.87364174784353" fill="rgb(0,0,0)" stroke="rgb(0,0,255)" stroke-width="0" /><path d="M 64.98195669292585 34.4858489341222 A 2000 2000 0.0 0,0 58.92114150516302 23.14686124964335 A 87.14285714285715 87.14285714285715 0.0 0,0 44.717156665739466 32.637660492675764 A 2000 2000 0.0 0,0 52.873641747843486 42.57636632162524 A 74.28571428571429 74.28571428571429 0.0 0,1 64.98195669292585 34.4858489341222" fill="rgb(0,0,0)" stroke="rgb(0,0,255)" stroke-width="0" /><path d="M 92.71872671837536 26.071991732922527 A 2000 2000 0.0 0,0 91.45850634270955 13.276759532851415 A 87.14285714285715 87.14285714285715 0.0 0,0 74.7037638392539 16.60948502905039 A 2000 2000 0.0 0,0 78.43599540395414 28.913003631321644 A 74.28571428571429 74.28571428571429 0.0 0,1 92.71872671837536 26.071991732922527" fill="rgb(0,0,0)" stroke="rgb(0,0,255)" stroke-width="0" /><path d="M 121.5640045960458 28.91300363132163 A 2000 2000 0.0 0,0 125.29623616074603 16.609485029050376 A 87.14285714285715 87.14285714285715 0.0 0,0 108.54149365729037 13.276759532851415 A 2000 2000 0.0 0,0 107.28127328162458 26.071991732922513 A 74.28571428571429 74.28571428571429 0.0 0,1 121.5640045960458 28.91300363132163" fill="rgb(0,0,0)" stroke="rgb(0,0,255)" stroke-width="0" /><path d="M 147.12635825215648 42.57636632162521 A 2000 2000 0.0 0,0 155.28284333426046 32.63766049267572 A 87.14285714285715 87.14285714285715 0.0 0,0 141.0788584948369 23.146861249643322 A 2000 2000 0.0 0,0 135.0180433070741 34.48584893412219 A 74.28571428571429 74.28571428571429 0.0 0,1 147.12635825215648 42.57636632162521" fill="rgb(0,0,0)" stroke="rgb(0,0,255)" stroke-width="0" /><path d="M 165.51415106587774 64.98195669292573 A 2000 2000 0.0 0,0 176.85313875035655 58.92114150516287 A 87.14285714285715 87.14285714285715 0.0 0,0 167.36233950732412 44.717156665739346 A 2000 2000 0.0 0,0 157.42363367837467 52.87364174784337 A 74.28571428571429 74.28571428571429 0.0 0,1 165.51415106587774 64.98195669292573" fill="rgb(0,0,0)" stroke="rgb(0,0,255)" stroke-width="0" /><path d="M 187.03788975502215 95.72410266575349 A 2000 2000 0.0 0,0 199.87954562051723 95.0932325672581 A 100.0 100.0 0.0 0,0 198.91765099647807 85.32695255446376 A 2000 2000 0.0 0,0 186.1996672969309 87.21348722603271 A 87.14285714285714 87.14285714285714 0.0 0,1 187.03788975502215 95.72410266575349" fill="rgb(0,0,0)" stroke="rgb(0,0,255)" stroke-width="0" /><path d="M 186.19966729693093 112.78651277396717 A 2000 2000 0.0 0,0 198.91765099647813 114.6730474455361 A 100.0 100.0 0.0 0,0 199.87954562051723 104.90676743274176 A 2000 2000 0.0 0,0 187.03788975502215 104.2758973342464 A 87.14285714285714 87.14285714285714 0.0 0,1 186.19966729693093 112.78651277396717" fill="rgb(0,0,0)" stroke="rgb(0,0,255)" stroke-width="0" /><path d="M 182.04883996594899 129.3575443670362 A 2000 2000 0.0 0,0 194.15440651830212 133.68898533922186 A 100.0 100.0 0.0 0,0 197.00312531945443 124.29801799032629 A 2000 2000 0.0 0,0 184.53129492123884 121.17398710585576 A 87.14285714285714 87.14285714285714 0.0 0,1 182.04883996594899 129.3575443670362" fill="rgb(0,0,0)" stroke="rgb(0,0,255)" stroke-width="0" /><path d="M 174.7449217285952 144.80038199398066 A 2000 2000 0.0 0,0 185.77286100002726 151.41027441932206 A 100.0 100.0 0.0 0,0 190.39892931234436 142.75550934302814 A 2000 2000 0.0 0,0 178.77620982932865 137.25837242749594 A 87.14285714285714 87.14285714285714 0.0 0,1 174.7449217285952 144.80038199398066" fill="rgb(0,0,0)" stroke="rgb(0,0,255)" stroke-width="0" /><path d="M 164.56859806664647 158.5215660652401 A 2000 2000 0.0 0,0 174.09511253549596 167.15589548470177 A 100.0 100.0 0.0 0,0 180.3207531480645 159.5699304492433 A 2000 2000 0.0 0,0 169.9937991718848 151.91093939148342 A 87.14285714285714 87.14285714285714 0.0 0,1 164.56859806664647 158.5215660652401" fill="rgb(0,0,0)" stroke="rgb(0,0,255)" stroke-width="0" /><path d="M 151.91093939148354 169.99379917188475 A 2000 2000 0.0 0,0 159.5699304492434 180.32075314806445 A 100.0 100.0 0.0 0,0 167.1558954847019 174.09511253549587 A 2000 2000 0.0 0,0 158.52156606524022 164.56859806664642 A 87.14285714285714 87.14285714285714 0.0 0,1 151.91093939148354 169.99379917188475" fill="rgb(0,0,0)" stroke="rgb(0,0,255)" stroke-width="0" /><path d="M 137.25837242749606 178.7762098293286 A 2000 2000 0.0 0,0 142.75550934302825 190.3989293123443 A 100.0 100.0 0.0 0,0 151.41027441932218 185.7728610000272 A 2000 2000 0.0 0,0 144.80038199398075 174.74492172859513 A 87.14285714285714 87.14285714285714 0.0 0,1 137.25837242749606 178.7762098293286" fill="rgb(0,0,0)" stroke="rgb(0,0,255)" stroke-width="0" /><path d="M 121.17398710585596 184.53129492123878 A 2000 2000 0.0 0,0 124.29801799032651 197.00312531945437 A 100.0 100.0 0.0 0,0 133.68898533922209 194.15440651830204 A 2000 2000 0.0 0,0 129.35754436703638 182.04883996594893 A 87.14285714285714 87.14285714285714 0.0 0,1 121.17398710585596 184.53129492123878" fill="rgb(0,0,0)" stroke="rgb(0,0,255)" stroke-width="0" /><path d="M 104.27589733424652 187.03788975502215 A 2000 2000 0.0 0,0 104.9067674327419 199.87954562051723 A 100.0 100.0 0.0 0,0 114.67304744553624 198.91765099647807 A 2000 2000 0.0 0,0 112.7865127739673 186.1996672969309 A 87.14285714285714 87.14285714285714 0.0 0,1 104.27589733424652 187.03788975502215" fill="rgb(0,0,0)" stroke="rgb(0,0,255)" stroke-width="0" /><path d="M 87.21348722603284 186.19966729693093 A 2000 2000 0.0 0,0 85.3269525544639 198.91765099647813 A 100.0 100.0 0.0 0,0 95.09323256725824 199.87954562051723 A 2000 2000 0.0 0,0 95.72410266575362 187.03788975502215 A 87.14285714285714 87.14285714285714 0.0 0,1 87.21348722603284 186.19966729693093" fill="rgb(0,0,0)" stroke="rgb(0,0,255)" stroke-width="0" /><path d="M 70.6424556329638 182.04883996594899 A 2000 2000 0.0 0,0 66.31101466077814 194.15440651830212 A 100.0 100.0 0.0 0,0 75.70198200967371 197.00312531945443 A 2000 2000 0.0 0,0 78.82601289414424 184.53129492123884 A 87.14285714285714 87.14285714285714 0.0 0,1 70.6424556329638 182.04883996594899" fill="rgb(0,0,0)" stroke="rgb(0,0,255)" stroke-width="0" /><path d="M 55.19961800601941 174.74492172859522 A 2000 2000 0.0 0,0 48.589725580678014 185.77286100002732 A 100.0 100.0 0.0 0,0 57.244490656971955 190.39892931234442 A 2000 2000 0.0 0,0 62.741627572504136 178.7762098293287 A 87.14285714285714 87.14285714285714 0.0 0,1 55.19961800601941 174.74492172859522" fill="rgb(0,0,0)" stroke="rgb(0,0,255)" stroke-width="0" /><path d="M 41.47843393475989 164.56859806664647 A 2000 2000 0.0 0,0 32.84410451529823 174.09511253549596 A 100.0 100.0 0.0 0,0 40.43006955075672 180.32075314806454 A 2000 2000 0.0 0,0 48.089060608516576 169.9937991718848 A 87.14285714285714 87.14285714285714 0.0 0,1 41.47843393475989 164.56859806664647" fill="rgb(0,0,0)" stroke="rgb(0,0,255)" stroke-width="0" /><path d="M 30.006200828115226 151.91093939148348 A 2000 2000 0.0 0,0 19.679246851935503 159.56993044924334 A 100.0 100.0 0.0 0,0 25.90488746450407 167.15589548470183 A 2000 2000 0.0 0,0 35.43140193335354 158.52156606524014 A 87.14285714285714 87.14285714285714 0.0 0,1 30.006200828115226 151.91093939148348" fill="rgb(0,0,0)" stroke="rgb(0,0,255)" stroke-width="0" /><path d="M 21.223790170671393 137.25837242749606 A 2000 2000 0.0 0,0 9.601070687655692 142.75550934302828 A 100.0 100.0 0.0 0,0 14.227138999972809 151.4102744193222 A 2000 2000 0.0 0,0 25.255078271404884 144.80038199398078 A 87.14285714285714 87.14285714285714 0.0 0,1 21.223790170671393 137.25837242749606" fill="rgb(0,0,0)" stroke="rgb(0,0,255)" stroke-width="0" /><path d="M 15.468705078761204 121.17398710585596 A 2000 2000 0.0 0,0 2.9968746805456306 124.29801799032651 A 100.0 100.0 0.0 0,0 5.8455934816979465 133.68898533922209 A 2000 2000 0.0 0,0 17.95116003405107 129.35754436703638 A 87.14285714285714 87.14285714285714 0.0 0,1 15.468705078761204 121.17398710585596" fill="rgb(0,0,0)" stroke="rgb(0,0,255)" stroke-width="0" /><path d="M 12.96211024497785 104.2758973342466 A 2000 2000 0.0 0,0 0.12045437948276572 104.906767432742 A 100.0 100.0 0.0 0,0 1.0823490035219265 114.67304744553634 A 2000 2000 0.0 0,0 13.800332703069117 112.78651277396739 A 87.14285714285714 87.14285714285714 0.0 0,1 12.96211024497785 104.2758973342466" fill="rgb(0,0,0)" stroke="rgb(0,0,255)" stroke-width="0" /><path d="M 13.800332703069074 87.21348722603284 A 2000 2000 0.0 0,0 1.082349003521884 85.32695255446392 A 100.0 100.0 0.0 0,0 0.12045437948276572 95.09323256725826 A 2000 2000 0.0 0,0 12.962110244977836 95.72410266575362 A 87.14285714285714 87.14285714285714 0.0 0,1 13.800332703069074 87.21348722603284" fill="rgb(0,0,0)" stroke="rgb(0,0,255)" stroke-width="0" /><path d="M 17.951160034051014 70.64245563296382 A 2000 2000 0.0 0,0 5.845593481697875 66.31101466077814 A 100.0 100.0 0.0 0,0 2.9968746805455737 75.70198200967373 A 2000 2000 0.0 0,0 15.468705078761147 78.82601289414426 A 87.14285714285714 87.14285714285714 0.0 0,1 17.951160034051014 70.64245563296382" fill="rgb(0,0,0)" stroke="rgb(0,0,255)" stroke-width="0" /><path d="M 25.25507827140484 55.199618006019286 A 2000 2000 0.0 0,0 14.227138999972766 48.589725580677865 A 100.0 100.0 0.0 0,0 9.601070687655664 57.244490656971806 A 2000 2000 0.0 0,0 21.223790170671364 62.741627572504 A 87.14285714285714 87.14285714285714 0.0 0,1 25.25507827140484 55.199618006019286" fill="rgb(0,0,0)" stroke="rgb(0,0,255)" stroke-width="0" /><path d="M 35.4314019333535 41.4784339347599 A 2000 2000 0.0 0,0 25.904887464504014 32.84410451529824 A 100.0 100.0 0.0 0,0 19.67924685193546 40.430069550756734 A 2000 2000 0.0 0,0 30.006200828115198 48.08906060851658 A 87.14285714285714 87.14285714285714 0.0 0,1 35.4314019333535 41.4784339347599" fill="rgb(0,0,0)" stroke="rgb(0,0,255)" stroke-width="0" /><path d="M 48.0890606085164 30.006200828115325 A 2000 2000 0.0 0,0 40.43006955075652 19.679246851935616 A 100.0 100.0 0.0 0,0 32.844104515298056 25.904887464504185 A 2000 2000 0.0 0,0 41.478433934759735 35.431401933353655 A 87.14285714285714 87.14285714285714 0.0 0,1 48.0890606085164 30.006200828115325" fill="rgb(0,0,0)" stroke="rgb(0,0,255)" stroke-width="0" /><path d="M 62.741627572503795 21.223790170671464 A 2000 2000 0.0 0,0 57.24449065697157 9.601070687655778 A 100.0 100.0 0.0 0,0 48.589725580677644 14.227138999972894 A 2000 2000 0.0 0,0 55.199618006019094 25.255078271404955 A 87.14285714285714 87.14285714285714 0.0 0,1 62.741627572503795 21.223790170671464" fill="rgb(0,0,0)" stroke="rgb(0,0,255)" stroke-width="0" /><path d="M 78.82601289414403 15.468705078761204 A 2000 2000 0.0 0,0 75.70198200967349 2.9968746805456306 A 100.0 100.0 0.0 0,0 66.3110146607779 5.8455934816979465 A 2000 2000 0.0 0,0 70.6424556329636 17.95116003405107 A 87.14285714285714 87.14285714285714 0.0 0,1 78.82601289414403 15.468705078761204" fill="rgb(0,0,0)" stroke="rgb(0,0,255)" stroke-width="0" /><path d="M 95.72410266575355 12.962110244977836 A 2000 2000 0.0 0,0 95.09323256725817 0.12045437948276572 A 100.0 100.0 0.0 0,0 85.32695255446383 1.0823490035218981 A 2000 2000 0.0 0,0 87.21348722603277 13.800332703069088 A 87.14285714285714 87.14285714285714 0.0 0,1 95.72410266575355 12.962110244977836" fill="rgb(0,0,0)" stroke="rgb(0,0,255)" stroke-width="0" /><path d="M 112.78651277396716 13.800332703069074 A 2000 2000 0.0 0,0 114.67304744553608 1.082349003521884 A 100.0 100.0 0.0 0,0 104.90676743274174 0.12045437948276572 A 2000 2000 0.0 0,0 104.27589733424638 12.962110244977836 A 87.14285714285714 87.14285714285714 0.0 0,1 112.78651277396716 13.800332703069074" fill="rgb(0,0,0)" stroke="rgb(0,0,255)" stroke-width="0" /><path d="M 129.35754436703618 17.951160034051 A 2000 2000 0.0 0,0 133.68898533922186 5.845593481697861 A 100.0 100.0 0.0 0,0 124.29801799032626 2.9968746805455737 A 2000 2000 0.0 0,0 121.17398710585574 15.468705078761147 A 87.14285714285714 87.14285714285714 0.0 0,1 129.35754436703618 17.951160034051" fill="rgb(0,0,0)" stroke="rgb(0,0,255)" stroke-width="0" /><path d="M 144.80038199398058 25.25507827140477 A 2000 2000 0.0 0,0 151.41027441932198 14.22713899997268 A 100.0 100.0 0.0 0,0 142.75550934302802 9.601070687655593 A 2000 2000 0.0 0,0 137.25837242749586 21.223790170671307 A 87.14285714285714 87.14285714285714 0.0 0,1 144.80038199398058 25.25507827140477" fill="rgb(0,0,0)" stroke="rgb(0,0,255)" stroke-width="0" /><path d="M 158.5215660652401 35.4314019333535 A 2000 2000 0.0 0,0 167.15589548470177 25.904887464504014 A 100.0 100.0 0.0 0,0 159.56993044924326 19.67924685193546 A 2000 2000 0.0 0,0 151.91093939148342 30.006200828115198 A 87.14285714285714 87.14285714285714 0.0 0,1 158.5215660652401 35.4314019333535" fill="rgb(0,0,0)" stroke="rgb(0,0,255)" stroke-width="0" /><path d="M 169.99379917188475 48.089060608516526 A 2000 2000 0.0 0,0 180.32075314806448 40.43006955075666 A 100.0 100.0 0.0 0,0 174.09511253549593 32.844104515298184 A 2000 2000 0.0 0,0 164.56859806664644 41.47843393475984 A 87.14285714285714 87.14285714285714 0.0 0,1 169.99379917188475 48.089060608516526" fill="rgb(0,0,0)" stroke="rgb(0,0,255)" stroke-width="0" /><path d="M 178.7762098293286 62.74162757250394 A 2000 2000 0.0 0,0 190.3989293123443 57.24449065697173 A 100.0 100.0 0.0 0,0 185.7728610000272 48.589725580677786 A 2000 2000 0.0 0,0 174.7449217285951 55.19961800601922 A 87.14285714285714 87.14285714285714 0.0 0,1 178.7762098293286 62.74162757250394" fill="rgb(0,0,0)" stroke="rgb(0,0,255)" stroke-width="0" /><path d="M 184.53129492123878 78.82601289414403 A 2000 2000 0.0 0,0 197.00312531945437 75.70198200967347 A 100.0 100.0 0.0 0,0 194.15440651830204 66.31101466077789 A 2000 2000 0.0 0,0 182.0488399659489 70.64245563296359 A 87.14285714285714 87.14285714285714 0.0 0,1 184.53129492123878 78.82601289414403" fill="rgb(0,0,0)" stroke="rgb(0,0,255)" stroke-width="0" /></svg>