<?xml version="1.0" encoding="utf-8" ?>
<svg baseProfile="full" height="100%" version="1.1" width="100%" xmlns="http://www.w3.org/2000/svg" xmlns:ev="http://www.w3.org/2001/xml-events" xmlns:xlink="http://www.w3.org/1999/xlink"><defs /><path d="M 90.0 100.0 A 2000 2000 0.0 0,0 80.0 100.0 A 20.0 20.0 0.0 0,0 120.0 100.0 A 2000 2000 0.0 0,0 110.0 100.0 A 10.0 10.0 0.0 0,1 90.0 100.0" fill="rgb(0,0,0)" stroke="rgb(0,0,255)" stroke-width="0" /><path d="M 100.0 80.0 A 2000 2000 0.0 0,0 100.0 70.0 A 30.0 30.0 0.0 0,0 100.0 130.0 A 2000 2000 0.0 0,0 100.0 120.0 A 20.0 20.0 0.0 0,1 100.0 80.0" fill="rgb(0,0,0)" stroke="rgb(0,0,255)" stroke-width="0" /><path d="M 121.21320343559643 78.78679656440357 A 2000 2000 0.0 0,0 128.2842712474619 71.7157287525381 A 40.0 40.0 0.0 0,0 71.7157287525381 71.7157287525381 A 2000 2000 0.0 0,0 78.78679656440357 78.78679656440357 A 30.0 30.0 0.0 0,1 121.21320343559643 78.78679656440357" fill="rgb(0,0,0)" stroke="rgb(0,0,255)" stroke-width="0" /><path d="M 78.7867965644036 121.21320343559645 A 2000 2000 0.0 0,0 71.71572875253813 128.28427124746193 A 40.0 40.0 0.0 0,0 128.28427124746193 128.28427124746187 A 2000 2000 0.0 0,0 121.21320343559645 121.2132034355964 A 30.0 30.0 0.0 0,1 78.7867965644036 121.21320343559645" fill="rgb(0,0,0)" stroke="rgb(0,0,255)" stroke-width="0" /><path d="M 136.95518130045144 84.69266270539639 A 2000 2000 0.0 0,0 146.19397662556432 80.86582838174547 A 50.0 50.0 0.0 0,0 119.13417161825446 53.806023374435654 A 2000 2000 0.0 0,0 115.30733729460357 63.04481869954852 A 40.0 40.0 0.0 0,1 136.95518130045144 84.69266270539639" fill="rgb(0,0,0)" stroke="rgb(0,0,255)" stroke-width="0" /><path d="M 115.30733729460361 136.95518130045144 A 2000 2000 0.0 0,0 119.13417161825453 146.19397662556432 A 50.0 50.0 0.0 0,0 146.19397662556435 119.13417161825446 A 2000 2000 0.0 0,0 136.9551813004515 115.30733729460357 A 40.0 40.0 0.0 0,1 115.30733729460361 136.95518130045144" fill="rgb(0,0,0)" stroke="rgb(0,0,255)" stroke-width="0" /><path d="M 63.04481869954854 115.30733729460363 A 2000 2000 0.0 0,0 53.80602337443568 119.13417161825453 A 50.0 50.0 0.0 0,0 80.8658283817455 146.19397662556435 A 2000 2000 0.0 0,0 84.6926627053964 136.95518130045147 A 40.0 40.0 0.0 0,1 63.04481869954854 115.30733729460363" fill="rgb(0,0,0)" stroke="rgb(0,0,255)" stroke-width="0" /><path d="M 84.69266270539637 63.04481869954854 A 2000 2000 0.0 0,0 80.86582838174547 53.80602337443568 A 50.0 50.0 0.0 0,0 53.80602337443563 80.86582838174559 A 2000 2000 0.0 0,0 63.0448186995485 84.69266270539647 A 40.0 40.0 0.0 0,1 84.69266270539637 63.04481869954854" fill="rgb(0,0,0)" stroke="rgb(0,0,255)" stroke-width="0" /><path d="M 149.0392640201615 90.24548389919356 A 2000 2000 0.0 0,0 158.84711682419382 88.29458067903228 A 60.0 60.0 0.0 0,0 149.8881767381527 66.66578601882387 A 2000 2000 0.0 0,0 141.57348061512727 72.22148834901989 A 50.0 50.0 0.0 0,1 149.0392640201615 90.24548389919356" fill="rgb(0,0,0)" stroke="rgb(0,0,255)" stroke-width="0" /><path d="M 141.57348061512727 127.7785116509801 A 2000 2000 0.0 0,0 149.88817673815274 133.3342139811761 A 60.0 60.0 0.0 0,0 158.84711682419385 111.70541932096764 A 2000 2000 0.0 0,0 149.03926402016154 109.75451610080637 A 50.0 50.0 0.0 0,1 141.57348061512727 127.7785116509801" fill="rgb(0,0,0)" stroke="rgb(0,0,255)" stroke-width="0" /><path d="M 109.75451610080644 149.0392640201615 A 2000 2000 0.0 0,0 111.70541932096772 158.84711682419382 A 60.0 60.0 0.0 0,0 133.33421398117613 149.8881767381527 A 2000 2000 0.0 0,0 127.77851165098011 141.57348061512727 A 50.0 50.0 0.0 0,1 109.75451610080644 149.0392640201615" fill="rgb(0,0,0)" stroke="rgb(0,0,255)" stroke-width="0" /><path d="M 72.22148834901992 141.57348061512727 A 2000 2000 0.0 0,0 66.6657860188239 149.88817673815274 A 60.0 60.0 0.0 0,0 88.29458067903236 158.84711682419385 A 2000 2000 0.0 0,0 90.24548389919363 149.03926402016154 A 50.0 50.0 0.0 0,1 72.22148834901992 141.57348061512727" fill="rgb(0,0,0)" stroke="rgb(0,0,255)" stroke-width="0" /><path d="M 50.960735979838475 109.7545161008064 A 2000 2000 0.0 0,0 41.15288317580617 111.70541932096768 A 60.0 60.0 0.0 0,0 50.11182326184729 133.33421398117613 A 2000 2000 0.0 0,0 58.42651938487274 127.77851165098011 A 50.0 50.0 0.0 0,1 50.960735979838475 109.7545161008064" fill="rgb(0,0,0)" stroke="rgb(0,0,255)" stroke-width="0" /><path d="M 58.42651938487272 72.22148834901992 A 2000 2000 0.0 0,0 50.11182326184726 66.6657860188239 A 60.0 60.0 0.0 0,0 41.15288317580616 88.29458067903236 A 2000 2000 0.0 0,0 50.96073597983847 90.24548389919363 A 50.0 50.0 0.0 0,1 58.42651938487272 72.22148834901992" fill="rgb(0,0,0)" stroke="rgb(0,0,255)" stroke-width="0" /><path d="M 90.24548389919352 50.960735979838496 A 2000 2000 0.0 0,0 88.29458067903221 41.152883175806195 A 60.0 60.0 0.0 0,0 66.66578601882377 50.111823261847356 A 2000 2000 0.0 0,0 72.22148834901981 58.42651938487279 A 50.0 50.0 0.0 0,1 90.24548389919352 50.960735979838496" fill="rgb(0,0,0)" stroke="rgb(0,0,255)" stroke-width="0" /><path d="M 127.77851165098008 58.42651938487272 A 2000 2000 0.0 0,0 133.3342139811761 50.11182326184726 A 60.0 60.0 0.0 0,0 111.70541932096764 41.15288317580616 A 2000 2000 0.0 0,0 109.75451610080636 50.96073597983847 A 50.0 50.0 0.0 0,1 127.77851165098008 58.42651938487272" fill="rgb(0,0,0)" stroke="rgb(0,0,255)" stroke-width="0" /><path d="M 159.71108360033182 94.11897158022632 A 2000 2000 0.0 0,0 169.66293086705377 93.1388001769307 A 70.0 70.0 0.0 0,0 166.9858235012546 79.68007259218757 A 2000 2000 0.0 0,0 157.4164201439325 82.58291936473219 A 60.0 60.0 0.0 0,1 159.71108360033182 94.11897158022632" fill="rgb(0,0,0)" stroke="rgb(0,0,255)" stroke-width="0" /><path d="M 157.41642014393256 117.41708063526767 A 2000 2000 0.0 0,0 166.98582350125463 120.31992740781229 A 70.0 70.0 0.0 0,0 169.66293086705377 106.86119982306914 A 2000 2000 0.0 0,0 159.71108360033182 105.88102841977354 A 60.0 60.0 0.0 0,1 157.41642014393256 117.41708063526767" fill="rgb(0,0,0)" stroke="rgb(0,0,255)" stroke-width="0" /><path d="M 146.38062720176424 138.0635970498187 A 2000 2000 0.0 0,0 154.11073173539162 144.40752989145514 A 70.0 70.0 0.0 0,0 161.7344885043849 132.99777157781978 A 2000 2000 0.0 0,0 152.91527586090132 128.2838042095598 A 60.0 60.0 0.0 0,1 146.38062720176424 138.0635970498187" fill="rgb(0,0,0)" stroke="rgb(0,0,255)" stroke-width="0" /><path d="M 128.2838042095599 152.9152758609013 A 2000 2000 0.0 0,0 132.99777157781986 161.73448850438484 A 70.0 70.0 0.0 0,0 144.40752989145523 154.11073173539157 A 2000 2000 0.0 0,0 138.06359704981875 146.38062720176418 A 60.0 60.0 0.0 0,1 128.2838042095599 152.9152758609013" fill="rgb(0,0,0)" stroke="rgb(0,0,255)" stroke-width="0" /><path d="M 105.88102841977368 159.71108360033182 A 2000 2000 0.0 0,0 106.8611998230693 169.66293086705377 A 70.0 70.0 0.0 0,0 120.31992740781243 166.9858235012546 A 2000 2000 0.0 0,0 117.41708063526781 157.4164201439325 A 60.0 60.0 0.0 0,1 105.88102841977368 159.71108360033182" fill="rgb(0,0,0)" stroke="rgb(0,0,255)" stroke-width="0" /><path d="M 82.58291936473233 157.41642014393256 A 2000 2000 0.0 0,0 79.68007259218773 166.98582350125463 A 70.0 70.0 0.0 0,0 93.13880017693086 169.66293086705377 A 2000 2000 0.0 0,0 94.11897158022646 159.71108360033182 A 60.0 60.0 0.0 0,1 82.58291936473233 157.41642014393256" fill="rgb(0,0,0)" stroke="rgb(0,0,255)" stroke-width="0" /><path d="M 61.93640295018131 146.38062720176424 A 2000 2000 0.0 0,0 55.59247010854486 154.11073173539162 A 70.0 70.0 0.0 0,0 67.00222842218017 161.73448850438487 A 2000 2000 0.0 0,0 71.71619579044015 152.91527586090132 A 60.0 60.0 0.0 0,1 61.93640295018131 146.38062720176424" fill="rgb(0,0,0)" stroke="rgb(0,0,255)" stroke-width="0" /><path d="M 47.08472413909871 128.2838042095599 A 2000 2000 0.0 0,0 38.265511495615165 132.99777157781986 A 70.0 70.0 0.0 0,0 45.889268264608404 144.40752989145517 A 2000 2000 0.0 0,0 53.61937279823577 138.06359704981872 A 60.0 60.0 0.0 0,1 47.08472413909871 128.2838042095599" fill="rgb(0,0,0)" stroke="rgb(0,0,255)" stroke-width="0" /><path d="M 40.28891639966818 105.88102841977364 A 2000 2000 0.0 0,0 30.337069132946212 106.86119982306924 A 70.0 70.0 0.0 0,0 33.01417649874537 120.31992740781233 A 2000 2000 0.0 0,0 42.58357985606746 117.41708063526771 A 60.0 60.0 0.0 0,1 40.28891639966818 105.88102841977364" fill="rgb(0,0,0)" stroke="rgb(0,0,255)" stroke-width="0" /><path d="M 42.583579856067445 82.58291936473233 A 2000 2000 0.0 0,0 33.01417649874536 79.68007259218773 A 70.0 70.0 0.0 0,0 30.337069132946212 93.1388001769308 A 2000 2000 0.0 0,0 40.28891639966818 94.1189715802264 A 60.0 60.0 0.0 0,1 42.583579856067445 82.58291936473233" fill="rgb(0,0,0)" stroke="rgb(0,0,255)" stroke-width="0" /><path d="M 53.619372798235744 61.93640295018132 A 2000 2000 0.0 0,0 45.88926826460837 55.59247010854487 A 70.0 70.0 0.0 0,0 38.26551149561514 67.00222842218018 A 2000 2000 0.0 0,0 47.08472413909869 71.71619579044015 A 60.0 60.0 0.0 0,1 53.619372798235744 61.93640295018132" fill="rgb(0,0,0)" stroke="rgb(0,0,255)" stroke-width="0" /><path d="M 71.71619579044011 47.08472413909871 A 2000 2000 0.0 0,0 67.00222842218014 38.265511495615165 A 70.0 70.0 0.0 0,0 55.59247010854482 45.889268264608404 A 2000 2000 0.0 0,0 61.936402950181275 53.61937279823577 A 60.0 60.0 0.0 0,1 71.71619579044011 47.08472413909871" fill="rgb(0,0,0)" stroke="rgb(0,0,255)" stroke-width="0" /><path d="M 94.11897158022626 40.288916399668196 A 2000 2000 0.0 0,0 93.13880017693063 30.337069132946226 A 70.0 70.0 0.0 0,0 79.68007259218756 33.0141764987454 A 2000 2000 0.0 0,0 82.58291936473219 42.58357985606749 A 60.0 60.0 0.0 0,1 94.11897158022626 40.288916399668196" fill="rgb(0,0,0)" stroke="rgb(0,0,255)" stroke-width="0" /><path d="M 117.41708063526775 42.58357985606748 A 2000 2000 0.0 0,0 120.31992740781239 33.014176498745385 A 70.0 70.0 0.0 0,0 106.86119982306931 30.337069132946226 A 2000 2000 0.0 0,0 105.8810284197737 40.28891639966819 A 60.0 60.0 0.0 0,1 117.41708063526775 42.58357985606748" fill="rgb(0,0,0)" stroke="rgb(0,0,255)" stroke-width="0" /><path d="M 138.06359704981867 53.619372798235744 A 2000 2000 0.0 0,0 144.4075298914551 45.88926826460837 A 70.0 70.0 0.0 0,0 132.99777157781983 38.26551149561514 A 2000 2000 0.0 0,0 128.28380420955983 47.08472413909869 A 60.0 60.0 0.0 0,1 138.06359704981867 53.619372798235744" fill="rgb(0,0,0)" stroke="rgb(0,0,255)" stroke-width="0" /><path d="M 152.91527586090123 71.71619579044001 A 2000 2000 0.0 0,0 161.73448850438479 67.00222842218002 A 70.0 70.0 0.0 0,0 154.1107317353915 55.592470108544724 A 2000 2000 0.0 0,0 146.38062720176416 61.93640295018119 A 60.0 60.0 0.0 0,1 152.91527586090123 71.71619579044001" fill="rgb(0,0,0)" stroke="rgb(0,0,255)" stroke-width="0" /><path d="M 169.91568193436206 96.56526279708068 A 2000 2000 0.0 0,0 179.90363649641378 96.07458605380648 A 80.0 80.0 0.0 0,0 179.13412079718248 88.261562043571 A 2000 2000 0.0 0,0 169.24235569753466 89.72886678812463 A 70.0 70.0 0.0 0,1 169.91568193436206 96.56526279708068" fill="rgb(0,0,0)" stroke="rgb(0,0,255)" stroke-width="0" /><path d="M 169.24235569753466 110.27113321187527 A 2000 2000 0.0 0,0 179.1341207971825 111.73843795642888 A 80.0 80.0 0.0 0,0 179.9036364964138 103.9254139461934 A 2000 2000 0.0 0,0 169.91568193436206 103.43473720291924 A 70.0 70.0 0.0 0,1 169.24235569753466 110.27113321187527" fill="rgb(0,0,0)" stroke="rgb(0,0,255)" stroke-width="0" /><path d="M 165.9080845628115 123.58228973745531 A 2000 2000 0.0 0,0 175.3235252146417 126.9511882713775 A 80.0 80.0 0.0 0,0 177.60250025556354 119.43841439226102 A 2000 2000 0.0 0,0 167.9021877236181 117.0086125932284 A 70.0 70.0 0.0 0,1 165.9080845628115 123.58228973745531" fill="rgb(0,0,0)" stroke="rgb(0,0,255)" stroke-width="0" /><path d="M 160.04100270001908 135.98719209352544 A 2000 2000 0.0 0,0 168.61828880002182 141.12821953545765 A 80.0 80.0 0.0 0,0 172.3191434498755 134.2044074744225 A 2000 2000 0.0 0,0 163.27925051864105 129.92885654011968 A 70.0 70.0 0.0 0,1 160.04100270001908 135.98719209352544" fill="rgb(0,0,0)" stroke="rgb(0,0,255)" stroke-width="0" /><path d="M 151.8665787748472 147.00912683929124 A 2000 2000 0.0 0,0 159.27609002839677 153.72471638776142 A 80.0 80.0 0.0 0,0 164.25660251845161 147.65594435939462 A 2000 2000 0.0 0,0 156.22452720364515 141.6989513144703 A 70.0 70.0 0.0 0,1 151.8665787748472 147.00912683929124" fill="rgb(0,0,0)" stroke="rgb(0,0,255)" stroke-width="0" /><path d="M 141.69895131447038 156.22452720364512 A 2000 2000 0.0 0,0 147.6559443593947 164.25660251845156 A 80.0 80.0 0.0 0,0 153.7247163877615 159.2760900283967 A 2000 2000 0.0 0,0 147.0091268392913 151.8665787748471 A 70.0 70.0 0.0 0,1 141.69895131447038 156.22452720364512" fill="rgb(0,0,0)" stroke="rgb(0,0,255)" stroke-width="0" /><path d="M 129.9288565401198 163.27925051864102 A 2000 2000 0.0 0,0 134.20440747442262 172.31914344987547 A 80.0 80.0 0.0 0,0 141.12821953545776 168.61828880002176 A 2000 2000 0.0 0,0 135.98719209352552 160.04100270001905 A 70.0 70.0 0.0 0,1 129.9288565401198 163.27925051864102" fill="rgb(0,0,0)" stroke="rgb(0,0,255)" stroke-width="0" /><path d="M 117.00861259322855 167.90218772361806 A 2000 2000 0.0 0,0 119.43841439226121 177.60250025556348 A 80.0 80.0 0.0 0,0 126.95118827137767 175.32352521464162 A 2000 2000 0.0 0,0 123.58228973745545 165.90808456281144 A 70.0 70.0 0.0 0,1 117.00861259322855 167.90218772361806" fill="rgb(0,0,0)" stroke="rgb(0,0,255)" stroke-width="0" /><path d="M 103.43473720291934 169.91568193436206 A 2000 2000 0.0 0,0 103.92541394619353 179.90363649641378 A 80.0 80.0 0.0 0,0 111.738437956429 179.13412079718248 A 2000 2000 0.0 0,0 110.27113321187537 169.24235569753466 A 70.0 70.0 0.0 0,1 103.43473720291934 169.91568193436206" fill="rgb(0,0,0)" stroke="rgb(0,0,255)" stroke-width="0" /><path d="M 89.72886678812473 169.24235569753466 A 2000 2000 0.0 0,0 88.26156204357113 179.1341207971825 A 80.0 80.0 0.0 0,0 96.0745860538066 179.9036364964138 A 2000 2000 0.0 0,0 96.56526279708078 169.91568193436206 A 70.0 70.0 0.0 0,1 89.72886678812473 169.24235569753466" fill="rgb(0,0,0)" stroke="rgb(0,0,255)" stroke-width="0" /><path d="M 76.41771026254469 165.9080845628115 A 2000 2000 0.0 0,0 73.04881172862251 175.3235252146417 A 80.0 80.0 0.0 0,0 80.56158560773898 177.60250025556354 A 2000 2000 0.0 0,0 82.99138740677161 167.9021877236181 A 70.0 70.0 0.0 0,1 76.41771026254469 165.9080845628115" fill="rgb(0,0,0)" stroke="rgb(0,0,255)" stroke-width="0" /><path d="M 64.0128079064746 160.04100270001913 A 2000 2000 0.0 0,0 58.87178046454241 168.61828880002184 A 80.0 80.0 0.0 0,0 65.79559252557758 172.31914344987553 A 2000 2000 0.0 0,0 70.07114345988037 163.27925051864108 A 70.0 70.0 0.0 0,1 64.0128079064746 160.04100270001913" fill="rgb(0,0,0)" stroke="rgb(0,0,255)" stroke-width="0" /><path d="M 52.990873160708766 151.8665787748472 A 2000 2000 0.0 0,0 46.27528361223859 159.27609002839677 A 80.0 80.0 0.0 0,0 52.344055640605376 164.25660251845164 A 2000 2000 0.0 0,0 58.30104868552971 156.22452720364518 A 70.0 70.0 0.0 0,1 52.990873160708766 151.8665787748472" fill="rgb(0,0,0)" stroke="rgb(0,0,255)" stroke-width="0" /><path d="M 43.775472796354855 141.69895131447032 A 2000 2000 0.0 0,0 35.7433974815484 147.65594435939465 A 80.0 80.0 0.0 0,0 40.723909971603256 153.72471638776145 A 2000 2000 0.0 0,0 48.133421225152844 147.00912683929127 A 70.0 70.0 0.0 0,1 43.775472796354855 141.69895131447032" fill="rgb(0,0,0)" stroke="rgb(0,0,255)" stroke-width="0" /><path d="M 36.72074948135898 129.9288565401198 A 2000 2000 0.0 0,0 27.680856550124545 134.20440747442262 A 80.0 80.0 0.0 0,0 31.38171119997824 141.12821953545776 A 2000 2000 0.0 0,0 39.958997299980965 135.98719209352555 A 70.0 70.0 0.0 0,1 36.72074948135898 129.9288565401198" fill="rgb(0,0,0)" stroke="rgb(0,0,255)" stroke-width="0" /><path d="M 32.097812276381944 117.00861259322856 A 2000 2000 0.0 0,0 22.397499744436516 119.43841439226121 A 80.0 80.0 0.0 0,0 24.676474785358366 126.95118827137767 A 2000 2000 0.0 0,0 34.09191543718856 123.58228973745547 A 70.0 70.0 0.0 0,1 32.097812276381944 117.00861259322856" fill="rgb(0,0,0)" stroke="rgb(0,0,255)" stroke-width="0" /><path d="M 30.084318065637945 103.4347372029194 A 2000 2000 0.0 0,0 20.09636350358622 103.9254139461936 A 80.0 80.0 0.0 0,0 20.865879202817553 111.73843795642907 A 2000 2000 0.0 0,0 30.75764430246535 110.27113321187544 A 70.0 70.0 0.0 0,1 30.084318065637945 103.4347372029194" fill="rgb(0,0,0)" stroke="rgb(0,0,255)" stroke-width="0" /><path d="M 30.757644302465323 89.72886678812473 A 2000 2000 0.0 0,0 20.86587920281751 88.26156204357113 A 80.0 80.0 0.0 0,0 20.096363503586204 96.0745860538066 A 2000 2000 0.0 0,0 30.08431806563793 96.56526279708078 A 70.0 70.0 0.0 0,1 30.757644302465323 89.72886678812473" fill="rgb(0,0,0)" stroke="rgb(0,0,255)" stroke-width="0" /><path d="M 34.09191543718852 76.4177102625447 A 2000 2000 0.0 0,0 24.676474785358295 73.04881172862251 A 80.0 80.0 0.0 0,0 22.39749974443646 80.56158560773898 A 2000 2000 0.0 0,0 32.0978122763819 82.99138740677161 A 70.0 70.0 0.0 0,1 34.09191543718852 76.4177102625447" fill="rgb(0,0,0)" stroke="rgb(0,0,255)" stroke-width="0" /><path d="M 39.958997299980936 64.0128079064745 A 2000 2000 0.0 0,0 31.381711199978213 58.8717804645423 A 80.0 80.0 0.0 0,0 27.68085655012453 65.79559252557743 A 2000 2000 0.0 0,0 36.720749481358965 70.07114345988026 A 70.0 70.0 0.0 0,1 39.958997299980936 64.0128079064745" fill="rgb(0,0,0)" stroke="rgb(0,0,255)" stroke-width="0" /><path d="M 48.13342122515281 52.99087316070877 A 2000 2000 0.0 0,0 40.723909971603206 46.275283612238596 A 80.0 80.0 0.0 0,0 35.74339748154837 52.34405564060538 A 2000 2000 0.0 0,0 43.775472796354826 58.301048685529715 A 70.0 70.0 0.0 0,1 48.13342122515281 52.99087316070877" fill="rgb(0,0,0)" stroke="rgb(0,0,255)" stroke-width="0" /><path d="M 58.301048685529565 43.77547279635493 A 2000 2000 0.0 0,0 52.34405564060522 35.7433974815485 A 80.0 80.0 0.0 0,0 46.27528361223845 40.72390997160335 A 2000 2000 0.0 0,0 52.99087316070864 48.13342122515293 A 70.0 70.0 0.0 0,1 58.301048685529565 43.77547279635493" fill="rgb(0,0,0)" stroke="rgb(0,0,255)" stroke-width="0" /><path d="M 70.07114345988009 36.72074948135904 A 2000 2000 0.0 0,0 65.79559252557726 27.680856550124616 A 80.0 80.0 0.0 0,0 58.87178046454211 31.381711199978326 A 2000 2000 0.0 0,0 64.01280790647435 39.95899729998103 A 70.0 70.0 0.0 0,1 70.07114345988009 36.72074948135904" fill="rgb(0,0,0)" stroke="rgb(0,0,255)" stroke-width="0" /><path d="M 82.99138740677144 32.097812276381944 A 2000 2000 0.0 0,0 80.56158560773878 22.397499744436516 A 80.0 80.0 0.0 0,0 73.04881172862233 24.676474785358366 A 2000 2000 0.0 0,0 76.41771026254453 34.09191543718856 A 70.0 70.0 0.0 0,1 82.99138740677144 32.097812276381944" fill="rgb(0,0,0)" stroke="rgb(0,0,255)" stroke-width="0" /><path d="M 96.56526279708072 30.08431806563793 A 2000 2000 0.0 0,0 96.07458605380654 20.096363503586204 A 80.0 80.0 0.0 0,0 88.26156204357106 20.865879202817524 A 2000 2000 0.0 0,0 89.72886678812469 30.757644302465323 A 70.0 70.0 0.0 0,1 96.56526279708072 30.08431806563793" fill="rgb(0,0,0)" stroke="rgb(0,0,255)" stroke-width="0" /><path d="M 110.27113321187525 30.757644302465323 A 2000 2000 0.0 0,0 111.73843795642887 20.86587920281751 A 80.0 80.0 0.0 0,0 103.92541394619339 20.096363503586204 A 2000 2000 0.0 0,0 103.43473720291922 30.08431806563793 A 70.0 70.0 0.0 0,1 110.27113321187525 30.757644302465323" fill="rgb(0,0,0)" stroke="rgb(0,0,255)" stroke-width="0" /><path d="M 123.5822897374553 34.091915437188504 A 2000 2000 0.0 0,0 126.95118827137748 24.676474785358295 A 80.0 80.0 0.0 0,0 119.43841439226101 22.39749974443646 A 2000 2000 0.0 0,0 117.00861259322838 32.0978122763819 A 70.0 70.0 0.0 0,1 123.5822897374553 34.091915437188504" fill="rgb(0,0,0)" stroke="rgb(0,0,255)" stroke-width="0" /><path d="M 135.98719209352538 39.95899729998087 A 2000 2000 0.0 0,0 141.1282195354576 31.38171119997814 A 80.0 80.0 0.0 0,0 134.20440747442242 27.680856550124474 A 2000 2000 0.0 0,0 129.92885654011963 36.720749481358915 A 70.0 70.0 0.0 0,1 135.98719209352538 39.95899729998087" fill="rgb(0,0,0)" stroke="rgb(0,0,255)" stroke-width="0" /><path d="M 147.00912683929124 48.13342122515281 A 2000 2000 0.0 0,0 153.72471638776142 40.723909971603206 A 80.0 80.0 0.0 0,0 147.65594435939462 35.74339748154837 A 2000 2000 0.0 0,0 141.6989513144703 43.775472796354826 A 70.0 70.0 0.0 0,1 147.00912683929124 48.13342122515281" fill="rgb(0,0,0)" stroke="rgb(0,0,255)" stroke-width="0" /><path d="M 156.22452720364515 58.301048685529665 A 2000 2000 0.0 0,0 164.2566025184516 52.34405564060533 A 80.0 80.0 0.0 0,0 159.27609002839674 46.27528361223854 A 2000 2000 0.0 0,0 151.86657877484714 52.99087316070872 A 70.0 70.0 0.0 0,1 156.22452720364515 58.301048685529665" fill="rgb(0,0,0)" stroke="rgb(0,0,255)" stroke-width="0" /><path d="M 163.279250518641 70.0711434598802 A 2000 2000 0.0 0,0 172.31914344987544 65.79559252557738 A 80.0 80.0 0.0 0,0 168.61828880002176 58.87178046454223 A 2000 2000 0.0 0,0 160.04100270001902 64.01280790647445 A 70.0 70.0 0.0 0,1 163.279250518641 70.0711434598802" fill="rgb(0,0,0)" stroke="rgb(0,0,255)" stroke-width="0" /><path d="M 167.90218772361806 82.99138740677142 A 2000 2000 0.0 0,0 177.60250025556348 80.56158560773878 A 80.0 80.0 0.0 0,0 175.32352521464162 73.04881172862231 A 2000 2000 0.0 0,0 165.90808456281144 76.41771026254453 A 70.0 70.0 0.0 0,1 167.90218772361806 82.99138740677142" fill="rgb(0,0,0)" stroke="rgb(0,0,255)" stroke-width="0" /><path d="M 179.97590549569634 98.03670171816694 A 2000 2000 0.0 0,0 189.97289368265837 97.7912894329378 A 90.0 90.0 0.0 0,0 189.7561411010821 93.37918927602985 A 2000 2000 0.0 0,0 179.7832365342952 94.11483491202654 A 80.0 80.0 0.0 0,1 179.97590549569634 98.03670171816694" fill="rgb(0,0,0)" stroke="rgb(0,0,255)" stroke-width="0" /><path d="M 179.7832365342952 105.88516508797328 A 2000 2000 0.0 0,0 189.7561411010821 106.62081072396994 A 90.0 90.0 0.0 0,0 189.97289368265837 102.208710567062 A 2000 2000 0.0 0,0 179.97590549569634 101.96329828183289 A 80.0 80.0 0.0 0,1 179.7832365342952 105.88516508797328" fill="rgb(0,0,0)" stroke="rgb(0,0,255)" stroke-width="0" /><path d="M 178.8222113911153 113.67695110082403 A 2000 2000 0.0 0,0 188.67498781500473 115.38656998842704 A 90.0 90.0 0.0 0,0 189.3231581138839 111.0169607679294 A 2000 2000 0.0 0,0 179.3983627678968 109.79285401593724 A 80.0 80.0 0.0 0,1 178.8222113911153 113.67695110082403" fill="rgb(0,0,0)" stroke="rgb(0,0,255)" stroke-width="0" /><path d="M 177.10208526363522 121.33702059799178 A 2000 2000 0.0 0,0 186.73984592158962 124.00414817274076 A 90.0 90.0 0.0 0,0 187.8131917034676 119.71911161411819 A 2000 2000 0.0 0,0 178.05617040308232 117.5280992125495 A 80.0 80.0 0.0 0,1 177.10208526363522 121.33702059799178" fill="rgb(0,0,0)" stroke="rgb(0,0,255)" stroke-width="0" /><path d="M 174.63942390677914 128.791602922799 A 2000 2000 0.0 0,0 183.96935189512652 132.39055328814888 A 90.0 90.0 0.0 0,0 185.4575362533733 128.2313566359002 A 2000 2000 0.0 0,0 175.96225444744294 125.09453923191128 A 80.0 80.0 0.0 0,1 174.63942390677914 128.791602922799" fill="rgb(0,0,0)" stroke="rgb(0,0,255)" stroke-width="0" /><path d="M 171.45794409564127 135.96890637236845 A 2000 2000 0.0 0,0 180.39018710759643 140.46501966891452 A 90.0 90.0 0.0 0,0 182.2788780133178 136.47171826044902 A 2000 2000 0.0 0,0 173.13678045628248 132.41930512039914 A 80.0 80.0 0.0 0,1 171.45794409564127 135.96890637236845" fill="rgb(0,0,0)" stroke="rgb(0,0,255)" stroke-width="0" /><path d="M 167.58828521997663 142.7998095909677 A 2000 2000 0.0 0,0 176.0368208724737 148.14978578983866 A 90.0 90.0 0.0 0,0 178.30782919978407 144.3608373006805 A 2000 2000 0.0 0,0 169.60695928869694 139.43185537838264 A 80.0 80.0 0.0 0,1 167.58828521997663 142.7998095909677" fill="rgb(0,0,0)" stroke="rgb(0,0,255)" stroke-width="0" /><path d="M 163.06771421012854 149.2185272464501 A 2000 2000 0.0 0,0 170.9511784863946 155.37084315225636 A 90.0 90.0 0.0 0,0 173.58263318364257 151.82273722760604 A 2000 2000 0.0 0,0 165.40678505212674 146.06465531342758 A 80.0 80.0 0.0 0,1 163.06771421012854 149.2185272464501" fill="rgb(0,0,0)" stroke="rgb(0,0,255)" stroke-width="0" /><path d="M 157.9397666361174 155.1632435789653 A 2000 2000 0.0 0,0 165.18223746563208 162.05864902633596 A 90.0 90.0 0.0 0,0 168.14879618558365 158.78555586583985 A 2000 2000 0.0 0,0 160.5767077205188 152.2538274363021 A 80.0 80.0 0.0 0,1 157.9397666361174 155.1632435789653" fill="rgb(0,0,0)" stroke="rgb(0,0,255)" stroke-width="0" /><path d="M 152.25382743630223 160.5767077205187 A 2000 2000 0.0 0,0 158.78555586584002 168.14879618558354 A 90.0 90.0 0.0 0,0 162.0586490263361 165.18223746563194 A 2000 2000 0.0 0,0 155.16324357896542 157.9397666361173 A 80.0 80.0 0.0 0,1 152.25382743630223 160.5767077205187" fill="rgb(0,0,0)" stroke="rgb(0,0,255)" stroke-width="0" /><path d="M 146.0646553134277 165.40678505212665 A 2000 2000 0.0 0,0 151.82273722760613 173.58263318364249 A 90.0 90.0 0.0 0,0 155.37084315225647 170.95117848639453 A 2000 2000 0.0 0,0 149.2185272464502 163.06771421012846 A 80.0 80.0 0.0 0,1 146.0646553134277 165.40678505212665" fill="rgb(0,0,0)" stroke="rgb(0,0,255)" stroke-width="0" /><path d="M 139.4318553783828 169.60695928869686 A 2000 2000 0.0 0,0 144.36083730068066 178.30782919978395 A 90.0 90.0 0.0 0,0 148.14978578983883 176.03682087247358 A 2000 2000 0.0 0,0 142.79980959096784 167.5882852199765 A 80.0 80.0 0.0 0,1 139.4318553783828 169.60695928869686" fill="rgb(0,0,0)" stroke="rgb(0,0,255)" stroke-width="0" /><path d="M 132.41930512039932 173.1367804562824 A 2000 2000 0.0 0,0 136.47171826044922 182.2788780133177 A 90.0 90.0 0.0 0,0 140.4650196689147 180.39018710759632 A 2000 2000 0.0 0,0 135.96890637236862 171.45794409564115 A 80.0 80.0 0.0 0,1 132.41930512039932 173.1367804562824" fill="rgb(0,0,0)" stroke="rgb(0,0,255)" stroke-width="0" /><path d="M 125.0945392319114 175.9622544474429 A 2000 2000 0.0 0,0 128.2313566359003 185.4575362533733 A 90.0 90.0 0.0 0,0 132.390553288149 183.96935189512647 A 2000 2000 0.0 0,0 128.79160292279911 174.6394239067791 A 80.0 80.0 0.0 0,1 125.0945392319114 175.9622544474429" fill="rgb(0,0,0)" stroke="rgb(0,0,255)" stroke-width="0" /><path d="M 117.52809921254969 178.05617040308226 A 2000 2000 0.0 0,0 119.7191116141184 187.81319170346754 A 90.0 90.0 0.0 0,0 124.00414817274095 186.73984592158956 A 2000 2000 0.0 0,0 121.33702059799197 177.10208526363516 A 80.0 80.0 0.0 0,1 117.52809921254969 178.05617040308226" fill="rgb(0,0,0)" stroke="rgb(0,0,255)" stroke-width="0" /><path d="M 109.79285401593737 179.3983627678968 A 2000 2000 0.0 0,0 111.01696076792953 189.3231581138839 A 90.0 90.0 0.0 0,0 115.38656998842717 188.6749878150047 A 2000 2000 0.0 0,0 113.67695110082414 178.82221139111527 A 80.0 80.0 0.0 0,1 109.79285401593737 179.3983627678968" fill="rgb(0,0,0)" stroke="rgb(0,0,255)" stroke-width="0" /><path d="M 101.96329828183308 179.97590549569634 A 2000 2000 0.0 0,0 102.20871056706221 189.97289368265837 A 90.0 90.0 0.0 0,0 106.62081072397015 189.7561411010821 A 2000 2000 0.0 0,0 105.88516508797346 179.7832365342952 A 80.0 80.0 0.0 0,1 101.96329828183308 179.97590549569634" fill="rgb(0,0,0)" stroke="rgb(0,0,255)" stroke-width="0" /><path d="M 94.11483491202672 179.7832365342952 A 2000 2000 0.0 0,0 93.37918927603006 189.7561411010821 A 90.0 90.0 0.0 0,0 97.79128943293802 189.97289368265837 A 2000 2000 0.0 0,0 98.03670171816712 179.97590549569634 A 80.0 80.0 0.0 0,1 94.11483491202672 179.7832365342952" fill="rgb(0,0,0)" stroke="rgb(0,0,255)" stroke-width="0" /><path d="M 86.32304889917604 178.82221139111533 A 2000 2000 0.0 0,0 84.61343001157304 188.67498781500473 A 90.0 90.0 0.0 0,0 88.98303923207068 189.32315811388392 A 2000 2000 0.0 0,0 90.20714598406283 179.3983627678968 A 80.0 80.0 0.0 0,1 86.32304889917604 178.82221139111533" fill="rgb(0,0,0)" stroke="rgb(0,0,255)" stroke-width="0" /><path d="M 78.66297940200829 177.10208526363522 A 2000 2000 0.0 0,0 75.99585182725933 186.73984592158962 A 90.0 90.0 0.0 0,0 80.2808883858819 187.81319170346762 A 2000 2000 0.0 0,0 82.47190078745056 178.05617040308232 A 80.0 80.0 0.0 0,1 78.66297940200829 177.10208526363522" fill="rgb(0,0,0)" stroke="rgb(0,0,255)" stroke-width="0" /><path d="M 71.208397077201 174.63942390677914 A 2000 2000 0.0 0,0 67.60944671185112 183.96935189512652 A 90.0 90.0 0.0 0,0 71.76864336409982 185.4575362533733 A 2000 2000 0.0 0,0 74.90546076808872 175.96225444744294 A 80.0 80.0 0.0 0,1 71.208397077201 174.63942390677914" fill="rgb(0,0,0)" stroke="rgb(0,0,255)" stroke-width="0" /><path d="M 64.03109362763155 171.45794409564127 A 2000 2000 0.0 0,0 59.534980331085485 180.39018710759643 A 90.0 90.0 0.0 0,0 63.528281739550984 182.2788780133178 A 2000 2000 0.0 0,0 67.58069487960087 173.13678045628248 A 80.0 80.0 0.0 0,1 64.03109362763155 171.45794409564127" fill="rgb(0,0,0)" stroke="rgb(0,0,255)" stroke-width="0" /><path d="M 57.20019040903232 167.58828521997663 A 2000 2000 0.0 0,0 51.850214210161354 176.0368208724737 A 90.0 90.0 0.0 0,0 55.639162699319535 178.30782919978407 A 2000 2000 0.0 0,0 60.568144621617364 169.60695928869694 A 80.0 80.0 0.0 0,1 57.20019040903232 167.58828521997663" fill="rgb(0,0,0)" stroke="rgb(0,0,255)" stroke-width="0" /><path d="M 50.78147275354996 163.0677142101286 A 2000 2000 0.0 0,0 44.62915684774371 170.95117848639467 A 90.0 90.0 0.0 0,0 48.17726277239404 173.5826331836426 A 2000 2000 0.0 0,0 53.93534468657248 165.40678505212676 A 80.0 80.0 0.0 0,1 50.78147275354996 163.0677142101286" fill="rgb(0,0,0)" stroke="rgb(0,0,255)" stroke-width="0" /><path d="M 44.836756421034664 157.93976663611738 A 2000 2000 0.0 0,0 37.941350973663994 165.18223746563206 A 90.0 90.0 0.0 0,0 41.21444413416009 168.1487961855836 A 2000 2000 0.0 0,0 47.74617256369786 160.57670772051875 A 80.0 80.0 0.0 0,1 44.836756421034664 157.93976663611738" fill="rgb(0,0,0)" stroke="rgb(0,0,255)" stroke-width="0" /><path d="M 39.423292279481274 152.25382743630217 A 2000 2000 0.0 0,0 31.851203814416422 158.78555586583994 A 90.0 90.0 0.0 0,0 34.817762534368 162.05864902633607 A 2000 2000 0.0 0,0 42.060233363882666 155.16324357896536 A 80.0 80.0 0.0 0,1 39.423292279481274 152.25382743630217" fill="rgb(0,0,0)" stroke="rgb(0,0,255)" stroke-width="0" /><path d="M 34.59321494787335 146.0646553134277 A 2000 2000 0.0 0,0 26.417366816357514 151.82273722760613 A 90.0 90.0 0.0 0,0 29.048821513605475 155.37084315225647 A 2000 2000 0.0 0,0 36.932285789871536 149.2185272464502 A 80.0 80.0 0.0 0,1 34.59321494787335 146.0646553134277" fill="rgb(0,0,0)" stroke="rgb(0,0,255)" stroke-width="0" /><path d="M 30.393040711303144 139.4318553783828 A 2000 2000 0.0 0,0 21.692170800216033 144.36083730068066 A 90.0 90.0 0.0 0,0 23.963179127526416 148.14978578983883 A 2000 2000 0.0 0,0 32.41171478002349 142.79980959096787 A 80.0 80.0 0.0 0,1 30.393040711303144 139.4318553783828" fill="rgb(0,0,0)" stroke="rgb(0,0,255)" stroke-width="0" /><path d="M 26.863219543717605 132.41930512039932 A 2000 2000 0.0 0,0 17.72112198668229 136.47171826044922 A 90.0 90.0 0.0 0,0 19.60981289240368 140.4650196689147 A 2000 2000 0.0 0,0 28.542055904358833 135.96890637236862 A 80.0 80.0 0.0 0,1 26.863219543717605 132.41930512039932" fill="rgb(0,0,0)" stroke="rgb(0,0,255)" stroke-width="0" /><path d="M 24.037745552557112 125.09453923191145 A 2000 2000 0.0 0,0 14.542463746626765 128.2313566359004 A 90.0 90.0 0.0 0,0 16.03064810487355 132.39055328814908 A 2000 2000 0.0 0,0 25.360576093220942 128.79160292279917 A 80.0 80.0 0.0 0,1 24.037745552557112 125.09453923191145" fill="rgb(0,0,0)" stroke="rgb(0,0,255)" stroke-width="0" /><path d="M 21.943829596917766 117.52809921254976 A 2000 2000 0.0 0,0 12.186808296532476 119.71911161411848 A 90.0 90.0 0.0 0,0 13.260154078410466 124.00414817274104 A 2000 2000 0.0 0,0 22.897914736364854 121.33702059799204 A 80.0 80.0 0.0 0,1 21.943829596917766 117.52809921254976" fill="rgb(0,0,0)" stroke="rgb(0,0,255)" stroke-width="0" /><path d="M 20.601637232103215 109.79285401593737 A 2000 2000 0.0 0,0 10.676841886116108 111.01696076792953 A 90.0 90.0 0.0 0,0 11.325012184995302 115.38656998842717 A 2000 2000 0.0 0,0 21.17778860888471 113.67695110082416 A 80.0 80.0 0.0 0,1 20.601637232103215 109.79285401593737" fill="rgb(0,0,0)" stroke="rgb(0,0,255)" stroke-width="0" /><path d="M 20.024094504303662 101.96329828183308 A 2000 2000 0.0 0,0 10.027106317341634 102.20871056706221 A 90.0 90.0 0.0 0,0 10.243858898917892 106.62081072397015 A 2000 2000 0.0 0,0 20.216763465704787 105.88516508797348 A 80.0 80.0 0.0 0,1 20.024094504303662 101.96329828183308" fill="rgb(0,0,0)" stroke="rgb(0,0,255)" stroke-width="0" /><path d="M 20.216763465704773 94.11483491202672 A 2000 2000 0.0 0,0 10.243858898917878 93.37918927603006 A 90.0 90.0 0.0 0,0 10.02710631734162 97.79128943293802 A 2000 2000 0.0 0,0 20.024094504303662 98.03670171816712 A 80.0 80.0 0.0 0,1 20.216763465704773 94.11483491202672" fill="rgb(0,0,0)" stroke="rgb(0,0,255)" stroke-width="0" /><path d="M 21.177788608884697 86.3230488991759 A 2000 2000 0.0 0,0 11.325012184995288 84.61343001157289 A 90.0 90.0 0.0 0,0 10.676841886116108 88.98303923207054 A 2000 2000 0.0 0,0 20.6016372321032 90.20714598406269 A 80.0 80.0 0.0 0,1 21.177788608884697 86.3230488991759" fill="rgb(0,0,0)" stroke="rgb(0,0,255)" stroke-width="0" /><path d="M 22.89791473636481 78.66297940200816 A 2000 2000 0.0 0,0 13.260154078410409 75.99585182725917 A 90.0 90.0 0.0 0,0 12.186808296532433 80.28088838588174 A 2000 2000 0.0 0,0 21.94382959691771 82.47190078745044 A 80.0 80.0 0.0 0,1 22.89791473636481 78.66297940200816" fill="rgb(0,0,0)" stroke="rgb(0,0,255)" stroke-width="0" /><path d="M 25.36057609322087 71.208397077201 A 2000 2000 0.0 0,0 16.030648104873478 67.60944671185112 A 90.0 90.0 0.0 0,0 14.54246374662668 71.76864336409982 A 2000 2000 0.0 0,0 24.037745552557055 74.90546076808873 A 80.0 80.0 0.0 0,1 25.36057609322087 71.208397077201" fill="rgb(0,0,0)" stroke="rgb(0,0,255)" stroke-width="0" /><path d="M 28.542055904358733 64.03109362763155 A 2000 2000 0.0 0,0 19.609812892403582 59.53498033108549 A 90.0 90.0 0.0 0,0 17.721121986682206 63.52828173955099 A 2000 2000 0.0 0,0 26.86321954371752 67.58069487960088 A 80.0 80.0 0.0 0,1 28.542055904358733 64.03109362763155" fill="rgb(0,0,0)" stroke="rgb(0,0,255)" stroke-width="0" /><path d="M 32.411714780023374 57.20019040903232 A 2000 2000 0.0 0,0 23.963179127526303 51.850214210161354 A 90.0 90.0 0.0 0,0 21.69217080021592 55.639162699319535 A 2000 2000 0.0 0,0 30.393040711303044 60.568144621617364 A 80.0 80.0 0.0 0,1 32.411714780023374 57.20019040903232" fill="rgb(0,0,0)" stroke="rgb(0,0,255)" stroke-width="0" /><path d="M 36.932285789871415 50.78147275354996 A 2000 2000 0.0 0,0 29.048821513605333 44.62915684774371 A 90.0 90.0 0.0 0,0 26.417366816357386 48.17726277239404 A 2000 2000 0.0 0,0 34.593214947873236 53.93534468657248 A 80.0 80.0 0.0 0,1 36.932285789871415 50.78147275354996" fill="rgb(0,0,0)" stroke="rgb(0,0,255)" stroke-width="0" /><path d="M 42.06023336388253 44.83675642103477 A 2000 2000 0.0 0,0 34.817762534367844 37.941350973664115 A 90.0 90.0 0.0 0,0 31.85120381441628 41.214444134160225 A 2000 2000 0.0 0,0 39.42329227948114 47.746172563697975 A 80.0 80.0 0.0 0,1 42.06023336388253 44.83675642103477" fill="rgb(0,0,0)" stroke="rgb(0,0,255)" stroke-width="0" /><path d="M 47.74617256369771 39.42329227948136 A 2000 2000 0.0 0,0 41.21444413415992 31.85120381441652 A 90.0 90.0 0.0 0,0 37.94135097366382 34.817762534368114 A 2000 2000 0.0 0,0 44.83675642103451 42.06023336388277 A 80.0 80.0 0.0 0,1 47.74617256369771 39.42329227948136" fill="rgb(0,0,0)" stroke="rgb(0,0,255)" stroke-width="0" /><path d="M 53.93534468657231 34.59321494787335 A 2000 2000 0.0 0,0 48.17726277239385 26.417366816357514 A 90.0 90.0 0.0 0,0 44.62915684774352 29.048821513605475 A 2000 2000 0.0 0,0 50.7814727535498 36.932285789871536 A 80.0 80.0 0.0 0,1 53.93534468657231 34.59321494787335" fill="rgb(0,0,0)" stroke="rgb(0,0,255)" stroke-width="0" /><path d="M 60.568144621617186 30.393040711303144 A 2000 2000 0.0 0,0 55.63916269931933 21.692170800216033 A 90.0 90.0 0.0 0,0 51.85021421016117 23.963179127526416 A 2000 2000 0.0 0,0 57.200190409032146 32.41171478002349 A 80.0 80.0 0.0 0,1 60.568144621617186 30.393040711303144" fill="rgb(0,0,0)" stroke="rgb(0,0,255)" stroke-width="0" /><path d="M 67.58069487960068 26.863219543717605 A 2000 2000 0.0 0,0 63.52828173955077 17.72112198668229 A 90.0 90.0 0.0 0,0 59.534980331085286 19.60981289240368 A 2000 2000 0.0 0,0 64.03109362763136 28.542055904358833 A 80.0 80.0 0.0 0,1 67.58069487960068 26.863219543717605" fill="rgb(0,0,0)" stroke="rgb(0,0,255)" stroke-width="0" /><path d="M 74.90546076808866 24.03774555255707 A 2000 2000 0.0 0,0 71.76864336409974 14.542463746626709 A 90.0 90.0 0.0 0,0 67.60944671185106 16.030648104873507 A 2000 2000 0.0 0,0 71.20839707720094 25.360576093220885 A 80.0 80.0 0.0 0,1 74.90546076808866 24.03774555255707" fill="rgb(0,0,0)" stroke="rgb(0,0,255)" stroke-width="0" /><path d="M 82.47190078745038 21.943829596917723 A 2000 2000 0.0 0,0 80.28088838588167 12.186808296532433 A 90.0 90.0 0.0 0,0 75.99585182725912 13.260154078410423 A 2000 2000 0.0 0,0 78.66297940200809 22.897914736364825 A 80.0 80.0 0.0 0,1 82.47190078745038 21.943829596917723" fill="rgb(0,0,0)" stroke="rgb(0,0,255)" stroke-width="0" /><path d="M 90.20714598406263 20.601637232103215 A 2000 2000 0.0 0,0 88.98303923207047 10.676841886116108 A 90.0 90.0 0.0 0,0 84.61343001157283 11.325012184995302 A 2000 2000 0.0 0,0 86.32304889917584 21.17778860888471 A 80.0 80.0 0.0 0,1 90.20714598406263 20.601637232103215" fill="rgb(0,0,0)" stroke="rgb(0,0,255)" stroke-width="0" /><path d="M 98.03670171816692 20.024094504303662 A 2000 2000 0.0 0,0 97.79128943293779 10.027106317341634 A 90.0 90.0 0.0 0,0 93.37918927602983 10.243858898917892 A 2000 2000 0.0 0,0 94.11483491202652 20.216763465704787 A 80.0 80.0 0.0 0,1 98.03670171816692 20.024094504303662" fill="rgb(0,0,0)" stroke="rgb(0,0,255)" stroke-width="0" /><path d="M 105.88516508797326 20.216763465704773 A 2000 2000 0.0 0,0 106.62081072396992 10.243858898917878 A 90.0 90.0 0.0 0,0 102.20871056706198 10.02710631734162 A 2000 2000 0.0 0,0 101.96329828183288 20.024094504303662 A 80.0 80.0 0.0 0,1 105.88516508797326 20.216763465704773" fill="rgb(0,0,0)" stroke="rgb(0,0,255)" stroke-width="0" /><path d="M 113.67695110082394 21.17778860888467 A 2000 2000 0.0 0,0 115.38656998842694 11.32501218499526 A 90.0 90.0 0.0 0,0 111.0169607679293 10.67684188611608 A 2000 2000 0.0 0,0 109.79285401593715 20.601637232103187 A 80.0 80.0 0.0 0,1 113.67695110082394 21.17778860888467" fill="rgb(0,0,0)" stroke="rgb(0,0,255)" stroke-width="0" /><path d="M 121.3370205979917 22.897914736364754 A 2000 2000 0.0 0,0 124.00414817274066 13.260154078410352 A 90.0 90.0 0.0 0,0 119.7191116141181 12.18680829653239 A 2000 2000 0.0 0,0 117.52809921254942 21.94382959691768 A 80.0 80.0 0.0 0,1 121.3370205979917 22.897914736364754" fill="rgb(0,0,0)" stroke="rgb(0,0,255)" stroke-width="0" /><path d="M 128.791602922799 25.36057609322087 A 2000 2000 0.0 0,0 132.39055328814885 16.030648104873478 A 90.0 90.0 0.0 0,0 128.23135663590017 14.54246374662668 A 2000 2000 0.0 0,0 125.09453923191127 24.037745552557055 A 80.0 80.0 0.0 0,1 128.791602922799 25.36057609322087" fill="rgb(0,0,0)" stroke="rgb(0,0,255)" stroke-width="0" /><path d="M 135.96890637236845 28.542055904358733 A 2000 2000 0.0 0,0 140.4650196689145 19.609812892403568 A 90.0 90.0 0.0 0,0 136.471718260449 17.721121986682206 A 2000 2000 0.0 0,0 132.41930512039912 26.86321954371752 A 80.0 80.0 0.0 0,1 135.96890637236845 28.542055904358733" fill="rgb(0,0,0)" stroke="rgb(0,0,255)" stroke-width="0" /><path d="M 142.79980959096767 32.411714780023374 A 2000 2000 0.0 0,0 148.14978578983863 23.96317912752629 A 90.0 90.0 0.0 0,0 144.36083730068046 21.69217080021592 A 2000 2000 0.0 0,0 139.43185537838264 30.393040711303044 A 80.0 80.0 0.0 0,1 142.79980959096767 32.411714780023374" fill="rgb(0,0,0)" stroke="rgb(0,0,255)" stroke-width="0" /><path d="M 149.21852724645015 36.93228578987149 A 2000 2000 0.0 0,0 155.3708431522564 29.048821513605432 A 90.0 90.0 0.0 0,0 151.8227372276061 26.41736681635747 A 2000 2000 0.0 0,0 146.06465531342764 34.59321494787331 A 80.0 80.0 0.0 0,1 149.21852724645015 36.93228578987149" fill="rgb(0,0,0)" stroke="rgb(0,0,255)" stroke-width="0" /><path d="M 155.16324357896534 42.060233363882624 A 2000 2000 0.0 0,0 162.05864902633598 34.817762534367944 A 90.0 90.0 0.0 0,0 158.7855558658399 31.85120381441638 A 2000 2000 0.0 0,0 152.25382743630212 39.423292279481224 A 80.0 80.0 0.0 0,1 155.16324357896534 42.060233363882624" fill="rgb(0,0,0)" stroke="rgb(0,0,255)" stroke-width="0" /><path d="M 160.57670772051873 47.74617256369781 A 2000 2000 0.0 0,0 168.1487961855836 41.21444413416004 A 90.0 90.0 0.0 0,0 165.182237465632 37.941350973663944 A 2000 2000 0.0 0,0 157.93976663611733 44.83675642103462 A 80.0 80.0 0.0 0,1 160.57670772051873 47.74617256369781" fill="rgb(0,0,0)" stroke="rgb(0,0,255)" stroke-width="0" /><path d="M 165.40678505212665 53.93534468657231 A 2000 2000 0.0 0,0 173.58263318364249 48.17726277239385 A 90.0 90.0 0.0 0,0 170.9511784863945 44.62915684774352 A 2000 2000 0.0 0,0 163.06771421012846 50.7814727535498 A 80.0 80.0 0.0 0,1 165.40678505212665 53.93534468657231" fill="rgb(0,0,0)" stroke="rgb(0,0,255)" stroke-width="0" /><path d="M 169.60695928869686 60.56814462161718 A 2000 2000 0.0 0,0 178.30782919978395 55.63916269931933 A 90.0 90.0 0.0 0,0 176.03682087247358 51.850214210161155 A 2000 2000 0.0 0,0 167.5882852199765 57.20019040903214 A 80.0 80.0 0.0 0,1 169.60695928869686 60.56814462161718" fill="rgb(0,0,0)" stroke="rgb(0,0,255)" stroke-width="0" /><path d="M 173.1367804562824 67.58069487960068 A 2000 2000 0.0 0,0 182.2788780133177 63.52828173955077 A 90.0 90.0 0.0 0,0 180.39018710759632 59.53498033108528 A 2000 2000 0.0 0,0 171.45794409564115 64.03109362763136 A 80.0 80.0 0.0 0,1 173.1367804562824 67.58069487960068" fill="rgb(0,0,0)" stroke="rgb(0,0,255)" stroke-width="0" /><path d="M 175.9622544474429 74.90546076808853 A 2000 2000 0.0 0,0 185.45753625337323 71.76864336409959 A 90.0 90.0 0.0 0,0 183.96935189512644 67.60944671185091 A 2000 2000 0.0 0,0 174.63942390677906 71.2083970772008 A 80.0 80.0 0.0 0,1 175.9622544474429 74.90546076808853" fill="rgb(0,0,0)" stroke="rgb(0,0,255)" stroke-width="0" /><path d="M 178.05617040308223 82.47190078745024 A 2000 2000 0.0 0,0 187.8131917034675 80.28088838588151 A 90.0 90.0 0.0 0,0 186.73984592158953 75.99585182725895 A 2000 2000 0.0 0,0 177.10208526363516 78.66297940200795 A 80.0 80.0 0.0 0,1 178.05617040308223 82.47190078745024" fill="rgb(0,0,0)" stroke="rgb(0,0,255)" stroke-width="0" /><path d="M 179.3983627678968 90.20714598406263 A 2000 2000 0.0 0,0 189.3231581138839 88.98303923207045 A 90.0 90.0 0.0 0,0 188.6749878150047 84.61343001157282 A 2000 2000 0.0 0,0 178.82221139111527 86.32304889917584 A 80.0 80.0 0.0 0,1 179.3983627678968 90.20714598406263" fill="rgb(0,0,0)" stroke="rgb(0,0,255)" stroke-width="0" /><path d="M 189.993223165523 98.89556155428515 A 2000 2000 0.0 0,0 199.99247018391446 98.77284617142794 A 100.0 100.0 0.0 0,0 199.93223845883495 96.31927770586407 A 2000 2000 0.0 0,0 189.93901461295144 96.68734993527765 A 90.0 90.0 0.0 0,1 189.993223165523 98.89556155428515" fill="rgb(0,0,0)" stroke="rgb(0,0,255)" stroke-width="0" /><path d="M 189.93901461295144 103.31265006472222 A 2000 2000 0.0 0,0 199.93223845883495 103.6807222941358 A 100.0 100.0 0.0 0,0 199.99247018391446 101.22715382857191 A 2000 2000 0.0 0,0 189.993223165523 101.10443844571473 A 90.0 90.0 0.0 0,1 189.93901461295144 103.31265006472222" fill="rgb(0,0,0)" stroke="rgb(0,0,255)" stroke-width="0" /><path d="M 189.66813509645004 107.7217581109995 A 2000 2000 0.0 0,0 199.6312612182778 108.5797312344439 A 100.0 100.0 0.0 0,0 199.81181129001493 106.13207363022077 A 2000 2000 0.0 0,0 189.83063016101343 105.51886626719869 A 90.0 90.0 0.0 0,1 189.66813509645004 107.7217581109995" fill="rgb(0,0,0)" stroke="rgb(0,0,255)" stroke-width="0" /><path d="M 189.1812371885002 112.11226376564133 A 2000 2000 0.0 0,0 199.09026354277802 113.45807085071259 A 100.0 100.0 0.0 0,0 199.3906970002356 111.0222207293883 A 2000 2000 0.0 0,0 189.45162730021204 109.91999865644947 A 90.0 90.0 0.0 0,1 189.1812371885002 112.11226376564133" fill="rgb(0,0,0)" stroke="rgb(0,0,255)" stroke-width="0" /><path d="M 188.47949386880947 116.47358991596265 A 2000 2000 0.0 0,0 198.31054874312164 118.30398879551406 A 100.0 100.0 0.0 0,0 198.73014181578583 115.88581433338611 A 2000 2000 0.0 0,0 188.85712763420725 114.2972329000475 A 90.0 90.0 0.0 0,1 188.47949386880947 116.47358991596265" fill="rgb(0,0,0)" stroke="rgb(0,0,255)" stroke-width="0" /><path d="M 187.56459569850043 120.79522974526034 A 2000 2000 0.0 0,0 197.29399522055604 123.10581082806705 A 100.0 100.0 0.0 0,0 197.83173707196278 120.7111376192218 A 2000 2000 0.0 0,0 188.0485633647665 118.64002385729962 A 90.0 90.0 0.0 0,1 187.56459569850043 120.79522974526034" fill="rgb(0,0,0)" stroke="rgb(0,0,255)" stroke-width="0" /><path d="M 186.43874674740096 125.06677204465471 A 2000 2000 0.0 0,0 196.0430519415566 127.85196893850524 A 100.0 100.0 0.0 0,0 196.6976471044852 125.48656596045139 A 2000 2000 0.0 0,0 187.0278823940367 122.93790936440625 A 90.0 90.0 0.0 0,1 186.43874674740096 125.06677204465471" fill="rgb(0,0,0)" stroke="rgb(0,0,255)" stroke-width="0" /><path d="M 185.10465928424696 129.2779262946036 A 2000 2000 0.0 0,0 194.56073253805215 132.53102921622622 A 100.0 100.0 0.0 0,0 195.3306040354194 130.20059493192272 A 2000 2000 0.0 0,0 185.7975436318775 127.18053543873046 A 90.0 90.0 0.0 0,1 185.10465928424696 129.2779262946036" fill="rgb(0,0,0)" stroke="rgb(0,0,255)" stroke-width="0" /><path d="M 183.56554724258945 133.4185474556653 A 2000 2000 0.0 0,0 192.8506080473216 137.13171939518367 A 100.0 100.0 0.0 0,0 193.73390119125753 134.84186802494335 A 2000 2000 0.0 0,0 184.36051107213177 131.35768122244903 A 90.0 90.0 0.0 0,1 183.56554724258945 133.4185474556653" fill="rgb(0,0,0)" stroke="rgb(0,0,255)" stroke-width="0" /><path d="M 181.82511847814703 137.4786604087873 A 2000 2000 0.0 0,0 190.91679830905224 141.64295600976368 A 100.0 100.0 0.0 0,0 191.91138516900577 139.39920400610478 A 2000 2000 0.0 0,0 182.7202466521052 135.4592836054943 A 90.0 90.0 0.0 0,1 181.82511847814703 137.4786604087873" fill="rgb(0,0,0)" stroke="rgb(0,0,255)" stroke-width="0" /><path d="M 179.88756583625687 141.44848398624157 A 2000 2000 0.0 0,0 188.76396204028543 146.05387109582395 A 100.0 100.0 0.0 0,0 189.86744656939538 143.86162385385273 A 2000 2000 0.0 0,0 180.88070191245586 139.47546146846744 A 90.0 90.0 0.0 0,1 179.88756583625687 141.44848398624157" fill="rgb(0,0,0)" stroke="rgb(0,0,255)" stroke-width="0" /><path d="M 177.75755705094284 145.31845453531452 A 2000 2000 0.0 0,0 186.39728561215873 150.3538383725717 A 100.0 100.0 0.0 0,0 187.6070094195407 148.21837720791223 A 2000 2000 0.0 0,0 178.8463084775866 143.396539487121 A 90.0 90.0 0.0 0,1 177.75755705094284 145.31845453531452" fill="rgb(0,0,0)" stroke="rgb(0,0,255)" stroke-width="0" /><path d="M 175.44022349993548 149.0792489579841 A 2000 2000 0.0 0,0 183.82247055548385 154.53249884220457 A 100.0 100.0 0.0 0,0 185.13551931052655 152.4589682678468 A 2000 2000 0.0 0,0 176.62196737947392 147.21307144106214 A 90.0 90.0 0.0 0,1 175.44022349993548 149.0792489579841" fill="rgb(0,0,0)" stroke="rgb(0,0,255)" stroke-width="0" /><path d="M 172.94114784273353 152.7218071710795 A 2000 2000 0.0 0,0 181.04571982525948 158.57978574564387 A 100.0 100.0 0.0 0,0 182.45893027850252 156.5731810783613 A 2000 2000 0.0 0,0 174.2130372506523 150.91586297052518 A 90.0 90.0 0.0 0,1 172.94114784273353 152.7218071710795" fill="rgb(0,0,0)" stroke="rgb(0,0,255)" stroke-width="0" /><path d="M 170.26635057148854 156.23735393281476 A 2000 2000 0.0 0,0 178.07372285720948 162.4859488142386 A 100.0 100.0 0.0 0,0 179.58369046088836 160.55110414043253 A 2000 2000 0.0 0,0 171.62532141479954 154.4959937263893 A 90.0 90.0 0.0 0,1 170.26635057148854 156.23735393281476" fill="rgb(0,0,0)" stroke="rgb(0,0,255)" stroke-width="0" /><path d="M 167.42227550711138 159.6174199831154 A 2000 2000 0.0 0,0 174.913639452346 166.24157775901713 A 100.0 100.0 0.0 0,0 176.51672656224594 164.3831542889791 A 2000 2000 0.0 0,0 168.86505390602133 157.9448388600812 A 90.0 90.0 0.0 0,1 167.42227550711138 159.6174199831154" fill="rgb(0,0,0)" stroke="rgb(0,0,255)" stroke-width="0" /><path d="M 164.41577427554373 162.8538624468075 A 2000 2000 0.0 0,0 171.57308252838192 169.83762494089723 A 100.0 100.0 0.0 0,0 173.26542716724134 168.06009977954525 A 2000 2000 0.0 0,0 165.9388844505172 161.25408980159074 A 90.0 90.0 0.0 0,1 164.41577427554373 162.8538624468075" fill="rgb(0,0,0)" stroke="rgb(0,0,255)" stroke-width="0" /><path d="M 161.25408980159082 165.9388844505171 A 2000 2000 0.0 0,0 168.06009977954537 173.26542716724123 A 100.0 100.0 0.0 0,0 169.83762494089734 171.5730825283818 A 2000 2000 0.0 0,0 162.8538624468076 164.41577427554364 A 90.0 90.0 0.0 0,1 161.25408980159082 165.9388844505171" fill="rgb(0,0,0)" stroke="rgb(0,0,255)" stroke-width="0" /><path d="M 157.9448388600813 168.86505390602125 A 2000 2000 0.0 0,0 164.38315428897923 176.51672656224582 A 100.0 100.0 0.0 0,0 166.24157775901725 174.91363945234588 A 2000 2000 0.0 0,0 159.61741998311552 167.4222755071113 A 90.0 90.0 0.0 0,1 157.9448388600813 168.86505390602125" fill="rgb(0,0,0)" stroke="rgb(0,0,255)" stroke-width="0" /><path d="M 154.49599372638937 171.62532141479943 A 2000 2000 0.0 0,0 160.55110414043264 179.58369046088828 A 100.0 100.0 0.0 0,0 162.48594881423872 178.07372285720936 A 2000 2000 0.0 0,0 156.23735393281484 170.26635057148843 A 90.0 90.0 0.0 0,1 154.49599372638937 171.62532141479943" fill="rgb(0,0,0)" stroke="rgb(0,0,255)" stroke-width="0" /><path d="M 150.9158629705252 174.21303725065223 A 2000 2000 0.0 0,0 156.57318107836136 182.4589302785025 A 100.0 100.0 0.0 0,0 158.5797857456439 181.04571982525945 A 2000 2000 0.0 0,0 152.72180717107952 172.94114784273353 A 90.0 90.0 0.0 0,1 150.9158629705252 174.21303725065223" fill="rgb(0,0,0)" stroke="rgb(0,0,255)" stroke-width="0" /><path d="M 147.21307144106225 176.62196737947386 A 2000 2000 0.0 0,0 152.45896826784696 185.1355193105265 A 100.0 100.0 0.0 0,0 154.5324988422047 183.8224705554838 A 2000 2000 0.0 0,0 149.07924895798422 175.4402234999354 A 90.0 90.0 0.0 0,1 147.21307144106225 176.62196737947386" fill="rgb(0,0,0)" stroke="rgb(0,0,255)" stroke-width="0" /><path d="M 143.39653948712112 178.84630847758655 A 2000 2000 0.0 0,0 148.21837720791234 187.60700941954065 A 100.0 100.0 0.0 0,0 150.35383837257183 186.39728561215864 A 2000 2000 0.0 0,0 145.31845453531463 177.75755705094278 A 90.0 90.0 0.0 0,1 143.39653948712112 178.84630847758655" fill="rgb(0,0,0)" stroke="rgb(0,0,255)" stroke-width="0" /><path d="M 139.47546146846756 180.8807019124558 A 2000 2000 0.0 0,0 143.86162385385285 189.86744656939533 A 100.0 100.0 0.0 0,0 146.0538710958241 188.76396204028535 A 2000 2000 0.0 0,0 141.44848398624168 179.8875658362568 A 90.0 90.0 0.0 0,1 139.47546146846756 180.8807019124558" fill="rgb(0,0,0)" stroke="rgb(0,0,255)" stroke-width="0" /><path d="M 135.45928360549436 182.72024665210517 A 2000 2000 0.0 0,0 139.39920400610484 191.91138516900577 A 100.0 100.0 0.0 0,0 141.64295600976374 190.91679830905224 A 2000 2000 0.0 0,0 137.47866040878736 181.825118478147 A 90.0 90.0 0.0 0,1 135.45928360549436 182.72024665210517" fill="rgb(0,0,0)" stroke="rgb(0,0,255)" stroke-width="0" /><path d="M 131.35768122244914 184.36051107213171 A 2000 2000 0.0 0,0 134.8418680249435 193.73390119125747 A 100.0 100.0 0.0 0,0 137.13171939518378 192.85060804732154 A 2000 2000 0.0 0,0 133.41854745566542 183.5655472425894 A 90.0 90.0 0.0 0,1 131.35768122244914 184.36051107213171" fill="rgb(0,0,0)" stroke="rgb(0,0,255)" stroke-width="0" /><path d="M 127.18053543873057 185.79754363187743 A 2000 2000 0.0 0,0 130.20059493192286 195.33060403541936 A 100.0 100.0 0.0 0,0 132.53102921622633 194.56073253805212 A 2000 2000 0.0 0,0 129.2779262946037 185.1046592842469 A 90.0 90.0 0.0 0,1 127.18053543873057 185.79754363187743" fill="rgb(0,0,0)" stroke="rgb(0,0,255)" stroke-width="0" /><path d="M 122.93790936440638 187.02788239403668 A 2000 2000 0.0 0,0 125.48656596045153 196.6976471044852 A 100.0 100.0 0.0 0,0 127.85196893850537 196.04305194155657 A 2000 2000 0.0 0,0 125.06677204465484 186.4387467474009 A 90.0 90.0 0.0 0,1 122.93790936440638 187.02788239403668" fill="rgb(0,0,0)" stroke="rgb(0,0,255)" stroke-width="0" /><path d="M 118.64002385729975 188.04856336476647 A 2000 2000 0.0 0,0 120.71113761922194 197.83173707196275 A 100.0 100.0 0.0 0,0 123.10581082806719 197.29399522055598 A 2000 2000 0.0 0,0 120.79522974526047 187.5645956985004 A 90.0 90.0 0.0 0,1 118.64002385729975 188.04856336476647" fill="rgb(0,0,0)" stroke="rgb(0,0,255)" stroke-width="0" /><path d="M 114.29723290004763 188.85712763420725 A 2000 2000 0.0 0,0 115.88581433338625 198.73014181578583 A 100.0 100.0 0.0 0,0 118.30398879551419 198.31054874312161 A 2000 2000 0.0 0,0 116.47358991596278 188.47949386880947 A 90.0 90.0 0.0 0,1 114.29723290004763 188.85712763420725" fill="rgb(0,0,0)" stroke="rgb(0,0,255)" stroke-width="0" /><path d="M 109.9199986564496 189.45162730021204 A 2000 2000 0.0 0,0 111.02222072938844 199.3906970002356 A 100.0 100.0 0.0 0,0 113.45807085071274 199.090263542778 A 2000 2000 0.0 0,0 112.11226376564146 189.18123718850018 A 90.0 90.0 0.0 0,1 109.9199986564496 189.45162730021204" fill="rgb(0,0,0)" stroke="rgb(0,0,255)" stroke-width="0" /><path d="M 105.51886626719882 189.83063016101343 A 2000 2000 0.0 0,0 106.13207363022092 199.81181129001493 A 100.0 100.0 0.0 0,0 108.57973123444404 199.6312612182778 A 2000 2000 0.0 0,0 107.72175811099963 189.66813509645002 A 90.0 90.0 0.0 0,1 105.51886626719882 189.83063016101343" fill="rgb(0,0,0)" stroke="rgb(0,0,255)" stroke-width="0" /><path d="M 101.10443844571486 189.993223165523 A 2000 2000 0.0 0,0 101.22715382857206 199.99247018391446 A 100.0 100.0 0.0 0,0 103.68072229413595 199.93223845883495 A 2000 2000 0.0 0,0 103.31265006472235 189.93901461295144 A 90.0 90.0 0.0 0,1 101.10443844571486 189.993223165523" fill="rgb(0,0,0)" stroke="rgb(0,0,255)" stroke-width="0" /><path d="M 96.68734993527778 189.93901461295144 A 2000 2000 0.0 0,0 96.31927770586421 199.93223845883495 A 100.0 100.0 0.0 0,0 98.77284617142809 199.99247018391446 A 2000 2000 0.0 0,0 98.89556155428528 189.993223165523 A 90.0 90.0 0.0 0,1 96.68734993527778 189.93901461295144" fill="rgb(0,0,0)" stroke="rgb(0,0,255)" stroke-width="0" /><path d="M 92.27824188900043 189.66813509645002 A 2000 2000 0.0 0,0 91.42026876555603 199.6312612182778 A 100.0 100.0 0.0 0,0 93.86792636977916 199.81181129001493 A 2000 2000 0.0 0,0 94.48113373280124 189.83063016101343 A 90.0 90.0 0.0 0,1 92.27824188900043 189.66813509645002" fill="rgb(0,0,0)" stroke="rgb(0,0,255)" stroke-width="0" /><path d="M 87.88773623435867 189.1812371885002 A 2000 2000 0.0 0,0 86.54192914928741 199.09026354277802 A 100.0 100.0 0.0 0,0 88.97777927061172 199.3906970002356 A 2000 2000 0.0 0,0 90.08000134355055 189.45162730021204 A 90.0 90.0 0.0 0,1 87.88773623435867 189.1812371885002" fill="rgb(0,0,0)" stroke="rgb(0,0,255)" stroke-width="0" /><path d="M 83.52641008403737 188.47949386880947 A 2000 2000 0.0 0,0 81.69601120448596 198.31054874312164 A 100.0 100.0 0.0 0,0 84.11418566661398 198.73014181578586 A 2000 2000 0.0 0,0 85.70276709995258 188.85712763420727 A 90.0 90.0 0.0 0,1 83.52641008403737 188.47949386880947" fill="rgb(0,0,0)" stroke="rgb(0,0,255)" stroke-width="0" /><path d="M 79.20477025473966 187.56459569850043 A 2000 2000 0.0 0,0 76.89418917193295 197.29399522055604 A 100.0 100.0 0.0 0,0 79.28886238077828 197.8317370719628 A 2000 2000 0.0 0,0 81.35997614270046 188.04856336476652 A 90.0 90.0 0.0 0,1 79.20477025473966 187.56459569850043" fill="rgb(0,0,0)" stroke="rgb(0,0,255)" stroke-width="0" /><path d="M 74.9332279553453 186.43874674740096 A 2000 2000 0.0 0,0 72.14803106149478 196.0430519415566 A 100.0 100.0 0.0 0,0 74.5134340395487 196.69764710448527 A 2000 2000 0.0 0,0 77.06209063559383 187.02788239403674 A 90.0 90.0 0.0 0,1 74.9332279553453 186.43874674740096" fill="rgb(0,0,0)" stroke="rgb(0,0,255)" stroke-width="0" /><path d="M 70.72207370539643 185.10465928424696 A 2000 2000 0.0 0,0 67.4689707837738 194.56073253805215 A 100.0 100.0 0.0 0,0 69.79940506807736 195.33060403541944 A 2000 2000 0.0 0,0 72.81946456126963 185.7975436318775 A 90.0 90.0 0.0 0,1 70.72207370539643 185.10465928424696" fill="rgb(0,0,0)" stroke="rgb(0,0,255)" stroke-width="0" /><path d="M 66.58145254433472 183.56554724258945 A 2000 2000 0.0 0,0 62.868280604816356 192.8506080473216 A 100.0 100.0 0.0 0,0 65.15813197505673 193.73390119125756 A 2000 2000 0.0 0,0 68.64231877755105 184.3605110721318 A 90.0 90.0 0.0 0,1 66.58145254433472 183.56554724258945" fill="rgb(0,0,0)" stroke="rgb(0,0,255)" stroke-width="0" /><path d="M 62.52133959121276 181.82511847814706 A 2000 2000 0.0 0,0 58.3570439902364 190.9167983090523 A 100.0 100.0 0.0 0,0 60.60079599389538 191.91138516900585 A 2000 2000 0.0 0,0 64.54071639450584 182.7202466521053 A 90.0 90.0 0.0 0,1 62.52133959121276 181.82511847814706" fill="rgb(0,0,0)" stroke="rgb(0,0,255)" stroke-width="0" /><path d="M 58.55151601375852 179.8875658362569 A 2000 2000 0.0 0,0 53.946128904176135 188.76396204028546 A 100.0 100.0 0.0 0,0 56.13837614614744 189.8674465693955 A 2000 2000 0.0 0,0 60.5245385315327 180.88070191245595 A 90.0 90.0 0.0 0,1 58.55151601375852 179.8875658362569" fill="rgb(0,0,0)" stroke="rgb(0,0,255)" stroke-width="0" /><path d="M 54.681545464685406 177.7575570509428 A 2000 2000 0.0 0,0 49.64616162742823 186.39728561215867 A 100.0 100.0 0.0 0,0 51.78162279208779 187.6070094195407 A 2000 2000 0.0 0,0 56.60346051287901 178.8463084775866 A 90.0 90.0 0.0 0,1 54.681545464685406 177.7575570509428" fill="rgb(0,0,0)" stroke="rgb(0,0,255)" stroke-width="0" /><path d="M 50.92075104201596 175.4402234999355 A 2000 2000 0.0 0,0 45.46750115779551 183.8224705554839 A 100.0 100.0 0.0 0,0 47.541031732153336 185.13551931052666 A 2000 2000 0.0 0,0 52.786928558938 176.62196737947397 A 90.0 90.0 0.0 0,1 50.92075104201596 175.4402234999355" fill="rgb(0,0,0)" stroke="rgb(0,0,255)" stroke-width="0" /><path d="M 47.278192828920524 172.94114784273353 A 2000 2000 0.0 0,0 41.42021425435614 181.04571982525948 A 100.0 100.0 0.0 0,0 43.42681892163876 182.45893027850258 A 2000 2000 0.0 0,0 49.08413702947489 174.21303725065232 A 90.0 90.0 0.0 0,1 47.278192828920524 172.94114784273353" fill="rgb(0,0,0)" stroke="rgb(0,0,255)" stroke-width="0" /><path d="M 43.76264606718526 170.26635057148854 A 2000 2000 0.0 0,0 37.514051185761396 178.07372285720948 A 100.0 100.0 0.0 0,0 39.44889585956754 179.58369046088842 A 2000 2000 0.0 0,0 45.50400627361079 171.6253214147996 A 90.0 90.0 0.0 0,1 43.76264606718526 170.26635057148854" fill="rgb(0,0,0)" stroke="rgb(0,0,255)" stroke-width="0" /><path d="M 40.38258001688458 167.42227550711138 A 2000 2000 0.0 0,0 33.75842224098287 174.913639452346 A 100.0 100.0 0.0 0,0 35.61684571102096 176.516726562246 A 2000 2000 0.0 0,0 42.055161139918866 168.8650539060214 A 90.0 90.0 0.0 0,1 40.38258001688458 167.42227550711138" fill="rgb(0,0,0)" stroke="rgb(0,0,255)" stroke-width="0" /><path d="M 37.14613755319249 164.41577427554373 A 2000 2000 0.0 0,0 30.162375059102757 171.57308252838192 A 100.0 100.0 0.0 0,0 31.939900220454803 173.2654271672414 A 2000 2000 0.0 0,0 38.74591019840933 165.93888445051726 A 90.0 90.0 0.0 0,1 37.14613755319249 164.41577427554373" fill="rgb(0,0,0)" stroke="rgb(0,0,255)" stroke-width="0" /><path d="M 34.06111554948289 161.25408980159082 A 2000 2000 0.0 0,0 26.734572832758772 168.06009977954537 A 100.0 100.0 0.0 0,0 28.426917471618253 169.8376249408974 A 2000 2000 0.0 0,0 35.58422572445643 162.85386244680765 A 90.0 90.0 0.0 0,1 34.06111554948289 161.25408980159082" fill="rgb(0,0,0)" stroke="rgb(0,0,255)" stroke-width="0" /><path d="M 31.13494609397877 157.9448388600813 A 2000 2000 0.0 0,0 23.48327343775418 164.38315428897923 A 100.0 100.0 0.0 0,0 25.086360547654195 166.24157775901733 A 2000 2000 0.0 0,0 32.57772449288878 159.61741998311558 A 90.0 90.0 0.0 0,1 31.13494609397877 157.9448388600813" fill="rgb(0,0,0)" stroke="rgb(0,0,255)" stroke-width="0" /><path d="M 28.374678585200556 154.49599372638937 A 2000 2000 0.0 0,0 20.416309539111722 160.55110414043264 A 100.0 100.0 0.0 0,0 21.92627714279068 162.4859488142388 A 2000 2000 0.0 0,0 29.73364942851161 156.23735393281493 A 90.0 90.0 0.0 0,1 28.374678585200556 154.49599372638937" fill="rgb(0,0,0)" stroke="rgb(0,0,255)" stroke-width="0" /><path d="M 25.78696274934771 150.91586297052515 A 2000 2000 0.0 0,0 17.54106972149745 156.5731810783613 A 100.0 100.0 0.0 0,0 18.954280174740546 158.5797857456439 A 2000 2000 0.0 0,0 27.058852157266486 152.72180717107952 A 90.0 90.0 0.0 0,1 25.78696274934771 150.91586297052515" fill="rgb(0,0,0)" stroke="rgb(0,0,255)" stroke-width="0" /><path d="M 23.378032620526213 147.2130714410623 A 2000 2000 0.0 0,0 14.864480689473567 152.458968267847 A 100.0 100.0 0.0 0,0 16.177529444516324 154.53249884220486 A 2000 2000 0.0 0,0 24.559776500064686 149.07924895798436 A 90.0 90.0 0.0 0,1 23.378032620526213 147.2130714410623" fill="rgb(0,0,0)" stroke="rgb(0,0,255)" stroke-width="0" /><path d="M 21.15369152241341 143.39653948712106 A 2000 2000 0.0 0,0 12.39299058045934 148.21837720791228 A 100.0 100.0 0.0 0,0 13.60271438784136 150.35383837257183 A 2000 2000 0.0 0,0 22.24244294905722 145.31845453531463 A 90.0 90.0 0.0 0,1 21.15369152241341 143.39653948712106" fill="rgb(0,0,0)" stroke="rgb(0,0,255)" stroke-width="0" /><path d="M 19.119298087544152 139.4754614684675 A 2000 2000 0.0 0,0 10.132553430604617 143.8616238538528 A 100.0 100.0 0.0 0,0 11.23603795971465 146.0538710958241 A 2000 2000 0.0 0,0 20.11243416374319 141.44848398624168 A 90.0 90.0 0.0 0,1 19.119298087544152 139.4754614684675" fill="rgb(0,0,0)" stroke="rgb(0,0,255)" stroke-width="0" /><path d="M 17.27975334789481 135.45928360549436 A 2000 2000 0.0 0,0 8.088614830994231 139.39920400610484 A 100.0 100.0 0.0 0,0 9.083201690947803 141.64295600976382 A 2000 2000 0.0 0,0 18.174881521853024 137.47866040878745 A 90.0 90.0 0.0 0,1 17.27975334789481 135.45928360549436" fill="rgb(0,0,0)" stroke="rgb(0,0,255)" stroke-width="0" /><path d="M 15.639488927868271 131.35768122244914 A 2000 2000 0.0 0,0 6.266098808742527 134.8418680249435 A 100.0 100.0 0.0 0,0 7.149391952678485 137.13171939518386 A 2000 2000 0.0 0,0 16.43445275741064 133.41854745566548 A 90.0 90.0 0.0 0,1 15.639488927868271 131.35768122244914" fill="rgb(0,0,0)" stroke="rgb(0,0,255)" stroke-width="0" /><path d="M 14.202456368122569 127.18053543873059 A 2000 2000 0.0 0,0 4.66939596458063 130.20059493192286 A 100.0 100.0 0.0 0,0 5.439267461947921 132.53102921622644 A 2000 2000 0.0 0,0 14.895340715753122 129.2779262946038 A 90.0 90.0 0.0 0,1 14.202456368122569 127.18053543873059" fill="rgb(0,0,0)" stroke="rgb(0,0,255)" stroke-width="0" /><path d="M 12.972117605963334 122.93790936440638 A 2000 2000 0.0 0,0 3.302352895514815 125.48656596045154 A 100.0 100.0 0.0 0,0 3.9569480584434586 127.85196893850546 A 2000 2000 0.0 0,0 13.561253252599116 125.06677204465493 A 90.0 90.0 0.0 0,1 12.972117605963334 122.93790936440638" fill="rgb(0,0,0)" stroke="rgb(0,0,255)" stroke-width="0" /><path d="M 11.951436635233534 118.64002385729975 A 2000 2000 0.0 0,0 2.168262928037251 120.71113761922194 A 100.0 100.0 0.0 0,0 2.7060047794440294 123.10581082806729 A 2000 2000 0.0 0,0 12.43540430149963 120.79522974526056 A 90.0 90.0 0.0 0,1 11.951436635233534 118.64002385729975" fill="rgb(0,0,0)" stroke="rgb(0,0,255)" stroke-width="0" /><path d="M 11.142872365792755 114.29723290004763 A 2000 2000 0.0 0,0 1.269858184214172 115.88581433338626 A 100.0 100.0 0.0 0,0 1.6894512568783995 118.30398879551429 A 2000 2000 0.0 0,0 11.520506131190558 116.47358991596286 A 90.0 90.0 0.0 0,1 11.142872365792755 114.29723290004763" fill="rgb(0,0,0)" stroke="rgb(0,0,255)" stroke-width="0" /><path d="M 10.548372699787961 109.9199986564496 A 2000 2000 0.0 0,0 0.6093029997644095 111.02222072938844 A 100.0 100.0 0.0 0,0 0.9097364572220243 113.45807085071283 A 2000 2000 0.0 0,0 10.818762811499823 112.11226376564154 A 90.0 90.0 0.0 0,1 10.548372699787961 109.9199986564496" fill="rgb(0,0,0)" stroke="rgb(0,0,255)" stroke-width="0" /><path d="M 10.169369838986569 105.51886626719875 A 2000 2000 0.0 0,0 0.1881887099850843 106.13207363022083 A 100.0 100.0 0.0 0,0 0.3687387817222003 108.57973123444404 A 2000 2000 0.0 0,0 10.331864903549985 107.72175811099963 A 90.0 90.0 0.0 0,1 10.169369838986569 105.51886626719875" fill="rgb(0,0,0)" stroke="rgb(0,0,255)" stroke-width="0" /><path d="M 10.006776834476995 101.10443844571495 A 2000 2000 0.0 0,0 0.007529816085551033 101.22715382857216 A 100.0 100.0 0.0 0,0 0.06776154116505495 103.68072229413613 A 2000 2000 0.0 0,0 10.060985387048547 103.31265006472252 A 90.0 90.0 0.0 0,1 10.006776834476995 101.10443844571495" fill="rgb(0,0,0)" stroke="rgb(0,0,255)" stroke-width="0" /><path d="M 10.060985387048547 96.68734993527771 A 2000 2000 0.0 0,0 0.06776154116504074 96.31927770586412 A 100.0 100.0 0.0 0,0 0.007529816085551033 98.7728461714281 A 2000 2000 0.0 0,0 10.006776834476995 98.89556155428528 A 90.0 90.0 0.0 0,1 10.060985387048547 96.68734993527771" fill="rgb(0,0,0)" stroke="rgb(0,0,255)" stroke-width="0" /><path d="M 10.331864903549985 92.27824188900043 A 2000 2000 0.0 0,0 0.3687387817222003 91.42026876555603 A 100.0 100.0 0.0 0,0 0.1881887099850701 93.86792636977924 A 2000 2000 0.0 0,0 10.169369838986569 94.48113373280133 A 90.0 90.0 0.0 0,1 10.331864903549985 92.27824188900043" fill="rgb(0,0,0)" stroke="rgb(0,0,255)" stroke-width="0" /><path d="M 10.818762811499795 87.88773623435867 A 2000 2000 0.0 0,0 0.9097364572219817 86.54192914928743 A 100.0 100.0 0.0 0,0 0.6093029997643811 88.97777927061182 A 2000 2000 0.0 0,0 10.548372699787947 90.08000134355063 A 90.0 90.0 0.0 0,1 10.818762811499795 87.88773623435867" fill="rgb(0,0,0)" stroke="rgb(0,0,255)" stroke-width="0" /><path d="M 11.52050613119053 83.52641008403737 A 2000 2000 0.0 0,0 1.6894512568783568 81.69601120448596 A 100.0 100.0 0.0 0,0 1.2698581842141436 84.11418566661399 A 2000 2000 0.0 0,0 11.142872365792726 85.7027670999526 A 90.0 90.0 0.0 0,1 11.52050613119053 83.52641008403737" fill="rgb(0,0,0)" stroke="rgb(0,0,255)" stroke-width="0" /><path d="M 12.435404301499574 79.20477025473966 A 2000 2000 0.0 0,0 2.7060047794439726 76.89418917193296 A 100.0 100.0 0.0 0,0 2.168262928037194 79.2888623807783 A 2000 2000 0.0 0,0 11.951436635233478 81.35997614270046 A 90.0 90.0 0.0 0,1 12.435404301499574 79.20477025473966" fill="rgb(0,0,0)" stroke="rgb(0,0,255)" stroke-width="0" /><path d="M 13.561253252599059 74.9332279553453 A 2000 2000 0.0 0,0 3.956948058443402 72.14803106149478 A 100.0 100.0 0.0 0,0 3.302352895514744 74.51343403954871 A 2000 2000 0.0 0,0 12.972117605963277 77.06209063559385 A 90.0 90.0 0.0 0,1 13.561253252599059 74.9332279553453" fill="rgb(0,0,0)" stroke="rgb(0,0,255)" stroke-width="0" /><path d="M 14.89534071575305 70.72207370539643 A 2000 2000 0.0 0,0 5.439267461947821 67.46897078377381 A 100.0 100.0 0.0 0,0 4.669395964580559 69.79940506807736 A 2000 2000 0.0 0,0 14.202456368122498 72.81946456126963 A 90.0 90.0 0.0 0,1 14.89534071575305 70.72207370539643" fill="rgb(0,0,0)" stroke="rgb(0,0,255)" stroke-width="0" /><path d="M 16.434452757410554 66.58145254433472 A 2000 2000 0.0 0,0 7.1493919526784 62.86828060481636 A 100.0 100.0 0.0 0,0 6.266098808742441 65.15813197505673 A 2000 2000 0.0 0,0 15.6394889278682 68.64231877755105 A 90.0 90.0 0.0 0,1 16.434452757410554 66.58145254433472" fill="rgb(0,0,0)" stroke="rgb(0,0,255)" stroke-width="0" /><path d="M 18.17488152185294 62.521339591212765 A 2000 2000 0.0 0,0 9.083201690947703 58.357043990236406 A 100.0 100.0 0.0 0,0 8.088614830994132 60.60079599389539 A 2000 2000 0.0 0,0 17.279753347894726 64.54071639450585 A 90.0 90.0 0.0 0,1 18.17488152185294 62.521339591212765" fill="rgb(0,0,0)" stroke="rgb(0,0,255)" stroke-width="0" /><path d="M 20.11243416374316 58.55151601375838 A 2000 2000 0.0 0,0 11.236037959714622 53.94612890417598 A 100.0 100.0 0.0 0,0 10.132553430604588 56.13837614614729 A 2000 2000 0.0 0,0 19.119298087544124 60.52453853153256 A 90.0 90.0 0.0 0,1 20.11243416374316 58.55151601375838" fill="rgb(0,0,0)" stroke="rgb(0,0,255)" stroke-width="0" /><path d="M 22.24244294905712 54.681545464685556 A 2000 2000 0.0 0,0 13.602714387841246 49.6461616274284 A 100.0 100.0 0.0 0,0 12.392990580459212 51.78162279208795 A 2000 2000 0.0 0,0 21.153691522413297 56.60346051287915 A 90.0 90.0 0.0 0,1 22.24244294905712 54.681545464685556" fill="rgb(0,0,0)" stroke="rgb(0,0,255)" stroke-width="0" /><path d="M 24.559776500064572 50.92075104201583 A 2000 2000 0.0 0,0 16.177529444516196 45.46750115779537 A 100.0 100.0 0.0 0,0 14.864480689473439 47.54103173215319 A 2000 2000 0.0 0,0 23.3780326205261 52.78692855893787 A 90.0 90.0 0.0 0,1 24.559776500064572 50.92075104201583" fill="rgb(0,0,0)" stroke="rgb(0,0,255)" stroke-width="0" /><path d="M 27.058852157266458 47.278192828920524 A 2000 2000 0.0 0,0 18.954280174740504 41.42021425435614 A 100.0 100.0 0.0 0,0 17.541069721497422 43.42681892163876 A 2000 2000 0.0 0,0 25.78696274934768 49.08413702947489 A 90.0 90.0 0.0 0,1 27.058852157266458 47.278192828920524" fill="rgb(0,0,0)" stroke="rgb(0,0,255)" stroke-width="0" /><path d="M 29.73364942851147 43.76264606718526 A 2000 2000 0.0 0,0 21.926277142790525 37.514051185761396 A 100.0 100.0 0.0 0,0 20.416309539111566 39.44889585956754 A 2000 2000 0.0 0,0 28.374678585200414 45.50400627361079 A 90.0 90.0 0.0 0,1 29.73364942851147 43.76264606718526" fill="rgb(0,0,0)" stroke="rgb(0,0,255)" stroke-width="0" /><path d="M 32.57772449288862 40.38258001688458 A 2000 2000 0.0 0,0 25.086360547654024 33.75842224098287 A 100.0 100.0 0.0 0,0 23.483273437754022 35.61684571102096 A 2000 2000 0.0 0,0 31.134946093978613 42.055161139918866 A 90.0 90.0 0.0 0,1 32.57772449288862 40.38258001688458" fill="rgb(0,0,0)" stroke="rgb(0,0,255)" stroke-width="0" /><path d="M 35.58422572445626 37.146137553192496 A 2000 2000 0.0 0,0 28.42691747161807 30.16237505910277 A 100.0 100.0 0.0 0,0 26.7345728327586 31.939900220454803 A 2000 2000 0.0 0,0 34.06111554948275 38.74591019840933 A 90.0 90.0 0.0 0,1 35.58422572445626 37.146137553192496" fill="rgb(0,0,0)" stroke="rgb(0,0,255)" stroke-width="0" /><path d="M 38.745910198409156 34.061115549482906 A 2000 2000 0.0 0,0 31.939900220454618 26.734572832758786 A 100.0 100.0 0.0 0,0 30.162375059102587 28.426917471618268 A 2000 2000 0.0 0,0 37.146137553192325 35.58422572445643 A 90.0 90.0 0.0 0,1 38.745910198409156 34.061115549482906" fill="rgb(0,0,0)" stroke="rgb(0,0,255)" stroke-width="0" /><path d="M 42.05516113991869 31.13494609397877 A 2000 2000 0.0 0,0 35.61684571102076 23.48327343775418 A 100.0 100.0 0.0 0,0 33.75842224098268 25.086360547654195 A 2000 2000 0.0 0,0 40.38258001688441 32.57772449288878 A 90.0 90.0 0.0 0,1 42.05516113991869 31.13494609397877" fill="rgb(0,0,0)" stroke="rgb(0,0,255)" stroke-width="0" /><path d="M 45.50400627361074 28.374678585200456 A 2000 2000 0.0 0,0 39.44889585956749 20.416309539111623 A 100.0 100.0 0.0 0,0 37.51405118576133 21.926277142790568 A 2000 2000 0.0 0,0 43.7626460671852 29.733649428511512 A 90.0 90.0 0.0 0,1 45.50400627361074 28.374678585200456" fill="rgb(0,0,0)" stroke="rgb(0,0,255)" stroke-width="0" /><path d="M 49.0841370294747 25.786962749347808 A 2000 2000 0.0 0,0 43.42681892163856 17.541069721497564 A 100.0 100.0 0.0 0,0 41.420214254355926 18.95428017474066 A 2000 2000 0.0 0,0 47.27819282892033 27.058852157266585 A 90.0 90.0 0.0 0,1 49.0841370294747 25.786962749347808" fill="rgb(0,0,0)" stroke="rgb(0,0,255)" stroke-width="0" /><path d="M 52.7869285589378 23.378032620526128 A 2000 2000 0.0 0,0 47.541031732153115 14.864480689473481 A 100.0 100.0 0.0 0,0 45.4675011577953 16.17752944451624 A 2000 2000 0.0 0,0 50.920751042015766 24.559776500064615 A 90.0 90.0 0.0 0,1 52.7869285589378 23.378032620526128" fill="rgb(0,0,0)" stroke="rgb(0,0,255)" stroke-width="0" /><path d="M 56.60346051287881 21.15369152241348 A 2000 2000 0.0 0,0 51.78162279208757 12.392990580459426 A 100.0 100.0 0.0 0,0 49.64616162742802 13.60271438784146 A 2000 2000 0.0 0,0 54.68154546468522 22.242442949057306 A 90.0 90.0 0.0 0,1 56.60346051287881 21.15369152241348" fill="rgb(0,0,0)" stroke="rgb(0,0,255)" stroke-width="0" /><path d="M 60.52453853153249 19.119298087544166 A 2000 2000 0.0 0,0 56.138376146147216 10.13255343060463 A 100.0 100.0 0.0 0,0 53.94612890417591 11.23603795971465 A 2000 2000 0.0 0,0 58.55151601375832 20.11243416374319 A 90.0 90.0 0.0 0,1 60.52453853153249 19.119298087544166" fill="rgb(0,0,0)" stroke="rgb(0,0,255)" stroke-width="0" /><path d="M 64.5407163945055 17.279753347894882 A 2000 2000 0.0 0,0 60.60079599389499 8.088614830994317 A 100.0 100.0 0.0 0,0 58.357043990236015 9.083201690947888 A 2000 2000 0.0 0,0 62.52133959121241 18.174881521853095 A 90.0 90.0 0.0 0,1 64.5407163945055 17.279753347894882" fill="rgb(0,0,0)" stroke="rgb(0,0,255)" stroke-width="0" /><path d="M 68.64231877755084 15.639488927868271 A 2000 2000 0.0 0,0 65.15813197505649 6.266098808742527 A 100.0 100.0 0.0 0,0 62.86828060481612 7.149391952678499 A 2000 2000 0.0 0,0 66.58145254433451 16.434452757410654 A 90.0 90.0 0.0 0,1 68.64231877755084 15.639488927868271" fill="rgb(0,0,0)" stroke="rgb(0,0,255)" stroke-width="0" /><path d="M 72.81946456126941 14.202456368122569 A 2000 2000 0.0 0,0 69.79940506807712 4.66939596458063 A 100.0 100.0 0.0 0,0 67.46897078377356 5.439267461947921 A 2000 2000 0.0 0,0 70.72207370539621 14.895340715753122 A 90.0 90.0 0.0 0,1 72.81946456126941 14.202456368122569" fill="rgb(0,0,0)" stroke="rgb(0,0,255)" stroke-width="0" /><path d="M 77.06209063559362 12.972117605963334 A 2000 2000 0.0 0,0 74.51343403954846 3.302352895514815 A 100.0 100.0 0.0 0,0 72.14803106149452 3.9569480584434586 A 2000 2000 0.0 0,0 74.93322795534507 13.561253252599116 A 90.0 90.0 0.0 0,1 77.06209063559362 12.972117605963334" fill="rgb(0,0,0)" stroke="rgb(0,0,255)" stroke-width="0" /><path d="M 81.35997614270025 11.951436635233534 A 2000 2000 0.0 0,0 79.28886238077804 2.168262928037251 A 100.0 100.0 0.0 0,0 76.89418917193271 2.7060047794440294 A 2000 2000 0.0 0,0 79.20477025473943 12.43540430149963 A 90.0 90.0 0.0 0,1 81.35997614270025 11.951436635233534" fill="rgb(0,0,0)" stroke="rgb(0,0,255)" stroke-width="0" /><path d="M 85.70276709995237 11.142872365792755 A 2000 2000 0.0 0,0 84.11418566661374 1.269858184214172 A 100.0 100.0 0.0 0,0 81.6960112044857 1.6894512568783995 A 2000 2000 0.0 0,0 83.52641008403714 11.520506131190558 A 90.0 90.0 0.0 0,1 85.70276709995237 11.142872365792755" fill="rgb(0,0,0)" stroke="rgb(0,0,255)" stroke-width="0" /><path d="M 90.08000134355056 10.548372699787961 A 2000 2000 0.0 0,0 88.97777927061173 0.6093029997643953 A 100.0 100.0 0.0 0,0 86.54192914928734 0.9097364572219959 A 2000 2000 0.0 0,0 87.88773623435861 10.818762811499795 A 90.0 90.0 0.0 0,1 90.08000134355056 10.548372699787961" fill="rgb(0,0,0)" stroke="rgb(0,0,255)" stroke-width="0" /><path d="M 94.48113373280108 10.169369838986583 A 2000 2000 0.0 0,0 93.86792636977898 0.1881887099850985 A 100.0 100.0 0.0 0,0 91.42026876555578 0.36873878172222874 A 2000 2000 0.0 0,0 92.2782418890002 10.331864903549999 A 90.0 90.0 0.0 0,1 94.48113373280108 10.169369838986583" fill="rgb(0,0,0)" stroke="rgb(0,0,255)" stroke-width="0" /><path d="M 98.89556155428521 10.006776834476995 A 2000 2000 0.0 0,0 98.77284617142801 0.007529816085551033 A 100.0 100.0 0.0 0,0 96.31927770586404 0.06776154116505495 A 2000 2000 0.0 0,0 96.68734993527764 10.060985387048547 A 90.0 90.0 0.0 0,1 98.89556155428521 10.006776834476995" fill="rgb(0,0,0)" stroke="rgb(0,0,255)" stroke-width="0" /><path d="M 103.31265006472212 10.060985387048547 A 2000 2000 0.0 0,0 103.68072229413569 0.06776154116504074 A 100.0 100.0 0.0 0,0 101.22715382857173 0.007529816085536822 A 2000 2000 0.0 0,0 101.10443844571455 10.00677683447698 A 90.0 90.0 0.0 0,1 103.31265006472212 10.060985387048547" fill="rgb(0,0,0)" stroke="rgb(0,0,255)" stroke-width="0" /><path d="M 107.72175811099956 10.331864903549985 A 2000 2000 0.0 0,0 108.57973123444395 0.3687387817222003 A 100.0 100.0 0.0 0,0 106.13207363022075 0.1881887099850701 A 2000 2000 0.0 0,0 105.51886626719867 10.169369838986569 A 90.0 90.0 0.0 0,1 107.72175811099956 10.331864903549985" fill="rgb(0,0,0)" stroke="rgb(0,0,255)" stroke-width="0" /><path d="M 112.11226376564132 10.818762811499795 A 2000 2000 0.0 0,0 113.45807085071257 0.9097364572219817 A 100.0 100.0 0.0 0,0 111.02222072938818 0.6093029997643811 A 2000 2000 0.0 0,0 109.91999865644937 10.548372699787947 A 90.0 90.0 0.0 0,1 112.11226376564132 10.818762811499795" fill="rgb(0,0,0)" stroke="rgb(0,0,255)" stroke-width="0" /><path d="M 116.47358991596263 11.52050613119053 A 2000 2000 0.0 0,0 118.30398879551403 1.6894512568783568 A 100.0 100.0 0.0 0,0 115.88581433338601 1.2698581842141294 A 2000 2000 0.0 0,0 114.2972329000474 11.142872365792726 A 90.0 90.0 0.0 0,1 116.47358991596263 11.52050613119053" fill="rgb(0,0,0)" stroke="rgb(0,0,255)" stroke-width="0" /><path d="M 120.79522974526033 12.435404301499574 A 2000 2000 0.0 0,0 123.10581082806704 2.7060047794439726 A 100.0 100.0 0.0 0,0 120.7111376192217 2.168262928037194 A 2000 2000 0.0 0,0 118.64002385729952 11.951436635233478 A 90.0 90.0 0.0 0,1 120.79522974526033 12.435404301499574" fill="rgb(0,0,0)" stroke="rgb(0,0,255)" stroke-width="0" /><path d="M 125.0667720446547 13.561253252599045 A 2000 2000 0.0 0,0 127.85196893850522 3.9569480584433876 A 100.0 100.0 0.0 0,0 125.48656596045129 3.302352895514744 A 2000 2000 0.0 0,0 122.93790936440615 12.972117605963277 A 90.0 90.0 0.0 0,1 125.0667720446547 13.561253252599045" fill="rgb(0,0,0)" stroke="rgb(0,0,255)" stroke-width="0" /><path d="M 129.27792629460356 14.89534071575305 A 2000 2000 0.0 0,0 132.5310292162262 5.439267461947821 A 100.0 100.0 0.0 0,0 130.20059493192264 4.669395964580559 A 2000 2000 0.0 0,0 127.18053543873036 14.202456368122498 A 90.0 90.0 0.0 0,1 129.27792629460356 14.89534071575305" fill="rgb(0,0,0)" stroke="rgb(0,0,255)" stroke-width="0" /><path d="M 133.41854745566528 16.434452757410554 A 2000 2000 0.0 0,0 137.13171939518364 7.1493919526784 A 100.0 100.0 0.0 0,0 134.84186802494327 6.266098808742441 A 2000 2000 0.0 0,0 131.35768122244895 15.6394889278682 A 90.0 90.0 0.0 0,1 133.41854745566528 16.434452757410554" fill="rgb(0,0,0)" stroke="rgb(0,0,255)" stroke-width="0" /><path d="M 137.4786604087874 18.174881521852996 A 2000 2000 0.0 0,0 141.64295600976374 9.083201690947774 A 100.0 100.0 0.0 0,0 139.39920400610475 8.088614830994217 A 2000 2000 0.0 0,0 135.4592836054943 17.279753347894797 A 90.0 90.0 0.0 0,1 137.4786604087874 18.174881521852996" fill="rgb(0,0,0)" stroke="rgb(0,0,255)" stroke-width="0" /><path d="M 141.44848398624146 20.112434163743075 A 2000 2000 0.0 0,0 146.05387109582387 11.236037959714523 A 100.0 100.0 0.0 0,0 143.86162385385254 10.132553430604503 A 2000 2000 0.0 0,0 139.4754614684673 19.119298087544053 A 90.0 90.0 0.0 0,1 141.44848398624146 20.112434163743075" fill="rgb(0,0,0)" stroke="rgb(0,0,255)" stroke-width="0" /><path d="M 145.31845453531457 22.242442949057192 A 2000 2000 0.0 0,0 150.35383837257177 13.602714387841331 A 100.0 100.0 0.0 0,0 148.2183772079122 12.392990580459298 A 2000 2000 0.0 0,0 143.39653948712098 21.153691522413368 A 90.0 90.0 0.0 0,1 145.31845453531457 22.242442949057192" fill="rgb(0,0,0)" stroke="rgb(0,0,255)" stroke-width="0" /><path d="M 149.07924895798402 24.559776500064487 A 2000 2000 0.0 0,0 154.5324988422045 16.177529444516097 A 100.0 100.0 0.0 0,0 152.45896826784664 14.86448068947334 A 2000 2000 0.0 0,0 147.21307144106197 23.378032620526 A 90.0 90.0 0.0 0,1 149.07924895798402 24.559776500064487" fill="rgb(0,0,0)" stroke="rgb(0,0,255)" stroke-width="0" /><path d="M 152.72180717107946 27.058852157266458 A 2000 2000 0.0 0,0 158.57978574564385 18.954280174740504 A 100.0 100.0 0.0 0,0 156.57318107836122 17.541069721497408 A 2000 2000 0.0 0,0 150.9158629705251 25.786962749347666 A 90.0 90.0 0.0 0,1 152.72180717107946 27.058852157266458" fill="rgb(0,0,0)" stroke="rgb(0,0,255)" stroke-width="0" /><path d="M 156.23735393281476 29.73364942851147 A 2000 2000 0.0 0,0 162.4859488142386 21.926277142790525 A 100.0 100.0 0.0 0,0 160.55110414043244 20.416309539111566 A 2000 2000 0.0 0,0 154.4959937263892 28.374678585200414 A 90.0 90.0 0.0 0,1 156.23735393281476 29.73364942851147" fill="rgb(0,0,0)" stroke="rgb(0,0,255)" stroke-width="0" /><path d="M 159.6174199831154 32.57772449288862 A 2000 2000 0.0 0,0 166.2415777590171 25.086360547654024 A 100.0 100.0 0.0 0,0 164.38315428897903 23.483273437754022 A 2000 2000 0.0 0,0 157.94483886008112 31.134946093978613 A 90.0 90.0 0.0 0,1 159.6174199831154 32.57772449288862" fill="rgb(0,0,0)" stroke="rgb(0,0,255)" stroke-width="0" /><path d="M 162.8538624468075 35.58422572445626 A 2000 2000 0.0 0,0 169.83762494089723 28.42691747161807 A 100.0 100.0 0.0 0,0 168.06009977954517 26.7345728327586 A 2000 2000 0.0 0,0 161.25408980159065 34.06111554948275 A 90.0 90.0 0.0 0,1 162.8538624468075 35.58422572445626" fill="rgb(0,0,0)" stroke="rgb(0,0,255)" stroke-width="0" /><path d="M 165.9388844505171 38.745910198409156 A 2000 2000 0.0 0,0 173.26542716724123 31.939900220454618 A 100.0 100.0 0.0 0,0 171.57308252838175 30.162375059102587 A 2000 2000 0.0 0,0 164.41577427554358 37.146137553192325 A 90.0 90.0 0.0 0,1 165.9388844505171 38.745910198409156" fill="rgb(0,0,0)" stroke="rgb(0,0,255)" stroke-width="0" /><path d="M 168.86505390602122 42.05516113991869 A 2000 2000 0.0 0,0 176.51672656224582 35.61684571102076 A 100.0 100.0 0.0 0,0 174.91363945234582 33.75842224098268 A 2000 2000 0.0 0,0 167.42227550711124 40.38258001688441 A 90.0 90.0 0.0 0,1 168.86505390602122 42.05516113991869" fill="rgb(0,0,0)" stroke="rgb(0,0,255)" stroke-width="0" /><path d="M 171.62532141479943 45.5040062736106 A 2000 2000 0.0 0,0 179.58369046088825 39.44889585956734 A 100.0 100.0 0.0 0,0 178.0737228572093 37.51405118576119 A 2000 2000 0.0 0,0 170.26635057148837 43.76264606718507 A 90.0 90.0 0.0 0,1 171.62532141479943 45.5040062736106" fill="rgb(0,0,0)" stroke="rgb(0,0,255)" stroke-width="0" /><path d="M 174.2130372506523 49.08413702947483 A 2000 2000 0.0 0,0 182.45893027850252 43.4268189216387 A 100.0 100.0 0.0 0,0 181.04571982525943 41.42021425435607 A 2000 2000 0.0 0,0 172.9411478427335 47.27819282892046 A 90.0 90.0 0.0 0,1 174.2130372506523 49.08413702947483" fill="rgb(0,0,0)" stroke="rgb(0,0,255)" stroke-width="0" /><path d="M 176.62196737947377 52.78692855893767 A 2000 2000 0.0 0,0 185.13551931052643 47.54103173215296 A 100.0 100.0 0.0 0,0 183.82247055548368 45.46750115779514 A 2000 2000 0.0 0,0 175.4402234999353 50.92075104201563 A 90.0 90.0 0.0 0,1 176.62196737947377 52.78692855893767" fill="rgb(0,0,0)" stroke="rgb(0,0,255)" stroke-width="0" /><path d="M 178.8463084775866 56.60346051287895 A 2000 2000 0.0 0,0 187.60700941954065 51.78162279208772 A 100.0 100.0 0.0 0,0 186.3972856121586 49.646161627428164 A 2000 2000 0.0 0,0 177.75755705094275 54.68154546468535 A 90.0 90.0 0.0 0,1 178.8463084775866 56.60346051287895" fill="rgb(0,0,0)" stroke="rgb(0,0,255)" stroke-width="0" /><path d="M 180.88070191245578 60.52453853153234 A 2000 2000 0.0 0,0 189.8674465693953 56.13837614614705 A 100.0 100.0 0.0 0,0 188.76396204028526 53.946128904175744 A 2000 2000 0.0 0,0 179.88756583625673 58.55151601375817 A 90.0 90.0 0.0 0,1 180.88070191245578 60.52453853153234" fill="rgb(0,0,0)" stroke="rgb(0,0,255)" stroke-width="0" /><path d="M 182.72024665210517 64.54071639450564 A 2000 2000 0.0 0,0 191.91138516900577 60.600795993895154 A 100.0 100.0 0.0 0,0 190.91679830905218 58.35704399023617 A 2000 2000 0.0 0,0 181.82511847814698 62.52133959121255 A 90.0 90.0 0.0 0,1 182.72024665210517 64.54071639450564" fill="rgb(0,0,0)" stroke="rgb(0,0,255)" stroke-width="0" /><path d="M 184.36051107213171 68.64231877755084 A 2000 2000 0.0 0,0 193.73390119125747 65.15813197505649 A 100.0 100.0 0.0 0,0 192.8506080473215 62.868280604816114 A 2000 2000 0.0 0,0 183.56554724258933 66.5814525443345 A 90.0 90.0 0.0 0,1 184.36051107213171 68.64231877755084" fill="rgb(0,0,0)" stroke="rgb(0,0,255)" stroke-width="0" /><path d="M 185.79754363187743 72.8194645612694 A 2000 2000 0.0 0,0 195.33060403541936 69.79940506807712 A 100.0 100.0 0.0 0,0 194.5607325380521 67.46897078377356 A 2000 2000 0.0 0,0 185.10465928424688 70.7220737053962 A 90.0 90.0 0.0 0,1 185.79754363187743 72.8194645612694" fill="rgb(0,0,0)" stroke="rgb(0,0,255)" stroke-width="0" /><path d="M 187.02788239403668 77.0620906355936 A 2000 2000 0.0 0,0 196.69764710448518 74.51343403954846 A 100.0 100.0 0.0 0,0 196.04305194155654 72.14803106149452 A 2000 2000 0.0 0,0 186.4387467474009 74.93322795534507 A 90.0 90.0 0.0 0,1 187.02788239403668 77.0620906355936" fill="rgb(0,0,0)" stroke="rgb(0,0,255)" stroke-width="0" /><path d="M 188.04856336476647 81.35997614270023 A 2000 2000 0.0 0,0 197.83173707196275 79.28886238077803 A 100.0 100.0 0.0 0,0 197.29399522055598 76.89418917193271 A 2000 2000 0.0 0,0 187.56459569850037 79.20477025473943 A 90.0 90.0 0.0 0,1 188.04856336476647 81.35997614270023" fill="rgb(0,0,0)" stroke="rgb(0,0,255)" stroke-width="0" /><path d="M 188.85712763420725 85.70276709995235 A 2000 2000 0.0 0,0 198.73014181578583 84.11418566661374 A 100.0 100.0 0.0 0,0 198.31054874312161 81.6960112044857 A 2000 2000 0.0 0,0 188.47949386880944 83.52641008403714 A 90.0 90.0 0.0 0,1 188.85712763420725 85.70276709995235" fill="rgb(0,0,0)" stroke="rgb(0,0,255)" stroke-width="0" /><path d="M 189.451627300212 90.08000134355039 A 2000 2000 0.0 0,0 199.3906970002356 88.97777927061155 A 100.0 100.0 0.0 0,0 199.09026354277796 86.54192914928716 A 2000 2000 0.0 0,0 189.18123718850018 87.88773623435844 A 90.0 90.0 0.0 0,1 189.451627300212 90.08000134355039" fill="rgb(0,0,0)" stroke="rgb(0,0,255)" stroke-width="0" /><path d="M 189.83063016101343 94.48113373280124 A 2000 2000 0.0 0,0 199.81181129001493 93.86792636977916 A 100.0 100.0 0.0 0,0 199.6312612182778 91.42026876555595 A 2000 2000 0.0 0,0 189.66813509645002 92.27824188900036 A 90.0 90.0 0.0 0,1 189.83063016101343 94.48113373280124" fill="rgb(0,0,0)" stroke="rgb(0,0,255)" stroke-width="0" /></svg>