<?xml version="1.0" encoding="utf-8" ?>
<svg baseProfile="full" height="100%" version="1.1" width="100%" xmlns="http://www.w3.org/2000/svg" xmlns:ev="http://www.w3.org/2001/xml-events" xmlns:xlink="http://www.w3.org/1999/xlink"><defs /><circle cx="100.0" cy="100.0" fill="none" r="10.0" stroke="rgb(0,250,0)" stroke-width="0.3" /><circle cx="100.0" cy="100.0" fill="none" r="25.0" stroke="rgb(0,250,0)" stroke-width="0.3" /><circle cx="100.0" cy="100.0" fill="none" r="25.0" stroke="rgb(0,250,0)" stroke-width="0.3" /><line fill="none" stroke="rgb(0,0,250)" stroke-width="0.1" x1="100.0" x2="90.0" y1="100.0" y2="100.0" /><line fill="none" stroke="rgb(0,0,250)" stroke-width="0.1" x1="100.0" x2="125.0" y1="100.0" y2="100.0" /><circle cx="90.0" cy="100.0" fill="rgb(250,0,0)" r="1" stroke="rgb(250,0,0)" stroke-width="0.3" /><circle cx="75.0" cy="100.0" fill="rgb(250,0,0)" r="1" stroke="rgb(250,0,0)" stroke-width="0.3" /><circle cx="125.0" cy="100.0" fill="rgb(250,0,0)" r="1" stroke="rgb(250,0,0)" stroke-width="0.3" /><circle cx="110.0" cy="100.0" fill="rgb(250,0,0)" r="1" stroke="rgb(250,0,0)" stroke-width="0.3" /><circle cx="100.0" cy="100.0" fill="rgb(250,0,0)" r="1" stroke="rgb(250,0,0)" stroke-width="0.3" /><path d="M 90.0 100.0 A 2000 2000 0.0 0,0 75.0 100.0 A 25.0 25.0 0.0 0,0 125.0 100.0 A 2000 2000 0.0 0,0 110.0 100.0 A 10.0 10.0 0.0 0,1 90.0 100.0" fill="rgb(0,0,0)" stroke="rgb(0,0,255)" stroke-width="0.5" /><circle cx="100.0" cy="100.0" fill="none" r="25.0" stroke="rgb(0,250,0)" stroke-width="0.3" /><circle cx="100.0" cy="100.0" fill="none" r="40.0" stroke="rgb(0,250,0)" stroke-width="0.3" /><circle cx="100.0" cy="100.0" fill="none" r="40.0" stroke="rgb(0,250,0)" stroke-width="0.3" /><line fill="none" stroke="rgb(0,0,250)" stroke-width="0.1" x1="100.0" x2="100.0" y1="100.0" y2="75.0" /><line fill="none" stroke="rgb(0,0,250)" stroke-width="0.1" x1="100.0" x2="100.0" y1="100.0" y2="140.0" /><circle cx="100.0" cy="75.0" fill="rgb(250,0,0)" r="1" stroke="rgb(250,0,0)" stroke-width="0.3" /><circle cx="99.99999999999999" cy="60.0" fill="rgb(250,0,0)" r="1" stroke="rgb(250,0,0)" stroke-width="0.3" /><circle cx="100.0" cy="140.0" fill="rgb(250,0,0)" r="1" stroke="rgb(250,0,0)" stroke-width="0.3" /><circle cx="100.0" cy="125.0" fill="rgb(250,0,0)" r="1" stroke="rgb(250,0,0)" stroke-width="0.3" /><circle cx="100.0" cy="100.0" fill="rgb(250,0,0)" r="1" stroke="rgb(250,0,0)" stroke-width="0.3" /><path d="M 100.0 75.0 A 2000 2000 0.0 0,0 99.99999999999999 60.0 A 40.0 40.0 0.0 0,0 100.0 140.0 A 2000 2000 0.0 0,0 100.0 125.0 A 25.0 25.0 0.0 0,1 100.0 75.0" fill="rgb(0,0,0)" stroke="rgb(0,0,255)" stroke-width="0.5" /><circle cx="100.0" cy="100.0" fill="none" r="40.0" stroke="rgb(0,250,0)" stroke-width="0.3" /><circle cx="100.0" cy="100.0" fill="none" r="55.0" stroke="rgb(0,250,0)" stroke-width="0.3" /><circle cx="100.0" cy="100.0" fill="none" r="55.0" stroke="rgb(0,250,0)" stroke-width="0.3" /><line fill="none" stroke="rgb(0,0,250)" stroke-width="0.1" x1="100.0" x2="128.2842712474619" y1="100.0" y2="71.7157287525381" /><line fill="none" stroke="rgb(0,0,250)" stroke-width="0.1" x1="100.0" x2="61.10912703473988" y1="100.0" y2="61.10912703473989" /><circle cx="128.2842712474619" cy="71.7157287525381" fill="rgb(250,0,0)" r="1" stroke="rgb(250,0,0)" stroke-width="0.3" /><circle cx="138.8908729652601" cy="61.10912703473988" fill="rgb(250,0,0)" r="1" stroke="rgb(250,0,0)" stroke-width="0.3" /><circle cx="61.10912703473988" cy="61.10912703473989" fill="rgb(250,0,0)" r="1" stroke="rgb(250,0,0)" stroke-width="0.3" /><circle cx="71.7157287525381" cy="71.7157287525381" fill="rgb(250,0,0)" r="1" stroke="rgb(250,0,0)" stroke-width="0.3" /><circle cx="100.0" cy="100.0" fill="rgb(250,0,0)" r="1" stroke="rgb(250,0,0)" stroke-width="0.3" /><path d="M 128.2842712474619 71.7157287525381 A 2000 2000 0.0 0,0 138.8908729652601 61.10912703473988 A 55.0 55.0 0.0 0,0 61.10912703473988 61.10912703473989 A 2000 2000 0.0 0,0 71.7157287525381 71.7157287525381 A 40.0 40.0 0.0 0,1 128.2842712474619 71.7157287525381" fill="rgb(0,0,0)" stroke="rgb(0,0,255)" stroke-width="0.5" /><line fill="none" stroke="rgb(0,0,250)" stroke-width="0.1" x1="100.0" x2="71.71572875253813" y1="100.0" y2="128.28427124746193" /><line fill="none" stroke="rgb(0,0,250)" stroke-width="0.1" x1="100.0" x2="138.89087296526014" y1="100.0" y2="138.89087296526006" /><circle cx="71.71572875253813" cy="128.28427124746193" fill="rgb(250,0,0)" r="1" stroke="rgb(250,0,0)" stroke-width="0.3" /><circle cx="61.109127034739934" cy="138.89087296526014" fill="rgb(250,0,0)" r="1" stroke="rgb(250,0,0)" stroke-width="0.3" /><circle cx="138.89087296526014" cy="138.89087296526006" fill="rgb(250,0,0)" r="1" stroke="rgb(250,0,0)" stroke-width="0.3" /><circle cx="128.28427124746193" cy="128.28427124746187" fill="rgb(250,0,0)" r="1" stroke="rgb(250,0,0)" stroke-width="0.3" /><circle cx="100.0" cy="100.0" fill="rgb(250,0,0)" r="1" stroke="rgb(250,0,0)" stroke-width="0.3" /><path d="M 71.71572875253813 128.28427124746193 A 2000 2000 0.0 0,0 61.109127034739934 138.89087296526014 A 55.0 55.0 0.0 0,0 138.89087296526014 138.89087296526006 A 2000 2000 0.0 0,0 128.28427124746193 128.28427124746187 A 40.0 40.0 0.0 0,1 71.71572875253813 128.28427124746193" fill="rgb(0,0,0)" stroke="rgb(0,0,255)" stroke-width="0.5" /><circle cx="100.0" cy="100.0" fill="none" r="55.0" stroke="rgb(0,250,0)" stroke-width="0.3" /><circle cx="100.0" cy="100.0" fill="none" r="70.0" stroke="rgb(0,250,0)" stroke-width="0.3" /><circle cx="100.0" cy="100.0" fill="none" r="70.0" stroke="rgb(0,250,0)" stroke-width="0.3" /><line fill="none" stroke="rgb(0,0,250)" stroke-width="0.1" x1="100.0" x2="150.81337428812077" y1="100.0" y2="78.95241121992002" /><line fill="none" stroke="rgb(0,0,250)" stroke-width="0.1" x1="100.0" x2="126.78784026555624" y1="100.0" y2="35.32843272420992" /><circle cx="150.81337428812077" cy="78.95241121992002" fill="rgb(250,0,0)" r="1" stroke="rgb(250,0,0)" stroke-width="0.3" /><circle cx="164.67156727579004" cy="73.21215973444367" fill="rgb(250,0,0)" r="1" stroke="rgb(250,0,0)" stroke-width="0.3" /><circle cx="126.78784026555624" cy="35.32843272420992" fill="rgb(250,0,0)" r="1" stroke="rgb(250,0,0)" stroke-width="0.3" /><circle cx="121.0475887800799" cy="49.186625711879216" fill="rgb(250,0,0)" r="1" stroke="rgb(250,0,0)" stroke-width="0.3" /><circle cx="100.0" cy="100.0" fill="rgb(250,0,0)" r="1" stroke="rgb(250,0,0)" stroke-width="0.3" /><path d="M 150.81337428812077 78.95241121992002 A 2000 2000 0.0 0,0 164.67156727579004 73.21215973444367 A 70.0 70.0 0.0 0,0 126.78784026555624 35.32843272420992 A 2000 2000 0.0 0,0 121.0475887800799 49.186625711879216 A 55.0 55.0 0.0 0,1 150.81337428812077 78.95241121992002" fill="rgb(0,0,0)" stroke="rgb(0,0,255)" stroke-width="0.5" /><line fill="none" stroke="rgb(0,0,250)" stroke-width="0.1" x1="100.0" x2="121.04758878007998" y1="100.0" y2="150.81337428812077" /><line fill="none" stroke="rgb(0,0,250)" stroke-width="0.1" x1="100.0" x2="164.6715672757901" y1="100.0" y2="126.78784026555624" /><circle cx="121.04758878007998" cy="150.81337428812077" fill="rgb(250,0,0)" r="1" stroke="rgb(250,0,0)" stroke-width="0.3" /><circle cx="126.78784026555633" cy="164.67156727579004" fill="rgb(250,0,0)" r="1" stroke="rgb(250,0,0)" stroke-width="0.3" /><circle cx="164.6715672757901" cy="126.78784026555624" fill="rgb(250,0,0)" r="1" stroke="rgb(250,0,0)" stroke-width="0.3" /><circle cx="150.8133742881208" cy="121.0475887800799" fill="rgb(250,0,0)" r="1" stroke="rgb(250,0,0)" stroke-width="0.3" /><circle cx="100.0" cy="100.0" fill="rgb(250,0,0)" r="1" stroke="rgb(250,0,0)" stroke-width="0.3" /><path d="M 121.04758878007998 150.81337428812077 A 2000 2000 0.0 0,0 126.78784026555633 164.67156727579004 A 70.0 70.0 0.0 0,0 164.6715672757901 126.78784026555624 A 2000 2000 0.0 0,0 150.8133742881208 121.0475887800799 A 55.0 55.0 0.0 0,1 121.04758878007998 150.81337428812077" fill="rgb(0,0,0)" stroke="rgb(0,0,255)" stroke-width="0.5" /><line fill="none" stroke="rgb(0,0,250)" stroke-width="0.1" x1="100.0" x2="49.186625711879245" y1="100.0" y2="121.04758878007998" /><line fill="none" stroke="rgb(0,0,250)" stroke-width="0.1" x1="100.0" x2="73.2121597344437" y1="100.0" y2="164.67156727579007" /><circle cx="49.186625711879245" cy="121.04758878007998" fill="rgb(250,0,0)" r="1" stroke="rgb(250,0,0)" stroke-width="0.3" /><circle cx="35.32843272420995" cy="126.78784026555633" fill="rgb(250,0,0)" r="1" stroke="rgb(250,0,0)" stroke-width="0.3" /><circle cx="73.2121597344437" cy="164.67156727579007" fill="rgb(250,0,0)" r="1" stroke="rgb(250,0,0)" stroke-width="0.3" /><circle cx="78.95241121992005" cy="150.81337428812077" fill="rgb(250,0,0)" r="1" stroke="rgb(250,0,0)" stroke-width="0.3" /><circle cx="100.0" cy="100.0" fill="rgb(250,0,0)" r="1" stroke="rgb(250,0,0)" stroke-width="0.3" /><path d="M 49.186625711879245 121.04758878007998 A 2000 2000 0.0 0,0 35.32843272420995 126.78784026555633 A 70.0 70.0 0.0 0,0 73.2121597344437 164.67156727579007 A 2000 2000 0.0 0,0 78.95241121992005 150.81337428812077 A 55.0 55.0 0.0 0,1 49.186625711879245 121.04758878007998" fill="rgb(0,0,0)" stroke="rgb(0,0,255)" stroke-width="0.5" /><line fill="none" stroke="rgb(0,0,250)" stroke-width="0.1" x1="100.0" x2="78.95241121992002" y1="100.0" y2="49.186625711879245" /><line fill="none" stroke="rgb(0,0,250)" stroke-width="0.1" x1="100.0" x2="35.328432724209875" y1="100.0" y2="73.21215973444383" /><circle cx="78.95241121992002" cy="49.186625711879245" fill="rgb(250,0,0)" r="1" stroke="rgb(250,0,0)" stroke-width="0.3" /><circle cx="73.21215973444366" cy="35.32843272420995" fill="rgb(250,0,0)" r="1" stroke="rgb(250,0,0)" stroke-width="0.3" /><circle cx="35.328432724209875" cy="73.21215973444383" fill="rgb(250,0,0)" r="1" stroke="rgb(250,0,0)" stroke-width="0.3" /><circle cx="49.186625711879195" cy="78.95241121992015" fill="rgb(250,0,0)" r="1" stroke="rgb(250,0,0)" stroke-width="0.3" /><circle cx="100.0" cy="100.0" fill="rgb(250,0,0)" r="1" stroke="rgb(250,0,0)" stroke-width="0.3" /><path d="M 78.95241121992002 49.186625711879245 A 2000 2000 0.0 0,0 73.21215973444366 35.32843272420995 A 70.0 70.0 0.0 0,0 35.328432724209875 73.21215973444383 A 2000 2000 0.0 0,0 49.186625711879195 78.95241121992015 A 55.0 55.0 0.0 0,1 78.95241121992002 49.186625711879245" fill="rgb(0,0,0)" stroke="rgb(0,0,255)" stroke-width="0.5" /><circle cx="100.0" cy="100.0" fill="none" r="70.0" stroke="rgb(0,250,0)" stroke-width="0.3" /><circle cx="100.0" cy="100.0" fill="none" r="85.0" stroke="rgb(0,250,0)" stroke-width="0.3" /><circle cx="100.0" cy="100.0" fill="none" r="85.0" stroke="rgb(0,250,0)" stroke-width="0.3" /><line fill="none" stroke="rgb(0,0,250)" stroke-width="0.1" x1="100.0" x2="168.65496962822613" y1="100.0" y2="86.34367745887099" /><line fill="none" stroke="rgb(0,0,250)" stroke-width="0.1" x1="100.0" x2="170.67491704571634" y1="100.0" y2="52.77653019333381" /><circle cx="168.65496962822613" cy="86.34367745887099" fill="rgb(250,0,0)" r="1" stroke="rgb(250,0,0)" stroke-width="0.3" /><circle cx="183.36674883427457" cy="83.41732262862905" fill="rgb(250,0,0)" r="1" stroke="rgb(250,0,0)" stroke-width="0.3" /><circle cx="170.67491704571634" cy="52.77653019333381" fill="rgb(250,0,0)" r="1" stroke="rgb(250,0,0)" stroke-width="0.3" /><circle cx="158.20287286117815" cy="61.110083688627846" fill="rgb(250,0,0)" r="1" stroke="rgb(250,0,0)" stroke-width="0.3" /><circle cx="100.0" cy="100.0" fill="rgb(250,0,0)" r="1" stroke="rgb(250,0,0)" stroke-width="0.3" /><path d="M 168.65496962822613 86.34367745887099 A 2000 2000 0.0 0,0 183.36674883427457 83.41732262862905 A 85.0 85.0 0.0 0,0 170.67491704571634 52.77653019333381 A 2000 2000 0.0 0,0 158.20287286117815 61.110083688627846 A 70.0 70.0 0.0 0,1 168.65496962822613 86.34367745887099" fill="rgb(0,0,0)" stroke="rgb(0,0,255)" stroke-width="0.5" /><line fill="none" stroke="rgb(0,0,250)" stroke-width="0.1" x1="100.0" x2="158.20287286117818" y1="100.0" y2="138.88991631137213" /><line fill="none" stroke="rgb(0,0,250)" stroke-width="0.1" x1="100.0" x2="183.3667488342746" y1="100.0" y2="116.58267737137082" /><circle cx="158.20287286117818" cy="138.88991631137213" fill="rgb(250,0,0)" r="1" stroke="rgb(250,0,0)" stroke-width="0.3" /><circle cx="170.67491704571637" cy="147.22346980666617" fill="rgb(250,0,0)" r="1" stroke="rgb(250,0,0)" stroke-width="0.3" /><circle cx="183.3667488342746" cy="116.58267737137082" fill="rgb(250,0,0)" r="1" stroke="rgb(250,0,0)" stroke-width="0.3" /><circle cx="168.65496962822613" cy="113.65632254112892" fill="rgb(250,0,0)" r="1" stroke="rgb(250,0,0)" stroke-width="0.3" /><circle cx="100.0" cy="100.0" fill="rgb(250,0,0)" r="1" stroke="rgb(250,0,0)" stroke-width="0.3" /><path d="M 158.20287286117818 138.88991631137213 A 2000 2000 0.0 0,0 170.67491704571637 147.22346980666617 A 85.0 85.0 0.0 0,0 183.3667488342746 116.58267737137082 A 2000 2000 0.0 0,0 168.65496962822613 113.65632254112892 A 70.0 70.0 0.0 0,1 158.20287286117818 138.88991631137213" fill="rgb(0,0,0)" stroke="rgb(0,0,255)" stroke-width="0.5" /><line fill="none" stroke="rgb(0,0,250)" stroke-width="0.1" x1="100.0" x2="113.65632254112901" y1="100.0" y2="168.65496962822613" /><line fill="none" stroke="rgb(0,0,250)" stroke-width="0.1" x1="100.0" x2="147.2234698066662" y1="100.0" y2="170.67491704571634" /><circle cx="113.65632254112901" cy="168.65496962822613" fill="rgb(250,0,0)" r="1" stroke="rgb(250,0,0)" stroke-width="0.3" /><circle cx="116.58267737137095" cy="183.36674883427457" fill="rgb(250,0,0)" r="1" stroke="rgb(250,0,0)" stroke-width="0.3" /><circle cx="147.2234698066662" cy="170.67491704571634" fill="rgb(250,0,0)" r="1" stroke="rgb(250,0,0)" stroke-width="0.3" /><circle cx="138.88991631137216" cy="158.20287286117815" fill="rgb(250,0,0)" r="1" stroke="rgb(250,0,0)" stroke-width="0.3" /><circle cx="100.0" cy="100.0" fill="rgb(250,0,0)" r="1" stroke="rgb(250,0,0)" stroke-width="0.3" /><path d="M 113.65632254112901 168.65496962822613 A 2000 2000 0.0 0,0 116.58267737137095 183.36674883427457 A 85.0 85.0 0.0 0,0 147.2234698066662 170.67491704571634 A 2000 2000 0.0 0,0 138.88991631137216 158.20287286117815 A 70.0 70.0 0.0 0,1 113.65632254112901 168.65496962822613" fill="rgb(0,0,0)" stroke="rgb(0,0,255)" stroke-width="0.5" /><line fill="none" stroke="rgb(0,0,250)" stroke-width="0.1" x1="100.0" x2="61.11008368862788" y1="100.0" y2="158.2028728611782" /><line fill="none" stroke="rgb(0,0,250)" stroke-width="0.1" x1="100.0" x2="83.41732262862918" y1="100.0" y2="183.3667488342746" /><circle cx="61.11008368862788" cy="158.2028728611782" fill="rgb(250,0,0)" r="1" stroke="rgb(250,0,0)" stroke-width="0.3" /><circle cx="52.776530193333855" cy="170.67491704571637" fill="rgb(250,0,0)" r="1" stroke="rgb(250,0,0)" stroke-width="0.3" /><circle cx="83.41732262862918" cy="183.3667488342746" fill="rgb(250,0,0)" r="1" stroke="rgb(250,0,0)" stroke-width="0.3" /><circle cx="86.34367745887108" cy="168.65496962822613" fill="rgb(250,0,0)" r="1" stroke="rgb(250,0,0)" stroke-width="0.3" /><circle cx="100.0" cy="100.0" fill="rgb(250,0,0)" r="1" stroke="rgb(250,0,0)" stroke-width="0.3" /><path d="M 61.11008368862788 158.2028728611782 A 2000 2000 0.0 0,0 52.776530193333855 170.67491704571637 A 85.0 85.0 0.0 0,0 83.41732262862918 183.3667488342746 A 2000 2000 0.0 0,0 86.34367745887108 168.65496962822613 A 70.0 70.0 0.0 0,1 61.11008368862788 158.2028728611782" fill="rgb(0,0,0)" stroke="rgb(0,0,255)" stroke-width="0.5" /><line fill="none" stroke="rgb(0,0,250)" stroke-width="0.1" x1="100.0" x2="31.34503037177386" y1="100.0" y2="113.65632254112896" /><line fill="none" stroke="rgb(0,0,250)" stroke-width="0.1" x1="100.0" x2="29.32508295428366" y1="100.0" y2="147.2234698066662" /><circle cx="31.34503037177386" cy="113.65632254112896" fill="rgb(250,0,0)" r="1" stroke="rgb(250,0,0)" stroke-width="0.3" /><circle cx="16.633251165725397" cy="116.58267737137088" fill="rgb(250,0,0)" r="1" stroke="rgb(250,0,0)" stroke-width="0.3" /><circle cx="29.32508295428366" cy="147.2234698066662" fill="rgb(250,0,0)" r="1" stroke="rgb(250,0,0)" stroke-width="0.3" /><circle cx="41.79712713882184" cy="138.88991631137216" fill="rgb(250,0,0)" r="1" stroke="rgb(250,0,0)" stroke-width="0.3" /><circle cx="100.0" cy="100.0" fill="rgb(250,0,0)" r="1" stroke="rgb(250,0,0)" stroke-width="0.3" /><path d="M 31.34503037177386 113.65632254112896 A 2000 2000 0.0 0,0 16.633251165725397 116.58267737137088 A 85.0 85.0 0.0 0,0 29.32508295428366 147.2234698066662 A 2000 2000 0.0 0,0 41.79712713882184 138.88991631137216 A 70.0 70.0 0.0 0,1 31.34503037177386 113.65632254112896" fill="rgb(0,0,0)" stroke="rgb(0,0,255)" stroke-width="0.5" /><line fill="none" stroke="rgb(0,0,250)" stroke-width="0.1" x1="100.0" x2="41.79712713882181" y1="100.0" y2="61.11008368862788" /><line fill="none" stroke="rgb(0,0,250)" stroke-width="0.1" x1="100.0" x2="16.633251165725397" y1="100.0" y2="83.41732262862918" /><circle cx="41.79712713882181" cy="61.11008368862788" fill="rgb(250,0,0)" r="1" stroke="rgb(250,0,0)" stroke-width="0.3" /><circle cx="29.32508295428363" cy="52.776530193333855" fill="rgb(250,0,0)" r="1" stroke="rgb(250,0,0)" stroke-width="0.3" /><circle cx="16.633251165725397" cy="83.41732262862918" fill="rgb(250,0,0)" r="1" stroke="rgb(250,0,0)" stroke-width="0.3" /><circle cx="31.34503037177386" cy="86.3436774588711" fill="rgb(250,0,0)" r="1" stroke="rgb(250,0,0)" stroke-width="0.3" /><circle cx="100.0" cy="100.0" fill="rgb(250,0,0)" r="1" stroke="rgb(250,0,0)" stroke-width="0.3" /><path d="M 41.79712713882181 61.11008368862788 A 2000 2000 0.0 0,0 29.32508295428363 52.776530193333855 A 85.0 85.0 0.0 0,0 16.633251165725397 83.41732262862918 A 2000 2000 0.0 0,0 31.34503037177386 86.3436774588711 A 70.0 70.0 0.0 0,1 41.79712713882181 61.11008368862788" fill="rgb(0,0,0)" stroke="rgb(0,0,255)" stroke-width="0.5" /><line fill="none" stroke="rgb(0,0,250)" stroke-width="0.1" x1="100.0" x2="86.34367745887091" y1="100.0" y2="31.345030371773888" /><line fill="none" stroke="rgb(0,0,250)" stroke-width="0.1" x1="100.0" x2="52.77653019333367" y1="100.0" y2="29.325082954283744" /><circle cx="86.34367745887091" cy="31.345030371773888" fill="rgb(250,0,0)" r="1" stroke="rgb(250,0,0)" stroke-width="0.3" /><circle cx="83.41732262862897" cy="16.63325116572544" fill="rgb(250,0,0)" r="1" stroke="rgb(250,0,0)" stroke-width="0.3" /><circle cx="52.77653019333367" cy="29.325082954283744" fill="rgb(250,0,0)" r="1" stroke="rgb(250,0,0)" stroke-width="0.3" /><circle cx="61.11008368862773" cy="41.797127138821914" fill="rgb(250,0,0)" r="1" stroke="rgb(250,0,0)" stroke-width="0.3" /><circle cx="100.0" cy="100.0" fill="rgb(250,0,0)" r="1" stroke="rgb(250,0,0)" stroke-width="0.3" /><path d="M 86.34367745887091 31.345030371773888 A 2000 2000 0.0 0,0 83.41732262862897 16.63325116572544 A 85.0 85.0 0.0 0,0 52.77653019333367 29.325082954283744 A 2000 2000 0.0 0,0 61.11008368862773 41.797127138821914 A 70.0 70.0 0.0 0,1 86.34367745887091 31.345030371773888" fill="rgb(0,0,0)" stroke="rgb(0,0,255)" stroke-width="0.5" /><line fill="none" stroke="rgb(0,0,250)" stroke-width="0.1" x1="100.0" x2="138.8899163113721" y1="100.0" y2="41.79712713882181" /><line fill="none" stroke="rgb(0,0,250)" stroke-width="0.1" x1="100.0" x2="116.5826773713708" y1="100.0" y2="16.633251165725397" /><circle cx="138.8899163113721" cy="41.79712713882181" fill="rgb(250,0,0)" r="1" stroke="rgb(250,0,0)" stroke-width="0.3" /><circle cx="147.22346980666615" cy="29.32508295428363" fill="rgb(250,0,0)" r="1" stroke="rgb(250,0,0)" stroke-width="0.3" /><circle cx="116.5826773713708" cy="16.633251165725397" fill="rgb(250,0,0)" r="1" stroke="rgb(250,0,0)" stroke-width="0.3" /><circle cx="113.6563225411289" cy="31.34503037177386" fill="rgb(250,0,0)" r="1" stroke="rgb(250,0,0)" stroke-width="0.3" /><circle cx="100.0" cy="100.0" fill="rgb(250,0,0)" r="1" stroke="rgb(250,0,0)" stroke-width="0.3" /><path d="M 138.8899163113721 41.79712713882181 A 2000 2000 0.0 0,0 147.22346980666615 29.32508295428363 A 85.0 85.0 0.0 0,0 116.5826773713708 16.633251165725397 A 2000 2000 0.0 0,0 113.6563225411289 31.34503037177386 A 70.0 70.0 0.0 0,1 138.8899163113721 41.79712713882181" fill="rgb(0,0,0)" stroke="rgb(0,0,255)" stroke-width="0.5" /><circle cx="100.0" cy="100.0" fill="none" r="85.0" stroke="rgb(0,250,0)" stroke-width="0.3" /><circle cx="100.0" cy="100.0" fill="none" r="100.0" stroke="rgb(0,250,0)" stroke-width="0.3" /><circle cx="100.0" cy="100.0" fill="none" r="100.0" stroke="rgb(0,250,0)" stroke-width="0.3" /><line fill="none" stroke="rgb(0,0,250)" stroke-width="0.1" x1="100.0" x2="184.59070176713675" y1="100.0" y2="91.66854307198729" /><line fill="none" stroke="rgb(0,0,250)" stroke-width="0.1" x1="100.0" x2="195.69403357322085" y1="100.0" y2="70.97153227455367" /><circle cx="184.59070176713675" cy="91.66854307198729" fill="rgb(250,0,0)" r="1" stroke="rgb(250,0,0)" stroke-width="0.3" /><circle cx="199.51847266721967" cy="90.19828596704386" fill="rgb(250,0,0)" r="1" stroke="rgb(250,0,0)" stroke-width="0.3" /><circle cx="195.69403357322085" cy="70.97153227455367" fill="rgb(250,0,0)" r="1" stroke="rgb(250,0,0)" stroke-width="0.3" /><circle cx="181.3399285372377" cy="75.32580243337061" fill="rgb(250,0,0)" r="1" stroke="rgb(250,0,0)" stroke-width="0.3" /><circle cx="100.0" cy="100.0" fill="rgb(250,0,0)" r="1" stroke="rgb(250,0,0)" stroke-width="0.3" /><path d="M 184.59070176713675 91.66854307198729 A 2000 2000 0.0 0,0 199.51847266721967 90.19828596704386 A 100.0 100.0 0.0 0,0 195.69403357322085 70.97153227455367 A 2000 2000 0.0 0,0 181.3399285372377 75.32580243337061 A 85.0 85.0 0.0 0,1 184.59070176713675 91.66854307198729" fill="rgb(0,0,0)" stroke="rgb(0,0,255)" stroke-width="0.5" /><line fill="none" stroke="rgb(0,0,250)" stroke-width="0.1" x1="100.0" x2="181.33992853723777" y1="100.0" y2="124.6741975666292" /><line fill="none" stroke="rgb(0,0,250)" stroke-width="0.1" x1="100.0" x2="199.5184726672197" y1="100.0" y2="109.80171403295591" /><circle cx="181.33992853723777" cy="124.6741975666292" fill="rgb(250,0,0)" r="1" stroke="rgb(250,0,0)" stroke-width="0.3" /><circle cx="195.6940335732209" cy="129.02846772544612" fill="rgb(250,0,0)" r="1" stroke="rgb(250,0,0)" stroke-width="0.3" /><circle cx="199.5184726672197" cy="109.80171403295591" fill="rgb(250,0,0)" r="1" stroke="rgb(250,0,0)" stroke-width="0.3" /><circle cx="184.59070176713675" cy="108.33145692801253" fill="rgb(250,0,0)" r="1" stroke="rgb(250,0,0)" stroke-width="0.3" /><circle cx="100.0" cy="100.0" fill="rgb(250,0,0)" r="1" stroke="rgb(250,0,0)" stroke-width="0.3" /><path d="M 181.33992853723777 124.6741975666292 A 2000 2000 0.0 0,0 195.6940335732209 129.02846772544612 A 100.0 100.0 0.0 0,0 199.5184726672197 109.80171403295591 A 2000 2000 0.0 0,0 184.59070176713675 108.33145692801253 A 85.0 85.0 0.0 0,1 181.33992853723777 124.6741975666292" fill="rgb(0,0,0)" stroke="rgb(0,0,255)" stroke-width="0.5" /><line fill="none" stroke="rgb(0,0,250)" stroke-width="0.1" x1="100.0" x2="165.70588853583268" y1="100.0" y2="153.9234291539098" /><line fill="none" stroke="rgb(0,0,250)" stroke-width="0.1" x1="100.0" x2="188.19212643483553" y1="100.0" y2="147.13967368259966" /><circle cx="165.70588853583268" cy="153.9234291539098" fill="rgb(250,0,0)" r="1" stroke="rgb(250,0,0)" stroke-width="0.3" /><circle cx="177.30104533627375" cy="163.43932841636448" fill="rgb(250,0,0)" r="1" stroke="rgb(250,0,0)" stroke-width="0.3" /><circle cx="188.19212643483553" cy="147.13967368259966" fill="rgb(250,0,0)" r="1" stroke="rgb(250,0,0)" stroke-width="0.3" /><circle cx="174.9633074696102" cy="140.06872263020972" fill="rgb(250,0,0)" r="1" stroke="rgb(250,0,0)" stroke-width="0.3" /><circle cx="100.0" cy="100.0" fill="rgb(250,0,0)" r="1" stroke="rgb(250,0,0)" stroke-width="0.3" /><path d="M 165.70588853583268 153.9234291539098 A 2000 2000 0.0 0,0 177.30104533627375 163.43932841636448 A 100.0 100.0 0.0 0,0 188.19212643483553 147.13967368259966 A 2000 2000 0.0 0,0 174.9633074696102 140.06872263020972 A 85.0 85.0 0.0 0,1 165.70588853583268 153.9234291539098" fill="rgb(0,0,0)" stroke="rgb(0,0,255)" stroke-width="0.5" /><line fill="none" stroke="rgb(0,0,250)" stroke-width="0.1" x1="100.0" x2="140.06872263020983" y1="100.0" y2="174.96330746961016" /><line fill="none" stroke="rgb(0,0,250)" stroke-width="0.1" x1="100.0" x2="163.4393284163646" y1="100.0" y2="177.30104533627366" /><circle cx="140.06872263020983" cy="174.96330746961016" fill="rgb(250,0,0)" r="1" stroke="rgb(250,0,0)" stroke-width="0.3" /><circle cx="147.1396736825998" cy="188.19212643483547" fill="rgb(250,0,0)" r="1" stroke="rgb(250,0,0)" stroke-width="0.3" /><circle cx="163.4393284163646" cy="177.30104533627366" fill="rgb(250,0,0)" r="1" stroke="rgb(250,0,0)" stroke-width="0.3" /><circle cx="153.92342915390992" cy="165.70588853583263" fill="rgb(250,0,0)" r="1" stroke="rgb(250,0,0)" stroke-width="0.3" /><circle cx="100.0" cy="100.0" fill="rgb(250,0,0)" r="1" stroke="rgb(250,0,0)" stroke-width="0.3" /><path d="M 140.06872263020983 174.96330746961016 A 2000 2000 0.0 0,0 147.1396736825998 188.19212643483547 A 100.0 100.0 0.0 0,0 163.4393284163646 177.30104533627366 A 2000 2000 0.0 0,0 153.92342915390992 165.70588853583263 A 85.0 85.0 0.0 0,1 140.06872263020983 174.96330746961016" fill="rgb(0,0,0)" stroke="rgb(0,0,255)" stroke-width="0.5" /><line fill="none" stroke="rgb(0,0,250)" stroke-width="0.1" x1="100.0" x2="108.33145692801273" y1="100.0" y2="184.59070176713675" /><line fill="none" stroke="rgb(0,0,250)" stroke-width="0.1" x1="100.0" x2="129.02846772544635" y1="100.0" y2="195.69403357322085" /><circle cx="108.33145692801273" cy="184.59070176713675" fill="rgb(250,0,0)" r="1" stroke="rgb(250,0,0)" stroke-width="0.3" /><circle cx="109.80171403295614" cy="199.51847266721967" fill="rgb(250,0,0)" r="1" stroke="rgb(250,0,0)" stroke-width="0.3" /><circle cx="129.02846772544635" cy="195.69403357322085" fill="rgb(250,0,0)" r="1" stroke="rgb(250,0,0)" stroke-width="0.3" /><circle cx="124.67419756662939" cy="181.3399285372377" fill="rgb(250,0,0)" r="1" stroke="rgb(250,0,0)" stroke-width="0.3" /><circle cx="100.0" cy="100.0" fill="rgb(250,0,0)" r="1" stroke="rgb(250,0,0)" stroke-width="0.3" /><path d="M 108.33145692801273 184.59070176713675 A 2000 2000 0.0 0,0 109.80171403295614 199.51847266721967 A 100.0 100.0 0.0 0,0 129.02846772544635 195.69403357322085 A 2000 2000 0.0 0,0 124.67419756662939 181.3399285372377 A 85.0 85.0 0.0 0,1 108.33145692801273 184.59070176713675" fill="rgb(0,0,0)" stroke="rgb(0,0,255)" stroke-width="0.5" /><line fill="none" stroke="rgb(0,0,250)" stroke-width="0.1" x1="100.0" x2="75.32580243337081" y1="100.0" y2="181.33992853723777" /><line fill="none" stroke="rgb(0,0,250)" stroke-width="0.1" x1="100.0" x2="90.19828596704409" y1="100.0" y2="199.5184726672197" /><circle cx="75.32580243337081" cy="181.33992853723777" fill="rgb(250,0,0)" r="1" stroke="rgb(250,0,0)" stroke-width="0.3" /><circle cx="70.9715322745539" cy="195.6940335732209" fill="rgb(250,0,0)" r="1" stroke="rgb(250,0,0)" stroke-width="0.3" /><circle cx="90.19828596704409" cy="199.5184726672197" fill="rgb(250,0,0)" r="1" stroke="rgb(250,0,0)" stroke-width="0.3" /><circle cx="91.66854307198747" cy="184.59070176713675" fill="rgb(250,0,0)" r="1" stroke="rgb(250,0,0)" stroke-width="0.3" /><circle cx="100.0" cy="100.0" fill="rgb(250,0,0)" r="1" stroke="rgb(250,0,0)" stroke-width="0.3" /><path d="M 75.32580243337081 181.33992853723777 A 2000 2000 0.0 0,0 70.9715322745539 195.6940335732209 A 100.0 100.0 0.0 0,0 90.19828596704409 199.5184726672197 A 2000 2000 0.0 0,0 91.66854307198747 184.59070176713675 A 85.0 85.0 0.0 0,1 75.32580243337081 181.33992853723777" fill="rgb(0,0,0)" stroke="rgb(0,0,255)" stroke-width="0.5" /><line fill="none" stroke="rgb(0,0,250)" stroke-width="0.1" x1="100.0" x2="46.07657084609019" y1="100.0" y2="165.70588853583268" /><line fill="none" stroke="rgb(0,0,250)" stroke-width="0.1" x1="100.0" x2="52.86032631740025" y1="100.0" y2="188.19212643483553" /><circle cx="46.07657084609019" cy="165.70588853583268" fill="rgb(250,0,0)" r="1" stroke="rgb(250,0,0)" stroke-width="0.3" /><circle cx="36.56067158363552" cy="177.30104533627377" fill="rgb(250,0,0)" r="1" stroke="rgb(250,0,0)" stroke-width="0.3" /><circle cx="52.86032631740025" cy="188.19212643483553" fill="rgb(250,0,0)" r="1" stroke="rgb(250,0,0)" stroke-width="0.3" /><circle cx="59.931277369790216" cy="174.96330746961019" fill="rgb(250,0,0)" r="1" stroke="rgb(250,0,0)" stroke-width="0.3" /><circle cx="100.0" cy="100.0" fill="rgb(250,0,0)" r="1" stroke="rgb(250,0,0)" stroke-width="0.3" /><path d="M 46.07657084609019 165.70588853583268 A 2000 2000 0.0 0,0 36.56067158363552 177.30104533627377 A 100.0 100.0 0.0 0,0 52.86032631740025 188.19212643483553 A 2000 2000 0.0 0,0 59.931277369790216 174.96330746961019 A 85.0 85.0 0.0 0,1 46.07657084609019 165.70588853583268" fill="rgb(0,0,0)" stroke="rgb(0,0,255)" stroke-width="0.5" /><line fill="none" stroke="rgb(0,0,250)" stroke-width="0.1" x1="100.0" x2="25.036692530389843" y1="100.0" y2="140.06872263020983" /><line fill="none" stroke="rgb(0,0,250)" stroke-width="0.1" x1="100.0" x2="22.698954663726283" y1="100.0" y2="163.43932841636453" /><circle cx="25.036692530389843" cy="140.06872263020983" fill="rgb(250,0,0)" r="1" stroke="rgb(250,0,0)" stroke-width="0.3" /><circle cx="11.807873565164513" cy="147.1396736825998" fill="rgb(250,0,0)" r="1" stroke="rgb(250,0,0)" stroke-width="0.3" /><circle cx="22.698954663726283" cy="163.43932841636453" fill="rgb(250,0,0)" r="1" stroke="rgb(250,0,0)" stroke-width="0.3" /><circle cx="34.294111464167344" cy="153.92342915390986" fill="rgb(250,0,0)" r="1" stroke="rgb(250,0,0)" stroke-width="0.3" /><circle cx="100.0" cy="100.0" fill="rgb(250,0,0)" r="1" stroke="rgb(250,0,0)" stroke-width="0.3" /><path d="M 25.036692530389843 140.06872263020983 A 2000 2000 0.0 0,0 11.807873565164513 147.1396736825998 A 100.0 100.0 0.0 0,0 22.698954663726283 163.43932841636453 A 2000 2000 0.0 0,0 34.294111464167344 153.92342915390986 A 85.0 85.0 0.0 0,1 25.036692530389843 140.06872263020983" fill="rgb(0,0,0)" stroke="rgb(0,0,255)" stroke-width="0.5" /><line fill="none" stroke="rgb(0,0,250)" stroke-width="0.1" x1="100.0" x2="15.409298232863264" y1="100.0" y2="108.33145692801266" /><line fill="none" stroke="rgb(0,0,250)" stroke-width="0.1" x1="100.0" x2="4.305966426779094" y1="100.0" y2="129.02846772544618" /><circle cx="15.409298232863264" cy="108.33145692801266" fill="rgb(250,0,0)" r="1" stroke="rgb(250,0,0)" stroke-width="0.3" /><circle cx="0.4815273327803027" cy="109.80171403295606" fill="rgb(250,0,0)" r="1" stroke="rgb(250,0,0)" stroke-width="0.3" /><circle cx="4.305966426779094" cy="129.02846772544618" fill="rgb(250,0,0)" r="1" stroke="rgb(250,0,0)" stroke-width="0.3" /><circle cx="18.660071462762232" cy="124.67419756662925" fill="rgb(250,0,0)" r="1" stroke="rgb(250,0,0)" stroke-width="0.3" /><circle cx="100.0" cy="100.0" fill="rgb(250,0,0)" r="1" stroke="rgb(250,0,0)" stroke-width="0.3" /><path d="M 15.409298232863264 108.33145692801266 A 2000 2000 0.0 0,0 0.4815273327803027 109.80171403295606 A 100.0 100.0 0.0 0,0 4.305966426779094 129.02846772544618 A 2000 2000 0.0 0,0 18.660071462762232 124.67419756662925 A 85.0 85.0 0.0 0,1 15.409298232863264 108.33145692801266" fill="rgb(0,0,0)" stroke="rgb(0,0,255)" stroke-width="0.5" /><line fill="none" stroke="rgb(0,0,250)" stroke-width="0.1" x1="100.0" x2="18.660071462762218" y1="100.0" y2="75.32580243337081" /><line fill="none" stroke="rgb(0,0,250)" stroke-width="0.1" x1="100.0" x2="0.4815273327803027" y1="100.0" y2="90.19828596704401" /><circle cx="18.660071462762218" cy="75.32580243337081" fill="rgb(250,0,0)" r="1" stroke="rgb(250,0,0)" stroke-width="0.3" /><circle cx="4.305966426779079" cy="70.9715322745539" fill="rgb(250,0,0)" r="1" stroke="rgb(250,0,0)" stroke-width="0.3" /><circle cx="0.4815273327803027" cy="90.19828596704401" fill="rgb(250,0,0)" r="1" stroke="rgb(250,0,0)" stroke-width="0.3" /><circle cx="15.409298232863264" cy="91.66854307198741" fill="rgb(250,0,0)" r="1" stroke="rgb(250,0,0)" stroke-width="0.3" /><circle cx="100.0" cy="100.0" fill="rgb(250,0,0)" r="1" stroke="rgb(250,0,0)" stroke-width="0.3" /><path d="M 18.660071462762218 75.32580243337081 A 2000 2000 0.0 0,0 4.305966426779079 70.9715322745539 A 100.0 100.0 0.0 0,0 0.4815273327803027 90.19828596704401 A 2000 2000 0.0 0,0 15.409298232863264 91.66854307198741 A 85.0 85.0 0.0 0,1 18.660071462762218 75.32580243337081" fill="rgb(0,0,0)" stroke="rgb(0,0,255)" stroke-width="0.5" /><line fill="none" stroke="rgb(0,0,250)" stroke-width="0.1" x1="100.0" x2="34.294111464167315" y1="100.0" y2="46.0765708460902" /><line fill="none" stroke="rgb(0,0,250)" stroke-width="0.1" x1="100.0" x2="11.807873565164485" y1="100.0" y2="52.86032631740026" /><circle cx="34.294111464167315" cy="46.0765708460902" fill="rgb(250,0,0)" r="1" stroke="rgb(250,0,0)" stroke-width="0.3" /><circle cx="22.69895466372624" cy="36.56067158363553" fill="rgb(250,0,0)" r="1" stroke="rgb(250,0,0)" stroke-width="0.3" /><circle cx="11.807873565164485" cy="52.86032631740026" fill="rgb(250,0,0)" r="1" stroke="rgb(250,0,0)" stroke-width="0.3" /><circle cx="25.036692530389814" cy="59.931277369790216" fill="rgb(250,0,0)" r="1" stroke="rgb(250,0,0)" stroke-width="0.3" /><circle cx="100.0" cy="100.0" fill="rgb(250,0,0)" r="1" stroke="rgb(250,0,0)" stroke-width="0.3" /><path d="M 34.294111464167315 46.0765708460902 A 2000 2000 0.0 0,0 22.69895466372624 36.56067158363553 A 100.0 100.0 0.0 0,0 11.807873565164485 52.86032631740026 A 2000 2000 0.0 0,0 25.036692530389814 59.931277369790216 A 85.0 85.0 0.0 0,1 34.294111464167315 46.0765708460902" fill="rgb(0,0,0)" stroke="rgb(0,0,255)" stroke-width="0.5" /><line fill="none" stroke="rgb(0,0,250)" stroke-width="0.1" x1="100.0" x2="59.931277369790166" y1="100.0" y2="25.036692530389843" /><line fill="none" stroke="rgb(0,0,250)" stroke-width="0.1" x1="100.0" x2="36.56067158363546" y1="100.0" y2="22.698954663726283" /><circle cx="59.931277369790166" cy="25.036692530389843" fill="rgb(250,0,0)" r="1" stroke="rgb(250,0,0)" stroke-width="0.3" /><circle cx="52.860326317400194" cy="11.807873565164513" fill="rgb(250,0,0)" r="1" stroke="rgb(250,0,0)" stroke-width="0.3" /><circle cx="36.56067158363546" cy="22.698954663726283" fill="rgb(250,0,0)" r="1" stroke="rgb(250,0,0)" stroke-width="0.3" /><circle cx="46.07657084609014" cy="34.294111464167344" fill="rgb(250,0,0)" r="1" stroke="rgb(250,0,0)" stroke-width="0.3" /><circle cx="100.0" cy="100.0" fill="rgb(250,0,0)" r="1" stroke="rgb(250,0,0)" stroke-width="0.3" /><path d="M 59.931277369790166 25.036692530389843 A 2000 2000 0.0 0,0 52.860326317400194 11.807873565164513 A 100.0 100.0 0.0 0,0 36.56067158363546 22.698954663726283 A 2000 2000 0.0 0,0 46.07657084609014 34.294111464167344 A 85.0 85.0 0.0 0,1 59.931277369790166 25.036692530389843" fill="rgb(0,0,0)" stroke="rgb(0,0,255)" stroke-width="0.5" /><line fill="none" stroke="rgb(0,0,250)" stroke-width="0.1" x1="100.0" x2="91.66854307198719" y1="100.0" y2="15.409298232863279" /><line fill="none" stroke="rgb(0,0,250)" stroke-width="0.1" x1="100.0" x2="70.97153227455365" y1="100.0" y2="4.30596642677915" /><circle cx="91.66854307198719" cy="15.409298232863279" fill="rgb(250,0,0)" r="1" stroke="rgb(250,0,0)" stroke-width="0.3" /><circle cx="90.19828596704376" cy="0.4815273327803311" fill="rgb(250,0,0)" r="1" stroke="rgb(250,0,0)" stroke-width="0.3" /><circle cx="70.97153227455365" cy="4.30596642677915" fill="rgb(250,0,0)" r="1" stroke="rgb(250,0,0)" stroke-width="0.3" /><circle cx="75.3258024333706" cy="18.660071462762275" fill="rgb(250,0,0)" r="1" stroke="rgb(250,0,0)" stroke-width="0.3" /><circle cx="100.0" cy="100.0" fill="rgb(250,0,0)" r="1" stroke="rgb(250,0,0)" stroke-width="0.3" /><path d="M 91.66854307198719 15.409298232863279 A 2000 2000 0.0 0,0 90.19828596704376 0.4815273327803311 A 100.0 100.0 0.0 0,0 70.97153227455365 4.30596642677915 A 2000 2000 0.0 0,0 75.3258024333706 18.660071462762275 A 85.0 85.0 0.0 0,1 91.66854307198719 15.409298232863279" fill="rgb(0,0,0)" stroke="rgb(0,0,255)" stroke-width="0.5" /><line fill="none" stroke="rgb(0,0,250)" stroke-width="0.1" x1="100.0" x2="124.67419756662933" y1="100.0" y2="18.66007146276226" /><line fill="none" stroke="rgb(0,0,250)" stroke-width="0.1" x1="100.0" x2="109.80171403295616" y1="100.0" y2="0.4815273327803169" /><circle cx="124.67419756662933" cy="18.66007146276226" fill="rgb(250,0,0)" r="1" stroke="rgb(250,0,0)" stroke-width="0.3" /><circle cx="129.02846772544626" cy="4.305966426779122" fill="rgb(250,0,0)" r="1" stroke="rgb(250,0,0)" stroke-width="0.3" /><circle cx="109.80171403295616" cy="0.4815273327803169" fill="rgb(250,0,0)" r="1" stroke="rgb(250,0,0)" stroke-width="0.3" /><circle cx="108.33145692801274" cy="15.409298232863264" fill="rgb(250,0,0)" r="1" stroke="rgb(250,0,0)" stroke-width="0.3" /><circle cx="100.0" cy="100.0" fill="rgb(250,0,0)" r="1" stroke="rgb(250,0,0)" stroke-width="0.3" /><path d="M 124.67419756662933 18.66007146276226 A 2000 2000 0.0 0,0 129.02846772544626 4.305966426779122 A 100.0 100.0 0.0 0,0 109.80171403295616 0.4815273327803169 A 2000 2000 0.0 0,0 108.33145692801274 15.409298232863264 A 85.0 85.0 0.0 0,1 124.67419756662933 18.66007146276226" fill="rgb(0,0,0)" stroke="rgb(0,0,255)" stroke-width="0.5" /><line fill="none" stroke="rgb(0,0,250)" stroke-width="0.1" x1="100.0" x2="153.9234291539098" y1="100.0" y2="34.294111464167315" /><line fill="none" stroke="rgb(0,0,250)" stroke-width="0.1" x1="100.0" x2="147.13967368259972" y1="100.0" y2="11.807873565164485" /><circle cx="153.9234291539098" cy="34.294111464167315" fill="rgb(250,0,0)" r="1" stroke="rgb(250,0,0)" stroke-width="0.3" /><circle cx="163.43932841636448" cy="22.69895466372624" fill="rgb(250,0,0)" r="1" stroke="rgb(250,0,0)" stroke-width="0.3" /><circle cx="147.13967368259972" cy="11.807873565164485" fill="rgb(250,0,0)" r="1" stroke="rgb(250,0,0)" stroke-width="0.3" /><circle cx="140.06872263020978" cy="25.036692530389814" fill="rgb(250,0,0)" r="1" stroke="rgb(250,0,0)" stroke-width="0.3" /><circle cx="100.0" cy="100.0" fill="rgb(250,0,0)" r="1" stroke="rgb(250,0,0)" stroke-width="0.3" /><path d="M 153.9234291539098 34.294111464167315 A 2000 2000 0.0 0,0 163.43932841636448 22.69895466372624 A 100.0 100.0 0.0 0,0 147.13967368259972 11.807873565164485 A 2000 2000 0.0 0,0 140.06872263020978 25.036692530389814 A 85.0 85.0 0.0 0,1 153.9234291539098 34.294111464167315" fill="rgb(0,0,0)" stroke="rgb(0,0,255)" stroke-width="0.5" /><line fill="none" stroke="rgb(0,0,250)" stroke-width="0.1" x1="100.0" x2="174.96330746961007" y1="100.0" y2="59.931277369790024" /><line fill="none" stroke="rgb(0,0,250)" stroke-width="0.1" x1="100.0" x2="177.3010453362736" y1="100.0" y2="36.56067158363532" /><circle cx="174.96330746961007" cy="59.931277369790024" fill="rgb(250,0,0)" r="1" stroke="rgb(250,0,0)" stroke-width="0.3" /><circle cx="188.1921264348354" cy="52.86032631740002" fill="rgb(250,0,0)" r="1" stroke="rgb(250,0,0)" stroke-width="0.3" /><circle cx="177.3010453362736" cy="36.56067158363532" fill="rgb(250,0,0)" r="1" stroke="rgb(250,0,0)" stroke-width="0.3" /><circle cx="165.70588853583257" cy="46.07657084609002" fill="rgb(250,0,0)" r="1" stroke="rgb(250,0,0)" stroke-width="0.3" /><circle cx="100.0" cy="100.0" fill="rgb(250,0,0)" r="1" stroke="rgb(250,0,0)" stroke-width="0.3" /><path d="M 174.96330746961007 59.931277369790024 A 2000 2000 0.0 0,0 188.1921264348354 52.86032631740002 A 100.0 100.0 0.0 0,0 177.3010453362736 36.56067158363532 A 2000 2000 0.0 0,0 165.70588853583257 46.07657084609002 A 85.0 85.0 0.0 0,1 174.96330746961007 59.931277369790024" fill="rgb(0,0,0)" stroke="rgb(0,0,255)" stroke-width="0.5" /></svg>