<?xml version="1.0" encoding="utf-8" ?>
<svg baseProfile="full" height="100%" version="1.1" width="100%" xmlns="http://www.w3.org/2000/svg" xmlns:ev="http://www.w3.org/2001/xml-events" xmlns:xlink="http://www.w3.org/1999/xlink"><defs /><circle cx="100.0" cy="100.0" fill="none" r="10.0" stroke="rgb(0,250,0)" stroke-width="0.3" /><circle cx="100.0" cy="100.0" fill="none" r="20.0" stroke="rgb(0,250,0)" stroke-width="0.3" /><circle cx="100.0" cy="100.0" fill="none" r="25.0" stroke="rgb(0,250,0)" stroke-width="0.3" /><line fill="none" stroke="rgb(0,0,250)" stroke-width="0.1" x1="100.0" x2="90.0" y1="100.0" y2="100.0" /><line fill="none" stroke="rgb(0,0,250)" stroke-width="0.1" x1="100.0" x2="120.0" y1="100.0" y2="100.0" /><circle cx="90.0" cy="100.0" fill="rgb(250,0,0)" r="1" stroke="rgb(250,0,0)" stroke-width="0.3" /><circle cx="80.0" cy="100.0" fill="rgb(250,0,0)" r="1" stroke="rgb(250,0,0)" stroke-width="0.3" /><circle cx="120.0" cy="100.0" fill="rgb(250,0,0)" r="1" stroke="rgb(250,0,0)" stroke-width="0.3" /><circle cx="110.0" cy="100.0" fill="rgb(250,0,0)" r="1" stroke="rgb(250,0,0)" stroke-width="0.3" /><circle cx="100.0" cy="100.0" fill="rgb(250,0,0)" r="1" stroke="rgb(250,0,0)" stroke-width="0.3" /><path d="M 90.0 100.0 A 2000 2000 0.0 0,0 80.0 100.0 A 20.0 20.0 0.0 0,0 120.0 100.0 A 2000 2000 0.0 0,0 110.0 100.0 A 10.0 10.0 0.0 0,1 90.0 100.0" fill="rgb(0,0,0)" stroke="rgb(0,0,255)" stroke-width="0.5" /><circle cx="100.0" cy="100.0" fill="none" r="25.0" stroke="rgb(0,250,0)" stroke-width="0.3" /><circle cx="100.0" cy="100.0" fill="none" r="35.0" stroke="rgb(0,250,0)" stroke-width="0.3" /><circle cx="100.0" cy="100.0" fill="none" r="40.0" stroke="rgb(0,250,0)" stroke-width="0.3" /><line fill="none" stroke="rgb(0,0,250)" stroke-width="0.1" x1="100.0" x2="100.0" y1="100.0" y2="75.0" /><line fill="none" stroke="rgb(0,0,250)" stroke-width="0.1" x1="100.0" x2="100.0" y1="100.0" y2="135.0" /><circle cx="100.0" cy="75.0" fill="rgb(250,0,0)" r="1" stroke="rgb(250,0,0)" stroke-width="0.3" /><circle cx="100.0" cy="65.0" fill="rgb(250,0,0)" r="1" stroke="rgb(250,0,0)" stroke-width="0.3" /><circle cx="100.0" cy="135.0" fill="rgb(250,0,0)" r="1" stroke="rgb(250,0,0)" stroke-width="0.3" /><circle cx="100.0" cy="125.0" fill="rgb(250,0,0)" r="1" stroke="rgb(250,0,0)" stroke-width="0.3" /><circle cx="100.0" cy="100.0" fill="rgb(250,0,0)" r="1" stroke="rgb(250,0,0)" stroke-width="0.3" /><path d="M 100.0 75.0 A 2000 2000 0.0 0,0 100.0 65.0 A 35.0 35.0 0.0 0,0 100.0 135.0 A 2000 2000 0.0 0,0 100.0 125.0 A 25.0 25.0 0.0 0,1 100.0 75.0" fill="rgb(0,0,0)" stroke="rgb(0,0,255)" stroke-width="0.5" /><circle cx="100.0" cy="100.0" fill="none" r="40.0" stroke="rgb(0,250,0)" stroke-width="0.3" /><circle cx="100.0" cy="100.0" fill="none" r="50.0" stroke="rgb(0,250,0)" stroke-width="0.3" /><circle cx="100.0" cy="100.0" fill="none" r="55.0" stroke="rgb(0,250,0)" stroke-width="0.3" /><line fill="none" stroke="rgb(0,0,250)" stroke-width="0.1" x1="100.0" x2="128.2842712474619" y1="100.0" y2="71.7157287525381" /><line fill="none" stroke="rgb(0,0,250)" stroke-width="0.1" x1="100.0" x2="64.64466094067262" y1="100.0" y2="64.64466094067262" /><circle cx="128.2842712474619" cy="71.7157287525381" fill="rgb(250,0,0)" r="1" stroke="rgb(250,0,0)" stroke-width="0.3" /><circle cx="135.35533905932738" cy="64.64466094067262" fill="rgb(250,0,0)" r="1" stroke="rgb(250,0,0)" stroke-width="0.3" /><circle cx="64.64466094067262" cy="64.64466094067262" fill="rgb(250,0,0)" r="1" stroke="rgb(250,0,0)" stroke-width="0.3" /><circle cx="71.7157287525381" cy="71.7157287525381" fill="rgb(250,0,0)" r="1" stroke="rgb(250,0,0)" stroke-width="0.3" /><circle cx="100.0" cy="100.0" fill="rgb(250,0,0)" r="1" stroke="rgb(250,0,0)" stroke-width="0.3" /><path d="M 128.2842712474619 71.7157287525381 A 2000 2000 0.0 0,0 135.35533905932738 64.64466094067262 A 50.0 50.0 0.0 0,0 64.64466094067262 64.64466094067262 A 2000 2000 0.0 0,0 71.7157287525381 71.7157287525381 A 40.0 40.0 0.0 0,1 128.2842712474619 71.7157287525381" fill="rgb(0,0,0)" stroke="rgb(0,0,255)" stroke-width="0.5" /><line fill="none" stroke="rgb(0,0,250)" stroke-width="0.1" x1="100.0" x2="71.71572875253813" y1="100.0" y2="128.28427124746193" /><line fill="none" stroke="rgb(0,0,250)" stroke-width="0.1" x1="100.0" x2="135.35533905932743" y1="100.0" y2="135.35533905932732" /><circle cx="71.71572875253813" cy="128.28427124746193" fill="rgb(250,0,0)" r="1" stroke="rgb(250,0,0)" stroke-width="0.3" /><circle cx="64.64466094067267" cy="135.35533905932743" fill="rgb(250,0,0)" r="1" stroke="rgb(250,0,0)" stroke-width="0.3" /><circle cx="135.35533905932743" cy="135.35533905932732" fill="rgb(250,0,0)" r="1" stroke="rgb(250,0,0)" stroke-width="0.3" /><circle cx="128.28427124746193" cy="128.28427124746187" fill="rgb(250,0,0)" r="1" stroke="rgb(250,0,0)" stroke-width="0.3" /><circle cx="100.0" cy="100.0" fill="rgb(250,0,0)" r="1" stroke="rgb(250,0,0)" stroke-width="0.3" /><path d="M 71.71572875253813 128.28427124746193 A 2000 2000 0.0 0,0 64.64466094067267 135.35533905932743 A 50.0 50.0 0.0 0,0 135.35533905932743 135.35533905932732 A 2000 2000 0.0 0,0 128.28427124746193 128.28427124746187 A 40.0 40.0 0.0 0,1 71.71572875253813 128.28427124746193" fill="rgb(0,0,0)" stroke="rgb(0,0,255)" stroke-width="0.5" /><circle cx="100.0" cy="100.0" fill="none" r="55.0" stroke="rgb(0,250,0)" stroke-width="0.3" /><circle cx="100.0" cy="100.0" fill="none" r="65.0" stroke="rgb(0,250,0)" stroke-width="0.3" /><circle cx="100.0" cy="100.0" fill="none" r="70.0" stroke="rgb(0,250,0)" stroke-width="0.3" /><line fill="none" stroke="rgb(0,0,250)" stroke-width="0.1" x1="100.0" x2="150.81337428812077" y1="100.0" y2="78.95241121992002" /><line fill="none" stroke="rgb(0,0,250)" stroke-width="0.1" x1="100.0" x2="124.87442310373079" y1="100.0" y2="39.94783038676635" /><circle cx="150.81337428812077" cy="78.95241121992002" fill="rgb(250,0,0)" r="1" stroke="rgb(250,0,0)" stroke-width="0.3" /><circle cx="160.05216961323362" cy="75.12557689626912" fill="rgb(250,0,0)" r="1" stroke="rgb(250,0,0)" stroke-width="0.3" /><circle cx="124.87442310373079" cy="39.94783038676635" fill="rgb(250,0,0)" r="1" stroke="rgb(250,0,0)" stroke-width="0.3" /><circle cx="121.0475887800799" cy="49.186625711879216" fill="rgb(250,0,0)" r="1" stroke="rgb(250,0,0)" stroke-width="0.3" /><circle cx="100.0" cy="100.0" fill="rgb(250,0,0)" r="1" stroke="rgb(250,0,0)" stroke-width="0.3" /><path d="M 150.81337428812077 78.95241121992002 A 2000 2000 0.0 0,0 160.05216961323362 75.12557689626912 A 65.0 65.0 0.0 0,0 124.87442310373079 39.94783038676635 A 2000 2000 0.0 0,0 121.0475887800799 49.186625711879216 A 55.0 55.0 0.0 0,1 150.81337428812077 78.95241121992002" fill="rgb(0,0,0)" stroke="rgb(0,0,255)" stroke-width="0.5" /><line fill="none" stroke="rgb(0,0,250)" stroke-width="0.1" x1="100.0" x2="121.04758878007998" y1="100.0" y2="150.81337428812077" /><line fill="none" stroke="rgb(0,0,250)" stroke-width="0.1" x1="100.0" x2="160.05216961323367" y1="100.0" y2="124.87442310373079" /><circle cx="121.04758878007998" cy="150.81337428812077" fill="rgb(250,0,0)" r="1" stroke="rgb(250,0,0)" stroke-width="0.3" /><circle cx="124.87442310373088" cy="160.05216961323362" fill="rgb(250,0,0)" r="1" stroke="rgb(250,0,0)" stroke-width="0.3" /><circle cx="160.05216961323367" cy="124.87442310373079" fill="rgb(250,0,0)" r="1" stroke="rgb(250,0,0)" stroke-width="0.3" /><circle cx="150.8133742881208" cy="121.0475887800799" fill="rgb(250,0,0)" r="1" stroke="rgb(250,0,0)" stroke-width="0.3" /><circle cx="100.0" cy="100.0" fill="rgb(250,0,0)" r="1" stroke="rgb(250,0,0)" stroke-width="0.3" /><path d="M 121.04758878007998 150.81337428812077 A 2000 2000 0.0 0,0 124.87442310373088 160.05216961323362 A 65.0 65.0 0.0 0,0 160.05216961323367 124.87442310373079 A 2000 2000 0.0 0,0 150.8133742881208 121.0475887800799 A 55.0 55.0 0.0 0,1 121.04758878007998 150.81337428812077" fill="rgb(0,0,0)" stroke="rgb(0,0,255)" stroke-width="0.5" /><line fill="none" stroke="rgb(0,0,250)" stroke-width="0.1" x1="100.0" x2="49.186625711879245" y1="100.0" y2="121.04758878007998" /><line fill="none" stroke="rgb(0,0,250)" stroke-width="0.1" x1="100.0" x2="75.12557689626915" y1="100.0" y2="160.05216961323364" /><circle cx="49.186625711879245" cy="121.04758878007998" fill="rgb(250,0,0)" r="1" stroke="rgb(250,0,0)" stroke-width="0.3" /><circle cx="39.947830386766384" cy="124.87442310373089" fill="rgb(250,0,0)" r="1" stroke="rgb(250,0,0)" stroke-width="0.3" /><circle cx="75.12557689626915" cy="160.05216961323364" fill="rgb(250,0,0)" r="1" stroke="rgb(250,0,0)" stroke-width="0.3" /><circle cx="78.95241121992005" cy="150.81337428812077" fill="rgb(250,0,0)" r="1" stroke="rgb(250,0,0)" stroke-width="0.3" /><circle cx="100.0" cy="100.0" fill="rgb(250,0,0)" r="1" stroke="rgb(250,0,0)" stroke-width="0.3" /><path d="M 49.186625711879245 121.04758878007998 A 2000 2000 0.0 0,0 39.947830386766384 124.87442310373089 A 65.0 65.0 0.0 0,0 75.12557689626915 160.05216961323364 A 2000 2000 0.0 0,0 78.95241121992005 150.81337428812077 A 55.0 55.0 0.0 0,1 49.186625711879245 121.04758878007998" fill="rgb(0,0,0)" stroke="rgb(0,0,255)" stroke-width="0.5" /><line fill="none" stroke="rgb(0,0,250)" stroke-width="0.1" x1="100.0" x2="78.95241121992002" y1="100.0" y2="49.186625711879245" /><line fill="none" stroke="rgb(0,0,250)" stroke-width="0.1" x1="100.0" x2="39.94783038676632" y1="100.0" y2="75.12557689626927" /><circle cx="78.95241121992002" cy="49.186625711879245" fill="rgb(250,0,0)" r="1" stroke="rgb(250,0,0)" stroke-width="0.3" /><circle cx="75.12557689626911" cy="39.947830386766384" fill="rgb(250,0,0)" r="1" stroke="rgb(250,0,0)" stroke-width="0.3" /><circle cx="39.94783038676632" cy="75.12557689626927" fill="rgb(250,0,0)" r="1" stroke="rgb(250,0,0)" stroke-width="0.3" /><circle cx="49.186625711879195" cy="78.95241121992015" fill="rgb(250,0,0)" r="1" stroke="rgb(250,0,0)" stroke-width="0.3" /><circle cx="100.0" cy="100.0" fill="rgb(250,0,0)" r="1" stroke="rgb(250,0,0)" stroke-width="0.3" /><path d="M 78.95241121992002 49.186625711879245 A 2000 2000 0.0 0,0 75.12557689626911 39.947830386766384 A 65.0 65.0 0.0 0,0 39.94783038676632 75.12557689626927 A 2000 2000 0.0 0,0 49.186625711879195 78.95241121992015 A 55.0 55.0 0.0 0,1 78.95241121992002 49.186625711879245" fill="rgb(0,0,0)" stroke="rgb(0,0,255)" stroke-width="0.5" /><circle cx="100.0" cy="100.0" fill="none" r="70.0" stroke="rgb(0,250,0)" stroke-width="0.3" /><circle cx="100.0" cy="100.0" fill="none" r="80.0" stroke="rgb(0,250,0)" stroke-width="0.3" /><circle cx="100.0" cy="100.0" fill="none" r="85.0" stroke="rgb(0,250,0)" stroke-width="0.3" /><line fill="none" stroke="rgb(0,0,250)" stroke-width="0.1" x1="100.0" x2="168.65496962822613" y1="100.0" y2="86.34367745887099" /><line fill="none" stroke="rgb(0,0,250)" stroke-width="0.1" x1="100.0" x2="166.51756898420362" y1="100.0" y2="55.554381358431826" /><circle cx="168.65496962822613" cy="86.34367745887099" fill="rgb(250,0,0)" r="1" stroke="rgb(250,0,0)" stroke-width="0.3" /><circle cx="178.4628224322584" cy="84.3927742387097" fill="rgb(250,0,0)" r="1" stroke="rgb(250,0,0)" stroke-width="0.3" /><circle cx="166.51756898420362" cy="55.554381358431826" fill="rgb(250,0,0)" r="1" stroke="rgb(250,0,0)" stroke-width="0.3" /><circle cx="158.20287286117815" cy="61.110083688627846" fill="rgb(250,0,0)" r="1" stroke="rgb(250,0,0)" stroke-width="0.3" /><circle cx="100.0" cy="100.0" fill="rgb(250,0,0)" r="1" stroke="rgb(250,0,0)" stroke-width="0.3" /><path d="M 168.65496962822613 86.34367745887099 A 2000 2000 0.0 0,0 178.4628224322584 84.3927742387097 A 80.0 80.0 0.0 0,0 166.51756898420362 55.554381358431826 A 2000 2000 0.0 0,0 158.20287286117815 61.110083688627846 A 70.0 70.0 0.0 0,1 168.65496962822613 86.34367745887099" fill="rgb(0,0,0)" stroke="rgb(0,0,255)" stroke-width="0.5" /><line fill="none" stroke="rgb(0,0,250)" stroke-width="0.1" x1="100.0" x2="158.20287286117818" y1="100.0" y2="138.88991631137213" /><line fill="none" stroke="rgb(0,0,250)" stroke-width="0.1" x1="100.0" x2="178.46282243225846" y1="100.0" y2="115.60722576129018" /><circle cx="158.20287286117818" cy="138.88991631137213" fill="rgb(250,0,0)" r="1" stroke="rgb(250,0,0)" stroke-width="0.3" /><circle cx="166.51756898420365" cy="144.44561864156816" fill="rgb(250,0,0)" r="1" stroke="rgb(250,0,0)" stroke-width="0.3" /><circle cx="178.46282243225846" cy="115.60722576129018" fill="rgb(250,0,0)" r="1" stroke="rgb(250,0,0)" stroke-width="0.3" /><circle cx="168.65496962822613" cy="113.65632254112892" fill="rgb(250,0,0)" r="1" stroke="rgb(250,0,0)" stroke-width="0.3" /><circle cx="100.0" cy="100.0" fill="rgb(250,0,0)" r="1" stroke="rgb(250,0,0)" stroke-width="0.3" /><path d="M 158.20287286117818 138.88991631137213 A 2000 2000 0.0 0,0 166.51756898420365 144.44561864156816 A 80.0 80.0 0.0 0,0 178.46282243225846 115.60722576129018 A 2000 2000 0.0 0,0 168.65496962822613 113.65632254112892 A 70.0 70.0 0.0 0,1 158.20287286117818 138.88991631137213" fill="rgb(0,0,0)" stroke="rgb(0,0,255)" stroke-width="0.5" /><line fill="none" stroke="rgb(0,0,250)" stroke-width="0.1" x1="100.0" x2="113.65632254112901" y1="100.0" y2="168.65496962822613" /><line fill="none" stroke="rgb(0,0,250)" stroke-width="0.1" x1="100.0" x2="144.4456186415682" y1="100.0" y2="166.51756898420362" /><circle cx="113.65632254112901" cy="168.65496962822613" fill="rgb(250,0,0)" r="1" stroke="rgb(250,0,0)" stroke-width="0.3" /><circle cx="115.6072257612903" cy="178.4628224322584" fill="rgb(250,0,0)" r="1" stroke="rgb(250,0,0)" stroke-width="0.3" /><circle cx="144.4456186415682" cy="166.51756898420362" fill="rgb(250,0,0)" r="1" stroke="rgb(250,0,0)" stroke-width="0.3" /><circle cx="138.88991631137216" cy="158.20287286117815" fill="rgb(250,0,0)" r="1" stroke="rgb(250,0,0)" stroke-width="0.3" /><circle cx="100.0" cy="100.0" fill="rgb(250,0,0)" r="1" stroke="rgb(250,0,0)" stroke-width="0.3" /><path d="M 113.65632254112901 168.65496962822613 A 2000 2000 0.0 0,0 115.6072257612903 178.4628224322584 A 80.0 80.0 0.0 0,0 144.4456186415682 166.51756898420362 A 2000 2000 0.0 0,0 138.88991631137216 158.20287286117815 A 70.0 70.0 0.0 0,1 113.65632254112901 168.65496962822613" fill="rgb(0,0,0)" stroke="rgb(0,0,255)" stroke-width="0.5" /><line fill="none" stroke="rgb(0,0,250)" stroke-width="0.1" x1="100.0" x2="61.11008368862788" y1="100.0" y2="158.2028728611782" /><line fill="none" stroke="rgb(0,0,250)" stroke-width="0.1" x1="100.0" x2="84.39277423870982" y1="100.0" y2="178.46282243225846" /><circle cx="61.11008368862788" cy="158.2028728611782" fill="rgb(250,0,0)" r="1" stroke="rgb(250,0,0)" stroke-width="0.3" /><circle cx="55.55438135843186" cy="166.51756898420365" fill="rgb(250,0,0)" r="1" stroke="rgb(250,0,0)" stroke-width="0.3" /><circle cx="84.39277423870982" cy="178.46282243225846" fill="rgb(250,0,0)" r="1" stroke="rgb(250,0,0)" stroke-width="0.3" /><circle cx="86.34367745887108" cy="168.65496962822613" fill="rgb(250,0,0)" r="1" stroke="rgb(250,0,0)" stroke-width="0.3" /><circle cx="100.0" cy="100.0" fill="rgb(250,0,0)" r="1" stroke="rgb(250,0,0)" stroke-width="0.3" /><path d="M 61.11008368862788 158.2028728611782 A 2000 2000 0.0 0,0 55.55438135843186 166.51756898420365 A 80.0 80.0 0.0 0,0 84.39277423870982 178.46282243225846 A 2000 2000 0.0 0,0 86.34367745887108 168.65496962822613 A 70.0 70.0 0.0 0,1 61.11008368862788 158.2028728611782" fill="rgb(0,0,0)" stroke="rgb(0,0,255)" stroke-width="0.5" /><line fill="none" stroke="rgb(0,0,250)" stroke-width="0.1" x1="100.0" x2="31.34503037177386" y1="100.0" y2="113.65632254112896" /><line fill="none" stroke="rgb(0,0,250)" stroke-width="0.1" x1="100.0" x2="33.482431015796394" y1="100.0" y2="144.4456186415682" /><circle cx="31.34503037177386" cy="113.65632254112896" fill="rgb(250,0,0)" r="1" stroke="rgb(250,0,0)" stroke-width="0.3" /><circle cx="21.53717756774155" cy="115.60722576129024" fill="rgb(250,0,0)" r="1" stroke="rgb(250,0,0)" stroke-width="0.3" /><circle cx="33.482431015796394" cy="144.4456186415682" fill="rgb(250,0,0)" r="1" stroke="rgb(250,0,0)" stroke-width="0.3" /><circle cx="41.79712713882184" cy="138.88991631137216" fill="rgb(250,0,0)" r="1" stroke="rgb(250,0,0)" stroke-width="0.3" /><circle cx="100.0" cy="100.0" fill="rgb(250,0,0)" r="1" stroke="rgb(250,0,0)" stroke-width="0.3" /><path d="M 31.34503037177386 113.65632254112896 A 2000 2000 0.0 0,0 21.53717756774155 115.60722576129024 A 80.0 80.0 0.0 0,0 33.482431015796394 144.4456186415682 A 2000 2000 0.0 0,0 41.79712713882184 138.88991631137216 A 70.0 70.0 0.0 0,1 31.34503037177386 113.65632254112896" fill="rgb(0,0,0)" stroke="rgb(0,0,255)" stroke-width="0.5" /><line fill="none" stroke="rgb(0,0,250)" stroke-width="0.1" x1="100.0" x2="41.79712713882181" y1="100.0" y2="61.11008368862788" /><line fill="none" stroke="rgb(0,0,250)" stroke-width="0.1" x1="100.0" x2="21.53717756774155" y1="100.0" y2="84.39277423870982" /><circle cx="41.79712713882181" cy="61.11008368862788" fill="rgb(250,0,0)" r="1" stroke="rgb(250,0,0)" stroke-width="0.3" /><circle cx="33.48243101579635" cy="55.55438135843186" fill="rgb(250,0,0)" r="1" stroke="rgb(250,0,0)" stroke-width="0.3" /><circle cx="21.53717756774155" cy="84.39277423870982" fill="rgb(250,0,0)" r="1" stroke="rgb(250,0,0)" stroke-width="0.3" /><circle cx="31.34503037177386" cy="86.3436774588711" fill="rgb(250,0,0)" r="1" stroke="rgb(250,0,0)" stroke-width="0.3" /><circle cx="100.0" cy="100.0" fill="rgb(250,0,0)" r="1" stroke="rgb(250,0,0)" stroke-width="0.3" /><path d="M 41.79712713882181 61.11008368862788 A 2000 2000 0.0 0,0 33.48243101579635 55.55438135843186 A 80.0 80.0 0.0 0,0 21.53717756774155 84.39277423870982 A 2000 2000 0.0 0,0 31.34503037177386 86.3436774588711 A 70.0 70.0 0.0 0,1 41.79712713882181 61.11008368862788" fill="rgb(0,0,0)" stroke="rgb(0,0,255)" stroke-width="0.5" /><line fill="none" stroke="rgb(0,0,250)" stroke-width="0.1" x1="100.0" x2="86.34367745887091" y1="100.0" y2="31.345030371773888" /><line fill="none" stroke="rgb(0,0,250)" stroke-width="0.1" x1="100.0" x2="55.55438135843169" y1="100.0" y2="33.482431015796465" /><circle cx="86.34367745887091" cy="31.345030371773888" fill="rgb(250,0,0)" r="1" stroke="rgb(250,0,0)" stroke-width="0.3" /><circle cx="84.39277423870962" cy="21.537177567741594" fill="rgb(250,0,0)" r="1" stroke="rgb(250,0,0)" stroke-width="0.3" /><circle cx="55.55438135843169" cy="33.482431015796465" fill="rgb(250,0,0)" r="1" stroke="rgb(250,0,0)" stroke-width="0.3" /><circle cx="61.11008368862773" cy="41.797127138821914" fill="rgb(250,0,0)" r="1" stroke="rgb(250,0,0)" stroke-width="0.3" /><circle cx="100.0" cy="100.0" fill="rgb(250,0,0)" r="1" stroke="rgb(250,0,0)" stroke-width="0.3" /><path d="M 86.34367745887091 31.345030371773888 A 2000 2000 0.0 0,0 84.39277423870962 21.537177567741594 A 80.0 80.0 0.0 0,0 55.55438135843169 33.482431015796465 A 2000 2000 0.0 0,0 61.11008368862773 41.797127138821914 A 70.0 70.0 0.0 0,1 86.34367745887091 31.345030371773888" fill="rgb(0,0,0)" stroke="rgb(0,0,255)" stroke-width="0.5" /><line fill="none" stroke="rgb(0,0,250)" stroke-width="0.1" x1="100.0" x2="138.8899163113721" y1="100.0" y2="41.79712713882181" /><line fill="none" stroke="rgb(0,0,250)" stroke-width="0.1" x1="100.0" x2="115.60722576129018" y1="100.0" y2="21.53717756774155" /><circle cx="138.8899163113721" cy="41.79712713882181" fill="rgb(250,0,0)" r="1" stroke="rgb(250,0,0)" stroke-width="0.3" /><circle cx="144.44561864156813" cy="33.48243101579635" fill="rgb(250,0,0)" r="1" stroke="rgb(250,0,0)" stroke-width="0.3" /><circle cx="115.60722576129018" cy="21.53717756774155" fill="rgb(250,0,0)" r="1" stroke="rgb(250,0,0)" stroke-width="0.3" /><circle cx="113.6563225411289" cy="31.34503037177386" fill="rgb(250,0,0)" r="1" stroke="rgb(250,0,0)" stroke-width="0.3" /><circle cx="100.0" cy="100.0" fill="rgb(250,0,0)" r="1" stroke="rgb(250,0,0)" stroke-width="0.3" /><path d="M 138.8899163113721 41.79712713882181 A 2000 2000 0.0 0,0 144.44561864156813 33.48243101579635 A 80.0 80.0 0.0 0,0 115.60722576129018 21.53717756774155 A 2000 2000 0.0 0,0 113.6563225411289 31.34503037177386 A 70.0 70.0 0.0 0,1 138.8899163113721 41.79712713882181" fill="rgb(0,0,0)" stroke="rgb(0,0,255)" stroke-width="0.5" /><circle cx="100.0" cy="100.0" fill="none" r="85.0" stroke="rgb(0,250,0)" stroke-width="0.3" /><circle cx="100.0" cy="100.0" fill="none" r="95.0" stroke="rgb(0,250,0)" stroke-width="0.3" /><circle cx="100.0" cy="100.0" fill="none" r="100.0" stroke="rgb(0,250,0)" stroke-width="0.3" /><line fill="none" stroke="rgb(0,0,250)" stroke-width="0.1" x1="100.0" x2="184.59070176713675" y1="100.0" y2="91.66854307198729" /><line fill="none" stroke="rgb(0,0,250)" stroke-width="0.1" x1="100.0" x2="190.9093318945598" y1="100.0" y2="72.42295566082598" /><circle cx="184.59070176713675" cy="91.66854307198729" fill="rgb(250,0,0)" r="1" stroke="rgb(250,0,0)" stroke-width="0.3" /><circle cx="194.54254903385868" cy="90.68837166869167" fill="rgb(250,0,0)" r="1" stroke="rgb(250,0,0)" stroke-width="0.3" /><circle cx="190.9093318945598" cy="72.42295566082598" fill="rgb(250,0,0)" r="1" stroke="rgb(250,0,0)" stroke-width="0.3" /><circle cx="181.3399285372377" cy="75.32580243337061" fill="rgb(250,0,0)" r="1" stroke="rgb(250,0,0)" stroke-width="0.3" /><circle cx="100.0" cy="100.0" fill="rgb(250,0,0)" r="1" stroke="rgb(250,0,0)" stroke-width="0.3" /><path d="M 184.59070176713675 91.66854307198729 A 2000 2000 0.0 0,0 194.54254903385868 90.68837166869167 A 95.0 95.0 0.0 0,0 190.9093318945598 72.42295566082598 A 2000 2000 0.0 0,0 181.3399285372377 75.32580243337061 A 85.0 85.0 0.0 0,1 184.59070176713675 91.66854307198729" fill="rgb(0,0,0)" stroke="rgb(0,0,255)" stroke-width="0.5" /><line fill="none" stroke="rgb(0,0,250)" stroke-width="0.1" x1="100.0" x2="181.33992853723777" y1="100.0" y2="124.6741975666292" /><line fill="none" stroke="rgb(0,0,250)" stroke-width="0.1" x1="100.0" x2="194.54254903385873" y1="100.0" y2="109.31162833130811" /><circle cx="181.33992853723777" cy="124.6741975666292" fill="rgb(250,0,0)" r="1" stroke="rgb(250,0,0)" stroke-width="0.3" /><circle cx="190.9093318945599" cy="127.57704433917381" fill="rgb(250,0,0)" r="1" stroke="rgb(250,0,0)" stroke-width="0.3" /><circle cx="194.54254903385873" cy="109.31162833130811" fill="rgb(250,0,0)" r="1" stroke="rgb(250,0,0)" stroke-width="0.3" /><circle cx="184.59070176713675" cy="108.33145692801253" fill="rgb(250,0,0)" r="1" stroke="rgb(250,0,0)" stroke-width="0.3" /><circle cx="100.0" cy="100.0" fill="rgb(250,0,0)" r="1" stroke="rgb(250,0,0)" stroke-width="0.3" /><path d="M 181.33992853723777 124.6741975666292 A 2000 2000 0.0 0,0 190.9093318945599 127.57704433917381 A 95.0 95.0 0.0 0,0 194.54254903385873 109.31162833130811 A 2000 2000 0.0 0,0 184.59070176713675 108.33145692801253 A 85.0 85.0 0.0 0,1 181.33992853723777 124.6741975666292" fill="rgb(0,0,0)" stroke="rgb(0,0,255)" stroke-width="0.5" /><line fill="none" stroke="rgb(0,0,250)" stroke-width="0.1" x1="100.0" x2="165.70588853583268" y1="100.0" y2="153.9234291539098" /><line fill="none" stroke="rgb(0,0,250)" stroke-width="0.1" x1="100.0" x2="183.78252011309377" y1="100.0" y2="144.7826899984697" /><circle cx="165.70588853583268" cy="153.9234291539098" fill="rgb(250,0,0)" r="1" stroke="rgb(250,0,0)" stroke-width="0.3" /><circle cx="173.43599306946004" cy="160.26736199554625" fill="rgb(250,0,0)" r="1" stroke="rgb(250,0,0)" stroke-width="0.3" /><circle cx="183.78252011309377" cy="144.7826899984697" fill="rgb(250,0,0)" r="1" stroke="rgb(250,0,0)" stroke-width="0.3" /><circle cx="174.9633074696102" cy="140.06872263020972" fill="rgb(250,0,0)" r="1" stroke="rgb(250,0,0)" stroke-width="0.3" /><circle cx="100.0" cy="100.0" fill="rgb(250,0,0)" r="1" stroke="rgb(250,0,0)" stroke-width="0.3" /><path d="M 165.70588853583268 153.9234291539098 A 2000 2000 0.0 0,0 173.43599306946004 160.26736199554625 A 95.0 95.0 0.0 0,0 183.78252011309377 144.7826899984697 A 2000 2000 0.0 0,0 174.9633074696102 140.06872263020972 A 85.0 85.0 0.0 0,1 165.70588853583268 153.9234291539098" fill="rgb(0,0,0)" stroke="rgb(0,0,255)" stroke-width="0.5" /><line fill="none" stroke="rgb(0,0,250)" stroke-width="0.1" x1="100.0" x2="140.06872263020983" y1="100.0" y2="174.96330746961016" /><line fill="none" stroke="rgb(0,0,250)" stroke-width="0.1" x1="100.0" x2="160.26736199554637" y1="100.0" y2="173.43599306945998" /><circle cx="140.06872263020983" cy="174.96330746961016" fill="rgb(250,0,0)" r="1" stroke="rgb(250,0,0)" stroke-width="0.3" /><circle cx="144.7826899984698" cy="183.7825201130937" fill="rgb(250,0,0)" r="1" stroke="rgb(250,0,0)" stroke-width="0.3" /><circle cx="160.26736199554637" cy="173.43599306945998" fill="rgb(250,0,0)" r="1" stroke="rgb(250,0,0)" stroke-width="0.3" /><circle cx="153.92342915390992" cy="165.70588853583263" fill="rgb(250,0,0)" r="1" stroke="rgb(250,0,0)" stroke-width="0.3" /><circle cx="100.0" cy="100.0" fill="rgb(250,0,0)" r="1" stroke="rgb(250,0,0)" stroke-width="0.3" /><path d="M 140.06872263020983 174.96330746961016 A 2000 2000 0.0 0,0 144.7826899984698 183.7825201130937 A 95.0 95.0 0.0 0,0 160.26736199554637 173.43599306945998 A 2000 2000 0.0 0,0 153.92342915390992 165.70588853583263 A 85.0 85.0 0.0 0,1 140.06872263020983 174.96330746961016" fill="rgb(0,0,0)" stroke="rgb(0,0,255)" stroke-width="0.5" /><line fill="none" stroke="rgb(0,0,250)" stroke-width="0.1" x1="100.0" x2="108.33145692801273" y1="100.0" y2="184.59070176713675" /><line fill="none" stroke="rgb(0,0,250)" stroke-width="0.1" x1="100.0" x2="127.57704433917402" y1="100.0" y2="190.9093318945598" /><circle cx="108.33145692801273" cy="184.59070176713675" fill="rgb(250,0,0)" r="1" stroke="rgb(250,0,0)" stroke-width="0.3" /><circle cx="109.31162833130834" cy="194.54254903385868" fill="rgb(250,0,0)" r="1" stroke="rgb(250,0,0)" stroke-width="0.3" /><circle cx="127.57704433917402" cy="190.9093318945598" fill="rgb(250,0,0)" r="1" stroke="rgb(250,0,0)" stroke-width="0.3" /><circle cx="124.67419756662939" cy="181.3399285372377" fill="rgb(250,0,0)" r="1" stroke="rgb(250,0,0)" stroke-width="0.3" /><circle cx="100.0" cy="100.0" fill="rgb(250,0,0)" r="1" stroke="rgb(250,0,0)" stroke-width="0.3" /><path d="M 108.33145692801273 184.59070176713675 A 2000 2000 0.0 0,0 109.31162833130834 194.54254903385868 A 95.0 95.0 0.0 0,0 127.57704433917402 190.9093318945598 A 2000 2000 0.0 0,0 124.67419756662939 181.3399285372377 A 85.0 85.0 0.0 0,1 108.33145692801273 184.59070176713675" fill="rgb(0,0,0)" stroke="rgb(0,0,255)" stroke-width="0.5" /><line fill="none" stroke="rgb(0,0,250)" stroke-width="0.1" x1="100.0" x2="75.32580243337081" y1="100.0" y2="181.33992853723777" /><line fill="none" stroke="rgb(0,0,250)" stroke-width="0.1" x1="100.0" x2="90.68837166869189" y1="100.0" y2="194.54254903385873" /><circle cx="75.32580243337081" cy="181.33992853723777" fill="rgb(250,0,0)" r="1" stroke="rgb(250,0,0)" stroke-width="0.3" /><circle cx="72.42295566082619" cy="190.9093318945599" fill="rgb(250,0,0)" r="1" stroke="rgb(250,0,0)" stroke-width="0.3" /><circle cx="90.68837166869189" cy="194.54254903385873" fill="rgb(250,0,0)" r="1" stroke="rgb(250,0,0)" stroke-width="0.3" /><circle cx="91.66854307198747" cy="184.59070176713675" fill="rgb(250,0,0)" r="1" stroke="rgb(250,0,0)" stroke-width="0.3" /><circle cx="100.0" cy="100.0" fill="rgb(250,0,0)" r="1" stroke="rgb(250,0,0)" stroke-width="0.3" /><path d="M 75.32580243337081 181.33992853723777 A 2000 2000 0.0 0,0 72.42295566082619 190.9093318945599 A 95.0 95.0 0.0 0,0 90.68837166869189 194.54254903385873 A 2000 2000 0.0 0,0 91.66854307198747 184.59070176713675 A 85.0 85.0 0.0 0,1 75.32580243337081 181.33992853723777" fill="rgb(0,0,0)" stroke="rgb(0,0,255)" stroke-width="0.5" /><line fill="none" stroke="rgb(0,0,250)" stroke-width="0.1" x1="100.0" x2="46.07657084609019" y1="100.0" y2="165.70588853583268" /><line fill="none" stroke="rgb(0,0,250)" stroke-width="0.1" x1="100.0" x2="55.21731000153024" y1="100.0" y2="183.78252011309374" /><circle cx="46.07657084609019" cy="165.70588853583268" fill="rgb(250,0,0)" r="1" stroke="rgb(250,0,0)" stroke-width="0.3" /><circle cx="39.73263800445374" cy="173.43599306946007" fill="rgb(250,0,0)" r="1" stroke="rgb(250,0,0)" stroke-width="0.3" /><circle cx="55.21731000153024" cy="183.78252011309374" fill="rgb(250,0,0)" r="1" stroke="rgb(250,0,0)" stroke-width="0.3" /><circle cx="59.931277369790216" cy="174.96330746961019" fill="rgb(250,0,0)" r="1" stroke="rgb(250,0,0)" stroke-width="0.3" /><circle cx="100.0" cy="100.0" fill="rgb(250,0,0)" r="1" stroke="rgb(250,0,0)" stroke-width="0.3" /><path d="M 46.07657084609019 165.70588853583268 A 2000 2000 0.0 0,0 39.73263800445374 173.43599306946007 A 95.0 95.0 0.0 0,0 55.21731000153024 183.78252011309374 A 2000 2000 0.0 0,0 59.931277369790216 174.96330746961019 A 85.0 85.0 0.0 0,1 46.07657084609019 165.70588853583268" fill="rgb(0,0,0)" stroke="rgb(0,0,255)" stroke-width="0.5" /><line fill="none" stroke="rgb(0,0,250)" stroke-width="0.1" x1="100.0" x2="25.036692530389843" y1="100.0" y2="140.06872263020983" /><line fill="none" stroke="rgb(0,0,250)" stroke-width="0.1" x1="100.0" x2="26.564006930539975" y1="100.0" y2="160.2673619955463" /><circle cx="25.036692530389843" cy="140.06872263020983" fill="rgb(250,0,0)" r="1" stroke="rgb(250,0,0)" stroke-width="0.3" /><circle cx="16.21747988690629" cy="144.7826899984698" fill="rgb(250,0,0)" r="1" stroke="rgb(250,0,0)" stroke-width="0.3" /><circle cx="26.564006930539975" cy="160.2673619955463" fill="rgb(250,0,0)" r="1" stroke="rgb(250,0,0)" stroke-width="0.3" /><circle cx="34.294111464167344" cy="153.92342915390986" fill="rgb(250,0,0)" r="1" stroke="rgb(250,0,0)" stroke-width="0.3" /><circle cx="100.0" cy="100.0" fill="rgb(250,0,0)" r="1" stroke="rgb(250,0,0)" stroke-width="0.3" /><path d="M 25.036692530389843 140.06872263020983 A 2000 2000 0.0 0,0 16.21747988690629 144.7826899984698 A 95.0 95.0 0.0 0,0 26.564006930539975 160.2673619955463 A 2000 2000 0.0 0,0 34.294111464167344 153.92342915390986 A 85.0 85.0 0.0 0,1 25.036692530389843 140.06872263020983" fill="rgb(0,0,0)" stroke="rgb(0,0,255)" stroke-width="0.5" /><line fill="none" stroke="rgb(0,0,250)" stroke-width="0.1" x1="100.0" x2="15.409298232863264" y1="100.0" y2="108.33145692801266" /><line fill="none" stroke="rgb(0,0,250)" stroke-width="0.1" x1="100.0" x2="9.090668105440145" y1="100.0" y2="127.57704433917387" /><circle cx="15.409298232863264" cy="108.33145692801266" fill="rgb(250,0,0)" r="1" stroke="rgb(250,0,0)" stroke-width="0.3" /><circle cx="5.457450966141295" cy="109.31162833130826" fill="rgb(250,0,0)" r="1" stroke="rgb(250,0,0)" stroke-width="0.3" /><circle cx="9.090668105440145" cy="127.57704433917387" fill="rgb(250,0,0)" r="1" stroke="rgb(250,0,0)" stroke-width="0.3" /><circle cx="18.660071462762232" cy="124.67419756662925" fill="rgb(250,0,0)" r="1" stroke="rgb(250,0,0)" stroke-width="0.3" /><circle cx="100.0" cy="100.0" fill="rgb(250,0,0)" r="1" stroke="rgb(250,0,0)" stroke-width="0.3" /><path d="M 15.409298232863264 108.33145692801266 A 2000 2000 0.0 0,0 5.457450966141295 109.31162833130826 A 95.0 95.0 0.0 0,0 9.090668105440145 127.57704433917387 A 2000 2000 0.0 0,0 18.660071462762232 124.67419756662925 A 85.0 85.0 0.0 0,1 15.409298232863264 108.33145692801266" fill="rgb(0,0,0)" stroke="rgb(0,0,255)" stroke-width="0.5" /><line fill="none" stroke="rgb(0,0,250)" stroke-width="0.1" x1="100.0" x2="18.660071462762218" y1="100.0" y2="75.32580243337081" /><line fill="none" stroke="rgb(0,0,250)" stroke-width="0.1" x1="100.0" x2="5.457450966141295" y1="100.0" y2="90.68837166869181" /><circle cx="18.660071462762218" cy="75.32580243337081" fill="rgb(250,0,0)" r="1" stroke="rgb(250,0,0)" stroke-width="0.3" /><circle cx="9.090668105440116" cy="72.4229556608262" fill="rgb(250,0,0)" r="1" stroke="rgb(250,0,0)" stroke-width="0.3" /><circle cx="5.457450966141295" cy="90.68837166869181" fill="rgb(250,0,0)" r="1" stroke="rgb(250,0,0)" stroke-width="0.3" /><circle cx="15.409298232863264" cy="91.66854307198741" fill="rgb(250,0,0)" r="1" stroke="rgb(250,0,0)" stroke-width="0.3" /><circle cx="100.0" cy="100.0" fill="rgb(250,0,0)" r="1" stroke="rgb(250,0,0)" stroke-width="0.3" /><path d="M 18.660071462762218 75.32580243337081 A 2000 2000 0.0 0,0 9.090668105440116 72.4229556608262 A 95.0 95.0 0.0 0,0 5.457450966141295 90.68837166869181 A 2000 2000 0.0 0,0 15.409298232863264 91.66854307198741 A 85.0 85.0 0.0 0,1 18.660071462762218 75.32580243337081" fill="rgb(0,0,0)" stroke="rgb(0,0,255)" stroke-width="0.5" /><line fill="none" stroke="rgb(0,0,250)" stroke-width="0.1" x1="100.0" x2="34.294111464167315" y1="100.0" y2="46.0765708460902" /><line fill="none" stroke="rgb(0,0,250)" stroke-width="0.1" x1="100.0" x2="16.21747988690626" y1="100.0" y2="55.217310001530244" /><circle cx="34.294111464167315" cy="46.0765708460902" fill="rgb(250,0,0)" r="1" stroke="rgb(250,0,0)" stroke-width="0.3" /><circle cx="26.564006930539932" cy="39.732638004453754" fill="rgb(250,0,0)" r="1" stroke="rgb(250,0,0)" stroke-width="0.3" /><circle cx="16.21747988690626" cy="55.217310001530244" fill="rgb(250,0,0)" r="1" stroke="rgb(250,0,0)" stroke-width="0.3" /><circle cx="25.036692530389814" cy="59.931277369790216" fill="rgb(250,0,0)" r="1" stroke="rgb(250,0,0)" stroke-width="0.3" /><circle cx="100.0" cy="100.0" fill="rgb(250,0,0)" r="1" stroke="rgb(250,0,0)" stroke-width="0.3" /><path d="M 34.294111464167315 46.0765708460902 A 2000 2000 0.0 0,0 26.564006930539932 39.732638004453754 A 95.0 95.0 0.0 0,0 16.21747988690626 55.217310001530244 A 2000 2000 0.0 0,0 25.036692530389814 59.931277369790216 A 85.0 85.0 0.0 0,1 34.294111464167315 46.0765708460902" fill="rgb(0,0,0)" stroke="rgb(0,0,255)" stroke-width="0.5" /><line fill="none" stroke="rgb(0,0,250)" stroke-width="0.1" x1="100.0" x2="59.931277369790166" y1="100.0" y2="25.036692530389843" /><line fill="none" stroke="rgb(0,0,250)" stroke-width="0.1" x1="100.0" x2="39.73263800445369" y1="100.0" y2="26.564006930539975" /><circle cx="59.931277369790166" cy="25.036692530389843" fill="rgb(250,0,0)" r="1" stroke="rgb(250,0,0)" stroke-width="0.3" /><circle cx="55.21731000153018" cy="16.21747988690629" fill="rgb(250,0,0)" r="1" stroke="rgb(250,0,0)" stroke-width="0.3" /><circle cx="39.73263800445369" cy="26.564006930539975" fill="rgb(250,0,0)" r="1" stroke="rgb(250,0,0)" stroke-width="0.3" /><circle cx="46.07657084609014" cy="34.294111464167344" fill="rgb(250,0,0)" r="1" stroke="rgb(250,0,0)" stroke-width="0.3" /><circle cx="100.0" cy="100.0" fill="rgb(250,0,0)" r="1" stroke="rgb(250,0,0)" stroke-width="0.3" /><path d="M 59.931277369790166 25.036692530389843 A 2000 2000 0.0 0,0 55.21731000153018 16.21747988690629 A 95.0 95.0 0.0 0,0 39.73263800445369 26.564006930539975 A 2000 2000 0.0 0,0 46.07657084609014 34.294111464167344 A 85.0 85.0 0.0 0,1 59.931277369790166 25.036692530389843" fill="rgb(0,0,0)" stroke="rgb(0,0,255)" stroke-width="0.5" /><line fill="none" stroke="rgb(0,0,250)" stroke-width="0.1" x1="100.0" x2="91.66854307198719" y1="100.0" y2="15.409298232863279" /><line fill="none" stroke="rgb(0,0,250)" stroke-width="0.1" x1="100.0" x2="72.42295566082596" y1="100.0" y2="9.090668105440187" /><circle cx="91.66854307198719" cy="15.409298232863279" fill="rgb(250,0,0)" r="1" stroke="rgb(250,0,0)" stroke-width="0.3" /><circle cx="90.68837166869156" cy="5.457450966141309" fill="rgb(250,0,0)" r="1" stroke="rgb(250,0,0)" stroke-width="0.3" /><circle cx="72.42295566082596" cy="9.090668105440187" fill="rgb(250,0,0)" r="1" stroke="rgb(250,0,0)" stroke-width="0.3" /><circle cx="75.3258024333706" cy="18.660071462762275" fill="rgb(250,0,0)" r="1" stroke="rgb(250,0,0)" stroke-width="0.3" /><circle cx="100.0" cy="100.0" fill="rgb(250,0,0)" r="1" stroke="rgb(250,0,0)" stroke-width="0.3" /><path d="M 91.66854307198719 15.409298232863279 A 2000 2000 0.0 0,0 90.68837166869156 5.457450966141309 A 95.0 95.0 0.0 0,0 72.42295566082596 9.090668105440187 A 2000 2000 0.0 0,0 75.3258024333706 18.660071462762275 A 85.0 85.0 0.0 0,1 91.66854307198719 15.409298232863279" fill="rgb(0,0,0)" stroke="rgb(0,0,255)" stroke-width="0.5" /><line fill="none" stroke="rgb(0,0,250)" stroke-width="0.1" x1="100.0" x2="124.67419756662933" y1="100.0" y2="18.66007146276226" /><line fill="none" stroke="rgb(0,0,250)" stroke-width="0.1" x1="100.0" x2="109.31162833130836" y1="100.0" y2="5.457450966141309" /><circle cx="124.67419756662933" cy="18.66007146276226" fill="rgb(250,0,0)" r="1" stroke="rgb(250,0,0)" stroke-width="0.3" /><circle cx="127.57704433917395" cy="9.090668105440173" fill="rgb(250,0,0)" r="1" stroke="rgb(250,0,0)" stroke-width="0.3" /><circle cx="109.31162833130836" cy="5.457450966141309" fill="rgb(250,0,0)" r="1" stroke="rgb(250,0,0)" stroke-width="0.3" /><circle cx="108.33145692801274" cy="15.409298232863264" fill="rgb(250,0,0)" r="1" stroke="rgb(250,0,0)" stroke-width="0.3" /><circle cx="100.0" cy="100.0" fill="rgb(250,0,0)" r="1" stroke="rgb(250,0,0)" stroke-width="0.3" /><path d="M 124.67419756662933 18.66007146276226 A 2000 2000 0.0 0,0 127.57704433917395 9.090668105440173 A 95.0 95.0 0.0 0,0 109.31162833130836 5.457450966141309 A 2000 2000 0.0 0,0 108.33145692801274 15.409298232863264 A 85.0 85.0 0.0 0,1 124.67419756662933 18.66007146276226" fill="rgb(0,0,0)" stroke="rgb(0,0,255)" stroke-width="0.5" /><line fill="none" stroke="rgb(0,0,250)" stroke-width="0.1" x1="100.0" x2="153.9234291539098" y1="100.0" y2="34.294111464167315" /><line fill="none" stroke="rgb(0,0,250)" stroke-width="0.1" x1="100.0" x2="144.78268999846975" y1="100.0" y2="16.21747988690626" /><circle cx="153.9234291539098" cy="34.294111464167315" fill="rgb(250,0,0)" r="1" stroke="rgb(250,0,0)" stroke-width="0.3" /><circle cx="160.26736199554625" cy="26.564006930539932" fill="rgb(250,0,0)" r="1" stroke="rgb(250,0,0)" stroke-width="0.3" /><circle cx="144.78268999846975" cy="16.21747988690626" fill="rgb(250,0,0)" r="1" stroke="rgb(250,0,0)" stroke-width="0.3" /><circle cx="140.06872263020978" cy="25.036692530389814" fill="rgb(250,0,0)" r="1" stroke="rgb(250,0,0)" stroke-width="0.3" /><circle cx="100.0" cy="100.0" fill="rgb(250,0,0)" r="1" stroke="rgb(250,0,0)" stroke-width="0.3" /><path d="M 153.9234291539098 34.294111464167315 A 2000 2000 0.0 0,0 160.26736199554625 26.564006930539932 A 95.0 95.0 0.0 0,0 144.78268999846975 16.21747988690626 A 2000 2000 0.0 0,0 140.06872263020978 25.036692530389814 A 85.0 85.0 0.0 0,1 153.9234291539098 34.294111464167315" fill="rgb(0,0,0)" stroke="rgb(0,0,255)" stroke-width="0.5" /><line fill="none" stroke="rgb(0,0,250)" stroke-width="0.1" x1="100.0" x2="174.96330746961007" y1="100.0" y2="59.931277369790024" /><line fill="none" stroke="rgb(0,0,250)" stroke-width="0.1" x1="100.0" x2="173.43599306945993" y1="100.0" y2="39.732638004453555" /><circle cx="174.96330746961007" cy="59.931277369790024" fill="rgb(250,0,0)" r="1" stroke="rgb(250,0,0)" stroke-width="0.3" /><circle cx="183.78252011309363" cy="55.217310001530024" fill="rgb(250,0,0)" r="1" stroke="rgb(250,0,0)" stroke-width="0.3" /><circle cx="173.43599306945993" cy="39.732638004453555" fill="rgb(250,0,0)" r="1" stroke="rgb(250,0,0)" stroke-width="0.3" /><circle cx="165.70588853583257" cy="46.07657084609002" fill="rgb(250,0,0)" r="1" stroke="rgb(250,0,0)" stroke-width="0.3" /><circle cx="100.0" cy="100.0" fill="rgb(250,0,0)" r="1" stroke="rgb(250,0,0)" stroke-width="0.3" /><path d="M 174.96330746961007 59.931277369790024 A 2000 2000 0.0 0,0 183.78252011309363 55.217310001530024 A 95.0 95.0 0.0 0,0 173.43599306945993 39.732638004453555 A 2000 2000 0.0 0,0 165.70588853583257 46.07657084609002 A 85.0 85.0 0.0 0,1 174.96330746961007 59.931277369790024" fill="rgb(0,0,0)" stroke="rgb(0,0,255)" stroke-width="0.5" /></svg>