<?xml version="1.0" encoding="utf-8" ?>
<svg baseProfile="full" height="100%" version="1.1" width="100%" xmlns="http://www.w3.org/2000/svg" xmlns:ev="http://www.w3.org/2001/xml-events" xmlns:xlink="http://www.w3.org/1999/xlink"><defs /><path d="M 90.0 100.0 A 2000 2000 0.0 0,0 87.0 100.0 A 13.0 13.0 0.0 0,0 113.0 100.0 A 2000 2000 0.0 0,0 110.0 100.0 A 10.0 10.0 0.0 0,1 90.0 100.0" fill="rgb(0,0,0)" stroke="rgb(0,0,255)" stroke-width="0" /><path d="M 100.0 75.0 A 2000 2000 0.0 0,0 100.0 72.0 A 28.0 28.0 0.0 0,0 100.0 128.0 A 2000 2000 0.0 0,0 100.0 125.0 A 25.0 25.0 0.0 0,1 100.0 75.0" fill="rgb(0,0,0)" stroke="rgb(0,0,255)" stroke-width="0" /><path d="M 128.2842712474619 71.7157287525381 A 2000 2000 0.0 0,0 130.40559159102153 69.59440840897845 A 43.0 43.0 0.0 0,0 69.59440840897845 69.59440840897847 A 2000 2000 0.0 0,0 71.7157287525381 71.7157287525381 A 40.0 40.0 0.0 0,1 128.2842712474619 71.7157287525381" fill="rgb(0,0,0)" stroke="rgb(0,0,255)" stroke-width="0" /><path d="M 71.71572875253813 128.28427124746193 A 2000 2000 0.0 0,0 69.5944084089785 130.4055915910216 A 43.0 43.0 0.0 0,0 130.4055915910216 130.4055915910215 A 2000 2000 0.0 0,0 128.28427124746193 128.28427124746187 A 40.0 40.0 0.0 0,1 71.71572875253813 128.28427124746193" fill="rgb(0,0,0)" stroke="rgb(0,0,255)" stroke-width="0" /><path d="M 150.81337428812077 78.95241121992002 A 2000 2000 0.0 0,0 153.58501288565463 77.80436092282476 A 58.0 58.0 0.0 0,0 122.19563907717517 46.41498711434536 A 2000 2000 0.0 0,0 121.0475887800799 49.186625711879216 A 55.0 55.0 0.0 0,1 150.81337428812077 78.95241121992002" fill="rgb(0,0,0)" stroke="rgb(0,0,255)" stroke-width="0" /><path d="M 121.04758878007998 150.81337428812077 A 2000 2000 0.0 0,0 122.19563907717524 153.58501288565463 A 58.0 58.0 0.0 0,0 153.58501288565463 122.19563907717517 A 2000 2000 0.0 0,0 150.8133742881208 121.0475887800799 A 55.0 55.0 0.0 0,1 121.04758878007998 150.81337428812077" fill="rgb(0,0,0)" stroke="rgb(0,0,255)" stroke-width="0" /><path d="M 49.186625711879245 121.04758878007998 A 2000 2000 0.0 0,0 46.41498711434539 122.19563907717526 A 58.0 58.0 0.0 0,0 77.80436092282478 153.58501288565463 A 2000 2000 0.0 0,0 78.95241121992005 150.81337428812077 A 55.0 55.0 0.0 0,1 49.186625711879245 121.04758878007998" fill="rgb(0,0,0)" stroke="rgb(0,0,255)" stroke-width="0" /><path d="M 78.95241121992002 49.186625711879245 A 2000 2000 0.0 0,0 77.80436092282474 46.41498711434539 A 58.0 58.0 0.0 0,0 46.41498711434533 77.80436092282488 A 2000 2000 0.0 0,0 49.186625711879195 78.95241121992015 A 55.0 55.0 0.0 0,1 78.95241121992002 49.186625711879245" fill="rgb(0,0,0)" stroke="rgb(0,0,255)" stroke-width="0" /><path d="M 168.65496962822613 86.34367745887099 A 2000 2000 0.0 0,0 171.59732546943582 85.7584064928226 A 73.0 73.0 0.0 0,0 160.69728169808582 59.44337298956904 A 2000 2000 0.0 0,0 158.20287286117815 61.110083688627846 A 70.0 70.0 0.0 0,1 168.65496962822613 86.34367745887099" fill="rgb(0,0,0)" stroke="rgb(0,0,255)" stroke-width="0" /><path d="M 158.20287286117818 138.88991631137213 A 2000 2000 0.0 0,0 160.69728169808582 140.55662701043093 A 73.0 73.0 0.0 0,0 171.59732546943584 114.2415935071773 A 2000 2000 0.0 0,0 168.65496962822613 113.65632254112892 A 70.0 70.0 0.0 0,1 158.20287286117818 138.88991631137213" fill="rgb(0,0,0)" stroke="rgb(0,0,255)" stroke-width="0" /><path d="M 113.65632254112901 168.65496962822613 A 2000 2000 0.0 0,0 114.2415935071774 171.59732546943582 A 73.0 73.0 0.0 0,0 140.55662701043096 160.69728169808582 A 2000 2000 0.0 0,0 138.88991631137216 158.20287286117815 A 70.0 70.0 0.0 0,1 113.65632254112901 168.65496962822613" fill="rgb(0,0,0)" stroke="rgb(0,0,255)" stroke-width="0" /><path d="M 61.11008368862788 158.2028728611782 A 2000 2000 0.0 0,0 59.44337298956907 160.69728169808582 A 73.0 73.0 0.0 0,0 85.7584064928227 171.59732546943584 A 2000 2000 0.0 0,0 86.34367745887108 168.65496962822613 A 70.0 70.0 0.0 0,1 61.11008368862788 158.2028728611782" fill="rgb(0,0,0)" stroke="rgb(0,0,255)" stroke-width="0" /><path d="M 31.34503037177386 113.65632254112896 A 2000 2000 0.0 0,0 28.40267453056417 114.24159350717734 A 73.0 73.0 0.0 0,0 39.302718301914204 140.55662701043096 A 2000 2000 0.0 0,0 41.79712713882184 138.88991631137216 A 70.0 70.0 0.0 0,1 31.34503037177386 113.65632254112896" fill="rgb(0,0,0)" stroke="rgb(0,0,255)" stroke-width="0" /><path d="M 41.79712713882181 61.11008368862788 A 2000 2000 0.0 0,0 39.302718301914176 59.44337298956907 A 73.0 73.0 0.0 0,0 28.402674530564155 85.75840649282271 A 2000 2000 0.0 0,0 31.34503037177386 86.3436774588711 A 70.0 70.0 0.0 0,1 41.79712713882181 61.11008368862788" fill="rgb(0,0,0)" stroke="rgb(0,0,255)" stroke-width="0" /><path d="M 86.34367745887091 31.345030371773888 A 2000 2000 0.0 0,0 85.75840649282253 28.402674530564198 A 73.0 73.0 0.0 0,0 59.44337298956892 39.302718301914275 A 2000 2000 0.0 0,0 61.11008368862773 41.797127138821914 A 70.0 70.0 0.0 0,1 86.34367745887091 31.345030371773888" fill="rgb(0,0,0)" stroke="rgb(0,0,255)" stroke-width="0" /><path d="M 138.8899163113721 41.79712713882181 A 2000 2000 0.0 0,0 140.55662701043093 39.302718301914176 A 73.0 73.0 0.0 0,0 114.24159350717729 28.402674530564155 A 2000 2000 0.0 0,0 113.6563225411289 31.34503037177386 A 70.0 70.0 0.0 0,1 138.8899163113721 41.79712713882181" fill="rgb(0,0,0)" stroke="rgb(0,0,255)" stroke-width="0" /><path d="M 184.59070176713675 91.66854307198729 A 2000 2000 0.0 0,0 187.5762559471533 91.37449165099859 A 88.0 88.0 0.0 0,0 184.21074954443435 74.45494840160723 A 2000 2000 0.0 0,0 181.3399285372377 75.32580243337061 A 85.0 85.0 0.0 0,1 184.59070176713675 91.66854307198729" fill="rgb(0,0,0)" stroke="rgb(0,0,255)" stroke-width="0" /><path d="M 181.33992853723777 124.6741975666292 A 2000 2000 0.0 0,0 184.2107495444344 125.54505159839258 A 88.0 88.0 0.0 0,0 187.57625594715336 108.62550834900121 A 2000 2000 0.0 0,0 184.59070176713675 108.33145692801253 A 85.0 85.0 0.0 0,1 181.33992853723777 124.6741975666292" fill="rgb(0,0,0)" stroke="rgb(0,0,255)" stroke-width="0" /><path d="M 165.70588853583268 153.9234291539098 A 2000 2000 0.0 0,0 168.0249198959209 155.82660900640076 A 88.0 88.0 0.0 0,0 177.60907126265528 141.48291284068773 A 2000 2000 0.0 0,0 174.9633074696102 140.06872263020972 A 85.0 85.0 0.0 0,1 165.70588853583268 153.9234291539098" fill="rgb(0,0,0)" stroke="rgb(0,0,255)" stroke-width="0" /><path d="M 140.06872263020983 174.96330746961016 A 2000 2000 0.0 0,0 141.48291284068782 177.60907126265522 A 88.0 88.0 0.0 0,0 155.82660900640084 168.02491989592082 A 2000 2000 0.0 0,0 153.92342915390992 165.70588853583263 A 85.0 85.0 0.0 0,1 140.06872263020983 174.96330746961016" fill="rgb(0,0,0)" stroke="rgb(0,0,255)" stroke-width="0" /><path d="M 108.33145692801273 184.59070176713675 A 2000 2000 0.0 0,0 108.62550834900141 187.5762559471533 A 88.0 88.0 0.0 0,0 125.54505159839277 184.21074954443435 A 2000 2000 0.0 0,0 124.67419756662939 181.3399285372377 A 85.0 85.0 0.0 0,1 108.33145692801273 184.59070176713675" fill="rgb(0,0,0)" stroke="rgb(0,0,255)" stroke-width="0" /><path d="M 75.32580243337081 181.33992853723777 A 2000 2000 0.0 0,0 74.45494840160742 184.2107495444344 A 88.0 88.0 0.0 0,0 91.3744916509988 187.57625594715336 A 2000 2000 0.0 0,0 91.66854307198747 184.59070176713675 A 85.0 85.0 0.0 0,1 75.32580243337081 181.33992853723777" fill="rgb(0,0,0)" stroke="rgb(0,0,255)" stroke-width="0" /><path d="M 46.07657084609019 165.70588853583268 A 2000 2000 0.0 0,0 44.173390993599256 168.0249198959209 A 88.0 88.0 0.0 0,0 58.517087159312226 177.60907126265525 A 2000 2000 0.0 0,0 59.931277369790216 174.96330746961019 A 85.0 85.0 0.0 0,1 46.07657084609019 165.70588853583268" fill="rgb(0,0,0)" stroke="rgb(0,0,255)" stroke-width="0" /><path d="M 25.036692530389843 140.06872263020983 A 2000 2000 0.0 0,0 22.39092873734478 141.48291284068782 A 88.0 88.0 0.0 0,0 31.97508010407914 155.8266090064008 A 2000 2000 0.0 0,0 34.294111464167344 153.92342915390986 A 85.0 85.0 0.0 0,1 25.036692530389843 140.06872263020983" fill="rgb(0,0,0)" stroke="rgb(0,0,255)" stroke-width="0" /><path d="M 15.409298232863264 108.33145692801266 A 2000 2000 0.0 0,0 12.423744052846672 108.62550834900134 A 88.0 88.0 0.0 0,0 15.789250455565607 125.54505159839263 A 2000 2000 0.0 0,0 18.660071462762232 124.67419756662925 A 85.0 85.0 0.0 0,1 15.409298232863264 108.33145692801266" fill="rgb(0,0,0)" stroke="rgb(0,0,255)" stroke-width="0" /><path d="M 18.660071462762218 75.32580243337081 A 2000 2000 0.0 0,0 15.789250455565579 74.45494840160742 A 88.0 88.0 0.0 0,0 12.423744052846672 91.37449165099873 A 2000 2000 0.0 0,0 15.409298232863264 91.66854307198741 A 85.0 85.0 0.0 0,1 18.660071462762218 75.32580243337081" fill="rgb(0,0,0)" stroke="rgb(0,0,255)" stroke-width="0" /><path d="M 34.294111464167315 46.0765708460902 A 2000 2000 0.0 0,0 31.975080104079098 44.17339099359926 A 88.0 88.0 0.0 0,0 22.39092873734475 58.517087159312226 A 2000 2000 0.0 0,0 25.036692530389814 59.931277369790216 A 85.0 85.0 0.0 0,1 34.294111464167315 46.0765708460902" fill="rgb(0,0,0)" stroke="rgb(0,0,255)" stroke-width="0" /><path d="M 59.931277369790166 25.036692530389843 A 2000 2000 0.0 0,0 58.51708715931217 22.39092873734478 A 88.0 88.0 0.0 0,0 44.173390993599206 31.97508010407914 A 2000 2000 0.0 0,0 46.07657084609014 34.294111464167344 A 85.0 85.0 0.0 0,1 59.931277369790166 25.036692530389843" fill="rgb(0,0,0)" stroke="rgb(0,0,255)" stroke-width="0" /><path d="M 91.66854307198719 15.409298232863279 A 2000 2000 0.0 0,0 91.37449165099851 12.423744052846686 A 88.0 88.0 0.0 0,0 74.45494840160721 15.78925045556565 A 2000 2000 0.0 0,0 75.3258024333706 18.660071462762275 A 85.0 85.0 0.0 0,1 91.66854307198719 15.409298232863279" fill="rgb(0,0,0)" stroke="rgb(0,0,255)" stroke-width="0" /><path d="M 124.67419756662933 18.66007146276226 A 2000 2000 0.0 0,0 125.54505159839272 15.789250455565636 A 88.0 88.0 0.0 0,0 108.62550834900142 12.423744052846686 A 2000 2000 0.0 0,0 108.33145692801274 15.409298232863264 A 85.0 85.0 0.0 0,1 124.67419756662933 18.66007146276226" fill="rgb(0,0,0)" stroke="rgb(0,0,255)" stroke-width="0" /><path d="M 153.9234291539098 34.294111464167315 A 2000 2000 0.0 0,0 155.82660900640073 31.975080104079098 A 88.0 88.0 0.0 0,0 141.48291284068776 22.39092873734475 A 2000 2000 0.0 0,0 140.06872263020978 25.036692530389814 A 85.0 85.0 0.0 0,1 153.9234291539098 34.294111464167315" fill="rgb(0,0,0)" stroke="rgb(0,0,255)" stroke-width="0" /><path d="M 174.96330746961007 59.931277369790024 A 2000 2000 0.0 0,0 177.60907126265516 58.51708715931202 A 88.0 88.0 0.0 0,0 168.02491989592076 44.17339099359908 A 2000 2000 0.0 0,0 165.70588853583257 46.07657084609002 A 85.0 85.0 0.0 0,1 174.96330746961007 59.931277369790024" fill="rgb(0,0,0)" stroke="rgb(0,0,255)" stroke-width="0" /></svg>