<?xml version="1.0" encoding="utf-8" ?>
<svg baseProfile="full" height="100%" version="1.1" width="100%" xmlns="http://www.w3.org/2000/svg" xmlns:ev="http://www.w3.org/2001/xml-events" xmlns:xlink="http://www.w3.org/1999/xlink"><defs /><path d="M 90.0 100.0 A 2000 2000 0.0 0,0 78.0 100.0 A 22.0 22.0 0.0 0,0 122.0 100.0 A 2000 2000 0.0 0,0 110.0 100.0 A 10.0 10.0 0.0 0,1 90.0 100.0" fill="rgb(0,0,0)" stroke="rgb(0,0,255)" stroke-width="0" /><path d="M 100.0 75.0 A 2000 2000 0.0 0,0 100.0 63.0 A 37.0 37.0 0.0 0,0 100.0 137.0 A 2000 2000 0.0 0,0 100.0 125.0 A 25.0 25.0 0.0 0,1 100.0 75.0" fill="rgb(0,0,0)" stroke="rgb(0,0,255)" stroke-width="0" /><path d="M 128.2842712474619 71.7157287525381 A 2000 2000 0.0 0,0 136.76955262170046 63.23044737829952 A 52.0 52.0 0.0 0,0 63.23044737829952 63.23044737829953 A 2000 2000 0.0 0,0 71.7157287525381 71.7157287525381 A 40.0 40.0 0.0 0,1 128.2842712474619 71.7157287525381" fill="rgb(0,0,0)" stroke="rgb(0,0,255)" stroke-width="0" /><path d="M 71.71572875253813 128.28427124746193 A 2000 2000 0.0 0,0 63.23044737829957 136.7695526217005 A 52.0 52.0 0.0 0,0 136.7695526217005 136.76955262170043 A 2000 2000 0.0 0,0 128.28427124746193 128.28427124746187 A 40.0 40.0 0.0 0,1 71.71572875253813 128.28427124746193" fill="rgb(0,0,0)" stroke="rgb(0,0,255)" stroke-width="0" /><path d="M 150.81337428812077 78.95241121992002 A 2000 2000 0.0 0,0 161.8999286782562 74.36021003153894 A 67.0 67.0 0.0 0,0 125.63978996846097 38.100071321743776 A 2000 2000 0.0 0,0 121.0475887800799 49.186625711879216 A 55.0 55.0 0.0 0,1 150.81337428812077 78.95241121992002" fill="rgb(0,0,0)" stroke="rgb(0,0,255)" stroke-width="0" /><path d="M 121.04758878007998 150.81337428812077 A 2000 2000 0.0 0,0 125.63978996846106 161.8999286782562 A 67.0 67.0 0.0 0,0 161.89992867825623 125.63978996846097 A 2000 2000 0.0 0,0 150.8133742881208 121.0475887800799 A 55.0 55.0 0.0 0,1 121.04758878007998 150.81337428812077" fill="rgb(0,0,0)" stroke="rgb(0,0,255)" stroke-width="0" /><path d="M 49.186625711879245 121.04758878007998 A 2000 2000 0.0 0,0 38.10007132174381 125.63978996846106 A 67.0 67.0 0.0 0,0 74.36021003153897 161.8999286782562 A 2000 2000 0.0 0,0 78.95241121992005 150.81337428812077 A 55.0 55.0 0.0 0,1 49.186625711879245 121.04758878007998" fill="rgb(0,0,0)" stroke="rgb(0,0,255)" stroke-width="0" /><path d="M 78.95241121992002 49.186625711879245 A 2000 2000 0.0 0,0 74.36021003153894 38.10007132174381 A 67.0 67.0 0.0 0,0 38.10007132174374 74.3602100315391 A 2000 2000 0.0 0,0 49.186625711879195 78.95241121992015 A 55.0 55.0 0.0 0,1 78.95241121992002 49.186625711879245" fill="rgb(0,0,0)" stroke="rgb(0,0,255)" stroke-width="0" /><path d="M 168.65496962822613 86.34367745887099 A 2000 2000 0.0 0,0 180.42439299306488 84.00259359467745 A 82.0 82.0 0.0 0,0 168.1805082088087 54.44324089239262 A 2000 2000 0.0 0,0 158.20287286117815 61.110083688627846 A 70.0 70.0 0.0 0,1 168.65496962822613 86.34367745887099" fill="rgb(0,0,0)" stroke="rgb(0,0,255)" stroke-width="0" /><path d="M 158.20287286117818 138.88991631137213 A 2000 2000 0.0 0,0 168.18050820880873 145.55675910760735 A 82.0 82.0 0.0 0,0 180.4243929930649 115.99740640532244 A 2000 2000 0.0 0,0 168.65496962822613 113.65632254112892 A 70.0 70.0 0.0 0,1 158.20287286117818 138.88991631137213" fill="rgb(0,0,0)" stroke="rgb(0,0,255)" stroke-width="0" /><path d="M 113.65632254112901 168.65496962822613 A 2000 2000 0.0 0,0 115.99740640532256 180.42439299306488 A 82.0 82.0 0.0 0,0 145.55675910760738 168.1805082088087 A 2000 2000 0.0 0,0 138.88991631137216 158.20287286117815 A 70.0 70.0 0.0 0,1 113.65632254112901 168.65496962822613" fill="rgb(0,0,0)" stroke="rgb(0,0,255)" stroke-width="0" /><path d="M 61.11008368862788 158.2028728611782 A 2000 2000 0.0 0,0 54.44324089239266 168.18050820880873 A 82.0 82.0 0.0 0,0 84.00259359467756 180.4243929930649 A 2000 2000 0.0 0,0 86.34367745887108 168.65496962822613 A 70.0 70.0 0.0 0,1 61.11008368862788 158.2028728611782" fill="rgb(0,0,0)" stroke="rgb(0,0,255)" stroke-width="0" /><path d="M 31.34503037177386 113.65632254112896 A 2000 2000 0.0 0,0 19.5756070069351 115.9974064053225 A 82.0 82.0 0.0 0,0 31.819491791191297 145.55675910760738 A 2000 2000 0.0 0,0 41.79712713882184 138.88991631137216 A 70.0 70.0 0.0 0,1 31.34503037177386 113.65632254112896" fill="rgb(0,0,0)" stroke="rgb(0,0,255)" stroke-width="0" /><path d="M 41.79712713882181 61.11008368862788 A 2000 2000 0.0 0,0 31.81949179119127 54.44324089239266 A 82.0 82.0 0.0 0,0 19.575607006935087 84.00259359467756 A 2000 2000 0.0 0,0 31.34503037177386 86.3436774588711 A 70.0 70.0 0.0 0,1 41.79712713882181 61.11008368862788" fill="rgb(0,0,0)" stroke="rgb(0,0,255)" stroke-width="0" /><path d="M 86.34367745887091 31.345030371773888 A 2000 2000 0.0 0,0 84.00259359467736 19.57560700693513 A 82.0 82.0 0.0 0,0 54.44324089239249 31.819491791191382 A 2000 2000 0.0 0,0 61.11008368862773 41.797127138821914 A 70.0 70.0 0.0 0,1 86.34367745887091 31.345030371773888" fill="rgb(0,0,0)" stroke="rgb(0,0,255)" stroke-width="0" /><path d="M 138.8899163113721 41.79712713882181 A 2000 2000 0.0 0,0 145.55675910760732 31.81949179119127 A 82.0 82.0 0.0 0,0 115.99740640532244 19.575607006935087 A 2000 2000 0.0 0,0 113.6563225411289 31.34503037177386 A 70.0 70.0 0.0 0,1 138.8899163113721 41.79712713882181" fill="rgb(0,0,0)" stroke="rgb(0,0,255)" stroke-width="0" /><path d="M 184.59070176713675 91.66854307198729 A 2000 2000 0.0 0,0 196.5329184872031 90.49233738803254 A 97.0 97.0 0.0 0,0 192.82321256602424 71.84238630631705 A 2000 2000 0.0 0,0 181.3399285372377 75.32580243337061 A 85.0 85.0 0.0 0,1 184.59070176713675 91.66854307198729" fill="rgb(0,0,0)" stroke="rgb(0,0,255)" stroke-width="0" /><path d="M 181.33992853723777 124.6741975666292 A 2000 2000 0.0 0,0 192.8232125660243 128.15761369368272 A 97.0 97.0 0.0 0,0 196.53291848720312 109.50766261196723 A 2000 2000 0.0 0,0 184.59070176713675 108.33145692801253 A 85.0 85.0 0.0 0,1 181.33992853723777 124.6741975666292" fill="rgb(0,0,0)" stroke="rgb(0,0,255)" stroke-width="0" /><path d="M 165.70588853583268 153.9234291539098 A 2000 2000 0.0 0,0 174.98201397618553 161.53614856387355 A 97.0 97.0 0.0 0,0 185.5463626417905 145.72548347212168 A 2000 2000 0.0 0,0 174.9633074696102 140.06872263020972 A 85.0 85.0 0.0 0,1 165.70588853583268 153.9234291539098" fill="rgb(0,0,0)" stroke="rgb(0,0,255)" stroke-width="0" /><path d="M 140.06872263020983 174.96330746961016 A 2000 2000 0.0 0,0 145.7254834721218 185.54636264179044 A 97.0 97.0 0.0 0,0 161.53614856387367 174.98201397618544 A 2000 2000 0.0 0,0 153.92342915390992 165.70588853583263 A 85.0 85.0 0.0 0,1 140.06872263020983 174.96330746961016" fill="rgb(0,0,0)" stroke="rgb(0,0,255)" stroke-width="0" /><path d="M 108.33145692801273 184.59070176713675 A 2000 2000 0.0 0,0 109.50766261196746 196.5329184872031 A 97.0 97.0 0.0 0,0 128.15761369368295 192.82321256602424 A 2000 2000 0.0 0,0 124.67419756662939 181.3399285372377 A 85.0 85.0 0.0 0,1 108.33145692801273 184.59070176713675" fill="rgb(0,0,0)" stroke="rgb(0,0,255)" stroke-width="0" /><path d="M 75.32580243337081 181.33992853723777 A 2000 2000 0.0 0,0 71.84238630631728 192.8232125660243 A 97.0 97.0 0.0 0,0 90.49233738803277 196.53291848720312 A 2000 2000 0.0 0,0 91.66854307198747 184.59070176713675 A 85.0 85.0 0.0 0,1 75.32580243337081 181.33992853723777" fill="rgb(0,0,0)" stroke="rgb(0,0,255)" stroke-width="0" /><path d="M 46.07657084609019 165.70588853583268 A 2000 2000 0.0 0,0 38.463851436126454 174.98201397618556 A 97.0 97.0 0.0 0,0 54.27451652787825 185.54636264179044 A 2000 2000 0.0 0,0 59.931277369790216 174.96330746961019 A 85.0 85.0 0.0 0,1 46.07657084609019 165.70588853583268" fill="rgb(0,0,0)" stroke="rgb(0,0,255)" stroke-width="0" /><path d="M 25.036692530389843 140.06872263020983 A 2000 2000 0.0 0,0 14.453637358209576 145.72548347212182 A 97.0 97.0 0.0 0,0 25.0179860238145 161.5361485638736 A 2000 2000 0.0 0,0 34.294111464167344 153.92342915390986 A 85.0 85.0 0.0 0,1 25.036692530389843 140.06872263020983" fill="rgb(0,0,0)" stroke="rgb(0,0,255)" stroke-width="0" /><path d="M 15.409298232863264 108.33145692801266 A 2000 2000 0.0 0,0 3.467081512796895 109.50766261196738 A 97.0 97.0 0.0 0,0 7.1767874339757185 128.15761369368278 A 2000 2000 0.0 0,0 18.660071462762232 124.67419756662925 A 85.0 85.0 0.0 0,1 15.409298232863264 108.33145692801266" fill="rgb(0,0,0)" stroke="rgb(0,0,255)" stroke-width="0" /><path d="M 18.660071462762218 75.32580243337081 A 2000 2000 0.0 0,0 7.176787433975704 71.84238630631728 A 97.0 97.0 0.0 0,0 3.467081512796895 90.4923373880327 A 2000 2000 0.0 0,0 15.409298232863264 91.66854307198741 A 85.0 85.0 0.0 0,1 18.660071462762218 75.32580243337081" fill="rgb(0,0,0)" stroke="rgb(0,0,255)" stroke-width="0" /><path d="M 34.294111464167315 46.0765708460902 A 2000 2000 0.0 0,0 25.01798602381446 38.46385143612646 A 97.0 97.0 0.0 0,0 14.453637358209548 54.27451652787825 A 2000 2000 0.0 0,0 25.036692530389814 59.931277369790216 A 85.0 85.0 0.0 0,1 34.294111464167315 46.0765708460902" fill="rgb(0,0,0)" stroke="rgb(0,0,255)" stroke-width="0" /><path d="M 59.931277369790166 25.036692530389843 A 2000 2000 0.0 0,0 54.274516527878184 14.453637358209576 A 97.0 97.0 0.0 0,0 38.4638514361264 25.0179860238145 A 2000 2000 0.0 0,0 46.07657084609014 34.294111464167344 A 85.0 85.0 0.0 0,1 59.931277369790166 25.036692530389843" fill="rgb(0,0,0)" stroke="rgb(0,0,255)" stroke-width="0" /><path d="M 91.66854307198719 15.409298232863279 A 2000 2000 0.0 0,0 90.49233738803244 3.4670815127969234 A 97.0 97.0 0.0 0,0 71.84238630631704 7.176787433975775 A 2000 2000 0.0 0,0 75.3258024333706 18.660071462762275 A 85.0 85.0 0.0 0,1 91.66854307198719 15.409298232863279" fill="rgb(0,0,0)" stroke="rgb(0,0,255)" stroke-width="0" /><path d="M 124.67419756662933 18.66007146276226 A 2000 2000 0.0 0,0 128.1576136936829 7.176787433975761 A 97.0 97.0 0.0 0,0 109.50766261196748 3.4670815127969092 A 2000 2000 0.0 0,0 108.33145692801274 15.409298232863264 A 85.0 85.0 0.0 0,1 124.67419756662933 18.66007146276226" fill="rgb(0,0,0)" stroke="rgb(0,0,255)" stroke-width="0" /><path d="M 153.9234291539098 34.294111464167315 A 2000 2000 0.0 0,0 161.53614856387355 25.01798602381446 A 97.0 97.0 0.0 0,0 145.72548347212174 14.453637358209548 A 2000 2000 0.0 0,0 140.06872263020978 25.036692530389814 A 85.0 85.0 0.0 0,1 153.9234291539098 34.294111464167315" fill="rgb(0,0,0)" stroke="rgb(0,0,255)" stroke-width="0" /><path d="M 174.96330746961007 59.931277369790024 A 2000 2000 0.0 0,0 185.54636264179032 54.27451652787802 A 97.0 97.0 0.0 0,0 174.98201397618539 38.463851436126255 A 2000 2000 0.0 0,0 165.70588853583257 46.07657084609002 A 85.0 85.0 0.0 0,1 174.96330746961007 59.931277369790024" fill="rgb(0,0,0)" stroke="rgb(0,0,255)" stroke-width="0" /></svg>