<?xml version="1.0" encoding="utf-8" ?>
<svg baseProfile="full" height="100%" version="1.1" width="100%" xmlns="http://www.w3.org/2000/svg" xmlns:ev="http://www.w3.org/2001/xml-events" xmlns:xlink="http://www.w3.org/1999/xlink"><defs /><path d="M 90.0 100.0 A 2000 2000 0.0 0,0 55.0 100.0 A 45.0 45.0 0.0 0,0 145.0 100.0 A 2000 2000 0.0 0,0 110.0 100.0 A 10.0 10.0 0.0 0,1 90.0 100.0" fill="rgb(0,0,0)" stroke="rgb(0,0,255)" stroke-width="0" /><path d="M 100.0 75.0 A 2000 2000 0.0 0,0 99.99999999999999 40.0 A 60.0 60.0 0.0 0,0 100.0 160.0 A 2000 2000 0.0 0,0 100.0 125.0 A 25.0 25.0 0.0 0,1 100.0 75.0" fill="rgb(0,0,0)" stroke="rgb(0,0,255)" stroke-width="0" /><path d="M 128.2842712474619 71.7157287525381 A 2000 2000 0.0 0,0 153.03300858899104 46.96699141100893 A 75.0 75.0 0.0 0,0 46.96699141100893 46.96699141100894 A 2000 2000 0.0 0,0 71.7157287525381 71.7157287525381 A 40.0 40.0 0.0 0,1 128.2842712474619 71.7157287525381" fill="rgb(0,0,0)" stroke="rgb(0,0,255)" stroke-width="0" /><path d="M 71.71572875253813 128.28427124746193 A 2000 2000 0.0 0,0 46.966991411009 153.03300858899112 A 75.0 75.0 0.0 0,0 153.03300858899112 153.033008588991 A 2000 2000 0.0 0,0 128.28427124746193 128.28427124746187 A 40.0 40.0 0.0 0,1 71.71572875253813 128.28427124746193" fill="rgb(0,0,0)" stroke="rgb(0,0,255)" stroke-width="0" /><path d="M 150.81337428812077 78.95241121992002 A 2000 2000 0.0 0,0 183.1491579260158 65.55849108714187 A 90.0 90.0 0.0 0,0 134.441508912858 16.850842073984168 A 2000 2000 0.0 0,0 121.0475887800799 49.186625711879216 A 55.0 55.0 0.0 0,1 150.81337428812077 78.95241121992002" fill="rgb(0,0,0)" stroke="rgb(0,0,255)" stroke-width="0" /><path d="M 121.04758878007998 150.81337428812077 A 2000 2000 0.0 0,0 134.44150891285813 183.1491579260158 A 90.0 90.0 0.0 0,0 183.14915792601585 134.441508912858 A 2000 2000 0.0 0,0 150.8133742881208 121.0475887800799 A 55.0 55.0 0.0 0,1 121.04758878007998 150.81337428812077" fill="rgb(0,0,0)" stroke="rgb(0,0,255)" stroke-width="0" /><path d="M 49.186625711879245 121.04758878007998 A 2000 2000 0.0 0,0 16.850842073984225 134.44150891285815 A 90.0 90.0 0.0 0,0 65.5584910871419 183.1491579260158 A 2000 2000 0.0 0,0 78.95241121992005 150.81337428812077 A 55.0 55.0 0.0 0,1 49.186625711879245 121.04758878007998" fill="rgb(0,0,0)" stroke="rgb(0,0,255)" stroke-width="0" /><path d="M 78.95241121992002 49.186625711879245 A 2000 2000 0.0 0,0 65.55849108714185 16.850842073984225 A 90.0 90.0 0.0 0,0 16.85084207398414 65.55849108714207 A 2000 2000 0.0 0,0 49.186625711879195 78.95241121992015 A 55.0 55.0 0.0 0,1 78.95241121992002 49.186625711879245" fill="rgb(0,0,0)" stroke="rgb(0,0,255)" stroke-width="0" /><path d="M 168.65496962822613 86.34367745887099 A 2000 2000 0.0 0,0 202.9824544423392 79.51551618830649 A 105.0 105.0 0.0 0,0 187.30430929176725 41.66512553294177 A 2000 2000 0.0 0,0 158.20287286117815 61.110083688627846 A 70.0 70.0 0.0 0,1 168.65496962822613 86.34367745887099" fill="rgb(0,0,0)" stroke="rgb(0,0,255)" stroke-width="0" /><path d="M 158.20287286117818 138.88991631137213 A 2000 2000 0.0 0,0 187.30430929176725 158.3348744670582 A 105.0 105.0 0.0 0,0 202.98245444233922 120.48448381169337 A 2000 2000 0.0 0,0 168.65496962822613 113.65632254112892 A 70.0 70.0 0.0 0,1 158.20287286117818 138.88991631137213" fill="rgb(0,0,0)" stroke="rgb(0,0,255)" stroke-width="0" /><path d="M 113.65632254112901 168.65496962822613 A 2000 2000 0.0 0,0 120.48448381169352 202.9824544423392 A 105.0 105.0 0.0 0,0 158.33487446705823 187.30430929176725 A 2000 2000 0.0 0,0 138.88991631137216 158.20287286117815 A 70.0 70.0 0.0 0,1 113.65632254112901 168.65496962822613" fill="rgb(0,0,0)" stroke="rgb(0,0,255)" stroke-width="0" /><path d="M 61.11008368862788 158.2028728611782 A 2000 2000 0.0 0,0 41.665125532941815 187.30430929176728 A 105.0 105.0 0.0 0,0 79.51551618830663 202.98245444233922 A 2000 2000 0.0 0,0 86.34367745887108 168.65496962822613 A 70.0 70.0 0.0 0,1 61.11008368862788 158.2028728611782" fill="rgb(0,0,0)" stroke="rgb(0,0,255)" stroke-width="0" /><path d="M 31.34503037177386 113.65632254112896 A 2000 2000 0.0 0,0 -2.982454442339204 120.48448381169344 A 105.0 105.0 0.0 0,0 12.69569070823276 158.33487446705823 A 2000 2000 0.0 0,0 41.79712713882184 138.88991631137216 A 70.0 70.0 0.0 0,1 31.34503037177386 113.65632254112896" fill="rgb(0,0,0)" stroke="rgb(0,0,255)" stroke-width="0" /><path d="M 41.79712713882181 61.11008368862788 A 2000 2000 0.0 0,0 12.695690708232718 41.665125532941815 A 105.0 105.0 0.0 0,0 -2.9824544423392183 79.51551618830663 A 2000 2000 0.0 0,0 31.34503037177386 86.3436774588711 A 70.0 70.0 0.0 0,1 41.79712713882181 61.11008368862788" fill="rgb(0,0,0)" stroke="rgb(0,0,255)" stroke-width="0" /><path d="M 86.34367745887091 31.345030371773888 A 2000 2000 0.0 0,0 79.51551618830638 -2.9824544423391615 A 105.0 105.0 0.0 0,0 41.665125532941595 12.69569070823286 A 2000 2000 0.0 0,0 61.11008368862773 41.797127138821914 A 70.0 70.0 0.0 0,1 86.34367745887091 31.345030371773888" fill="rgb(0,0,0)" stroke="rgb(0,0,255)" stroke-width="0" /><path d="M 138.8899163113721 41.79712713882181 A 2000 2000 0.0 0,0 158.33487446705817 12.695690708232718 A 105.0 105.0 0.0 0,0 120.48448381169335 -2.9824544423392183 A 2000 2000 0.0 0,0 113.6563225411289 31.34503037177386 A 70.0 70.0 0.0 0,1 138.8899163113721 41.79712713882181" fill="rgb(0,0,0)" stroke="rgb(0,0,255)" stroke-width="0" /><path d="M 184.59070176713675 91.66854307198729 A 2000 2000 0.0 0,0 219.42216720066364 88.23794316045263 A 120.0 120.0 0.0 0,0 214.83284028786503 65.1658387294644 A 2000 2000 0.0 0,0 181.3399285372377 75.32580243337061 A 85.0 85.0 0.0 0,1 184.59070176713675 91.66854307198729" fill="rgb(0,0,0)" stroke="rgb(0,0,255)" stroke-width="0" /><path d="M 181.33992853723777 124.6741975666292 A 2000 2000 0.0 0,0 214.8328402878651 134.83416127053533 A 120.0 120.0 0.0 0,0 219.42216720066364 111.7620568395471 A 2000 2000 0.0 0,0 184.59070176713675 108.33145692801253 A 85.0 85.0 0.0 0,1 181.33992853723777 124.6741975666292" fill="rgb(0,0,0)" stroke="rgb(0,0,255)" stroke-width="0" /><path d="M 165.70588853583268 153.9234291539098 A 2000 2000 0.0 0,0 192.76125440352848 176.1271940996374 A 120.0 120.0 0.0 0,0 205.83055172180266 156.5676084191196 A 2000 2000 0.0 0,0 174.9633074696102 140.06872263020972 A 85.0 85.0 0.0 0,1 165.70588853583268 153.9234291539098" fill="rgb(0,0,0)" stroke="rgb(0,0,255)" stroke-width="0" /><path d="M 140.06872263020983 174.96330746961016 A 2000 2000 0.0 0,0 156.56760841911975 205.83055172180258 A 120.0 120.0 0.0 0,0 176.1271940996375 192.76125440352837 A 2000 2000 0.0 0,0 153.92342915390992 165.70588853583263 A 85.0 85.0 0.0 0,1 140.06872263020983 174.96330746961016" fill="rgb(0,0,0)" stroke="rgb(0,0,255)" stroke-width="0" /><path d="M 108.33145692801273 184.59070176713675 A 2000 2000 0.0 0,0 111.76205683954737 219.42216720066364 A 120.0 120.0 0.0 0,0 134.83416127053562 214.83284028786503 A 2000 2000 0.0 0,0 124.67419756662939 181.3399285372377 A 85.0 85.0 0.0 0,1 108.33145692801273 184.59070176713675" fill="rgb(0,0,0)" stroke="rgb(0,0,255)" stroke-width="0" /><path d="M 75.32580243337081 181.33992853723777 A 2000 2000 0.0 0,0 65.16583872946467 214.8328402878651 A 120.0 120.0 0.0 0,0 88.23794316045291 219.42216720066364 A 2000 2000 0.0 0,0 91.66854307198747 184.59070176713675 A 85.0 85.0 0.0 0,1 75.32580243337081 181.33992853723777" fill="rgb(0,0,0)" stroke="rgb(0,0,255)" stroke-width="0" /><path d="M 46.07657084609019 165.70588853583268 A 2000 2000 0.0 0,0 23.87280590036262 192.7612544035285 A 120.0 120.0 0.0 0,0 43.43239158088031 205.83055172180264 A 2000 2000 0.0 0,0 59.931277369790216 174.96330746961019 A 85.0 85.0 0.0 0,1 46.07657084609019 165.70588853583268" fill="rgb(0,0,0)" stroke="rgb(0,0,255)" stroke-width="0" /><path d="M 25.036692530389843 140.06872263020983 A 2000 2000 0.0 0,0 -5.830551721802578 156.56760841911978 A 120.0 120.0 0.0 0,0 7.238745596471546 176.12719409963745 A 2000 2000 0.0 0,0 34.294111464167344 153.92342915390986 A 85.0 85.0 0.0 0,1 25.036692530389843 140.06872263020983" fill="rgb(0,0,0)" stroke="rgb(0,0,255)" stroke-width="0" /><path d="M 15.409298232863264 108.33145692801266 A 2000 2000 0.0 0,0 -19.422167200663637 111.76205683954727 A 120.0 120.0 0.0 0,0 -14.832840287865082 134.83416127053542 A 2000 2000 0.0 0,0 18.660071462762232 124.67419756662925 A 85.0 85.0 0.0 0,1 15.409298232863264 108.33145692801266" fill="rgb(0,0,0)" stroke="rgb(0,0,255)" stroke-width="0" /><path d="M 18.660071462762218 75.32580243337081 A 2000 2000 0.0 0,0 -14.83284028786511 65.16583872946467 A 120.0 120.0 0.0 0,0 -19.422167200663637 88.23794316045282 A 2000 2000 0.0 0,0 15.409298232863264 91.66854307198741 A 85.0 85.0 0.0 0,1 18.660071462762218 75.32580243337081" fill="rgb(0,0,0)" stroke="rgb(0,0,255)" stroke-width="0" /><path d="M 34.294111464167315 46.0765708460902 A 2000 2000 0.0 0,0 7.238745596471489 23.872805900362636 A 120.0 120.0 0.0 0,0 -5.830551721802621 43.43239158088031 A 2000 2000 0.0 0,0 25.036692530389814 59.931277369790216 A 85.0 85.0 0.0 0,1 34.294111464167315 46.0765708460902" fill="rgb(0,0,0)" stroke="rgb(0,0,255)" stroke-width="0" /><path d="M 59.931277369790166 25.036692530389843 A 2000 2000 0.0 0,0 43.43239158088023 -5.830551721802578 A 120.0 120.0 0.0 0,0 23.87280590036255 7.238745596471546 A 2000 2000 0.0 0,0 46.07657084609014 34.294111464167344 A 85.0 85.0 0.0 0,1 59.931277369790166 25.036692530389843" fill="rgb(0,0,0)" stroke="rgb(0,0,255)" stroke-width="0" /><path d="M 91.66854307198719 15.409298232863279 A 2000 2000 0.0 0,0 88.2379431604525 -19.42216720066361 A 120.0 120.0 0.0 0,0 65.16583872946438 -14.832840287865025 A 2000 2000 0.0 0,0 75.3258024333706 18.660071462762275 A 85.0 85.0 0.0 0,1 91.66854307198719 15.409298232863279" fill="rgb(0,0,0)" stroke="rgb(0,0,255)" stroke-width="0" /><path d="M 124.67419756662933 18.66007146276226 A 2000 2000 0.0 0,0 134.8341612705355 -14.83284028786504 A 120.0 120.0 0.0 0,0 111.7620568395474 -19.422167200663623 A 2000 2000 0.0 0,0 108.33145692801274 15.409298232863264 A 85.0 85.0 0.0 0,1 124.67419756662933 18.66007146276226" fill="rgb(0,0,0)" stroke="rgb(0,0,255)" stroke-width="0" /><path d="M 153.9234291539098 34.294111464167315 A 2000 2000 0.0 0,0 176.12719409963736 7.238745596471489 A 120.0 120.0 0.0 0,0 156.5676084191197 -5.830551721802621 A 2000 2000 0.0 0,0 140.06872263020978 25.036692530389814 A 85.0 85.0 0.0 0,1 153.9234291539098 34.294111464167315" fill="rgb(0,0,0)" stroke="rgb(0,0,255)" stroke-width="0" /><path d="M 174.96330746961007 59.931277369790024 A 2000 2000 0.0 0,0 205.83055172180246 43.43239158088003 A 120.0 120.0 0.0 0,0 192.7612544035283 23.87280590036238 A 2000 2000 0.0 0,0 165.70588853583257 46.07657084609002 A 85.0 85.0 0.0 0,1 174.96330746961007 59.931277369790024" fill="rgb(0,0,0)" stroke="rgb(0,0,255)" stroke-width="0" /></svg>