<?xml version="1.0" encoding="utf-8" ?>
<svg baseProfile="full" height="100%" version="1.1" width="100%" xmlns="http://www.w3.org/2000/svg" xmlns:ev="http://www.w3.org/2001/xml-events" xmlns:xlink="http://www.w3.org/1999/xlink"><defs /><path d="M 225.0 250.0 A 5000 5000 0.0 0,0 196.875 250.0 A 53.125 53.125 0.0 0,0 303.125 250.0 A 5000 5000 0.0 0,0 275.0 250.0 A 25.0 25.0 0.0 0,1 225.0 250.0" fill="rgb(0,0,0)" stroke="rgb(0,0,255)" stroke-width="0" /><path d="M 250.0 196.875 A 5000 5000 0.0 0,0 249.99999999999997 168.75 A 81.25 81.25 0.0 0,0 250.0 331.25 A 5000 5000 0.0 0,0 250.0 303.125 A 53.125 53.125 0.0 0,1 250.0 196.875" fill="rgb(0,0,0)" stroke="rgb(0,0,255)" stroke-width="0" /><path d="M 307.45242597140697 192.547574028593 A 5000 5000 0.0 0,0 327.3398041922786 172.66019580772135 A 109.375 109.375 0.0 0,0 172.66019580772135 172.66019580772138 A 5000 5000 0.0 0,0 192.547574028593 192.54757402859303 A 81.25 81.25 0.0 0,1 307.45242597140697 192.547574028593" fill="rgb(0,0,0)" stroke="rgb(0,0,255)" stroke-width="0" /><path d="M 192.5475740285931 307.452425971407 A 5000 5000 0.0 0,0 172.66019580772144 327.33980419227873 A 109.375 109.375 0.0 0,0 327.33980419227873 327.33980419227856 A 5000 5000 0.0 0,0 307.452425971407 307.4524259714069 A 81.25 81.25 0.0 0,1 192.5475740285931 307.452425971407" fill="rgb(0,0,0)" stroke="rgb(0,0,255)" stroke-width="0" /><path d="M 351.049323868422 208.14399958506823 A 5000 5000 0.0 0,0 377.0334357203019 197.38102804980008 A 137.5 137.5 0.0 0,0 302.61897195019975 122.96656427969805 A 5000 5000 0.0 0,0 291.8560004149316 148.950676131578 A 109.375 109.375 0.0 0,1 351.049323868422 208.14399958506823" fill="rgb(0,0,0)" stroke="rgb(0,0,255)" stroke-width="0" /><path d="M 291.85600041493177 351.049323868422 A 5000 5000 0.0 0,0 302.6189719501999 377.0334357203019 A 137.5 137.5 0.0 0,0 377.03343572030195 302.61897195019975 A 5000 5000 0.0 0,0 351.049323868422 291.8560004149316 A 109.375 109.375 0.0 0,1 291.85600041493177 351.049323868422" fill="rgb(0,0,0)" stroke="rgb(0,0,255)" stroke-width="0" /><path d="M 148.95067613157806 291.85600041493177 A 5000 5000 0.0 0,0 122.96656427969812 302.6189719501999 A 137.5 137.5 0.0 0,0 197.38102804980014 377.0334357203019 A 5000 5000 0.0 0,0 208.1439995850683 351.049323868422 A 109.375 109.375 0.0 0,1 148.95067613157806 291.85600041493177" fill="rgb(0,0,0)" stroke="rgb(0,0,255)" stroke-width="0" /><path d="M 208.14399958506823 148.95067613157806 A 5000 5000 0.0 0,0 197.38102804980005 122.96656427969812 A 137.5 137.5 0.0 0,0 122.96656427969798 197.38102804980036 A 5000 5000 0.0 0,0 148.95067613157795 208.14399958506849 A 109.375 109.375 0.0 0,1 208.14399958506823 148.95067613157806" fill="rgb(0,0,0)" stroke="rgb(0,0,255)" stroke-width="0" /><path d="M 384.85797605544417 223.1750807227823 A 5000 5000 0.0 0,0 412.44256206678506 217.68816541607868 A 165.625 165.625 0.0 0,0 387.7121545376091 157.9836801561284 A 5000 5000 0.0 0,0 364.32707169159994 173.60909295980468 A 137.5 137.5 0.0 0,1 384.85797605544417 223.1750807227823" fill="rgb(0,0,0)" stroke="rgb(0,0,255)" stroke-width="0" /><path d="M 364.3270716916 326.39090704019526 A 5000 5000 0.0 0,0 387.7121545376091 342.01631984387154 A 165.625 165.625 0.0 0,0 412.44256206678506 282.3118345839211 A 5000 5000 0.0 0,0 384.8579760554442 276.82491927721753 A 137.5 137.5 0.0 0,1 364.3270716916 326.39090704019526" fill="rgb(0,0,0)" stroke="rgb(0,0,255)" stroke-width="0" /><path d="M 276.8249192772177 384.85797605544417 A 5000 5000 0.0 0,0 282.3118345839213 412.44256206678506 A 165.625 165.625 0.0 0,0 342.01631984387166 387.7121545376091 A 5000 5000 0.0 0,0 326.3909070401953 364.32707169159994 A 137.5 137.5 0.0 0,1 276.8249192772177 384.85797605544417" fill="rgb(0,0,0)" stroke="rgb(0,0,255)" stroke-width="0" /><path d="M 173.60909295980474 364.3270716916 A 5000 5000 0.0 0,0 157.98368015612846 387.7121545376091 A 165.625 165.625 0.0 0,0 217.6881654160789 412.44256206678506 A 5000 5000 0.0 0,0 223.1750807227825 384.8579760554442 A 137.5 137.5 0.0 0,1 173.60909295980474 364.3270716916" fill="rgb(0,0,0)" stroke="rgb(0,0,255)" stroke-width="0" /><path d="M 115.1420239445558 276.8249192772176 A 5000 5000 0.0 0,0 87.55743793321494 282.3118345839212 A 165.625 165.625 0.0 0,0 112.28784546239098 342.01631984387166 A 5000 5000 0.0 0,0 135.67292830840006 326.3909070401953 A 137.5 137.5 0.0 0,1 115.1420239445558 276.8249192772176" fill="rgb(0,0,0)" stroke="rgb(0,0,255)" stroke-width="0" /><path d="M 135.6729283084 173.60909295980474 A 5000 5000 0.0 0,0 112.28784546239089 157.98368015612846 A 165.625 165.625 0.0 0,0 87.55743793321491 217.68816541607893 A 5000 5000 0.0 0,0 115.14202394455577 223.1750807227825 A 137.5 137.5 0.0 0,1 135.6729283084 173.60909295980474" fill="rgb(0,0,0)" stroke="rgb(0,0,255)" stroke-width="0" /><path d="M 223.17508072278216 115.14202394455586 A 5000 5000 0.0 0,0 217.6881654160785 87.55743793321503 A 165.625 165.625 0.0 0,0 157.98368015612812 112.28784546239112 A 5000 5000 0.0 0,0 173.60909295980446 135.67292830840017 A 137.5 137.5 0.0 0,1 223.17508072278216 115.14202394455586" fill="rgb(0,0,0)" stroke="rgb(0,0,255)" stroke-width="0" /><path d="M 326.3909070401952 135.6729283084 A 5000 5000 0.0 0,0 342.01631984387154 112.28784546239089 A 165.625 165.625 0.0 0,0 282.31183458392104 87.55743793321491 A 5000 5000 0.0 0,0 276.8249192772175 115.14202394455577 A 137.5 137.5 0.0 0,1 326.3909070401952 135.6729283084" fill="rgb(0,0,0)" stroke="rgb(0,0,255)" stroke-width="0" /><path d="M 414.8274703550826 233.7659111329164 A 5000 5000 0.0 0,0 442.8170407927381 231.00917906114748 A 193.75 193.75 0.0 0,0 435.4071900481154 193.75734378194772 A 5000 5000 0.0 0,0 408.493243105647 201.9216003297295 A 165.625 165.625 0.0 0,1 414.8274703550826 233.7659111329164" fill="rgb(0,0,0)" stroke="rgb(0,0,255)" stroke-width="0" /><path d="M 408.49324310564714 298.07839967027013 A 5000 5000 0.0 0,0 435.4071900481156 306.2426562180518 A 193.75 193.75 0.0 0,0 442.81704079273817 268.9908209388521 A 5000 5000 0.0 0,0 414.8274703550826 266.23408886708324 A 165.625 165.625 0.0 0,1 408.49324310564714 298.07839967027013" fill="rgb(0,0,0)" stroke="rgb(0,0,255)" stroke-width="0" /><path d="M 378.0298563382034 355.0713876896037 A 5000 5000 0.0 0,0 399.77077533903037 372.9136988067062 A 193.75 193.75 0.0 0,0 420.8722449674939 341.3331177600369 A 5000 5000 0.0 0,0 396.0682094076964 328.0750845368057 A 165.625 165.625 0.0 0,1 378.0298563382034 355.0713876896037" fill="rgb(0,0,0)" stroke="rgb(0,0,255)" stroke-width="0" /><path d="M 328.0750845368059 396.06820940769626 A 5000 5000 0.0 0,0 341.3331177600371 420.87224496749377 A 193.75 193.75 0.0 0,0 372.9136988067064 399.7707753390302 A 5000 5000 0.0 0,0 355.07138768960385 378.0298563382032 A 165.625 165.625 0.0 0,1 328.0750845368059 396.06820940769626" fill="rgb(0,0,0)" stroke="rgb(0,0,255)" stroke-width="0" /><path d="M 266.23408886708364 414.8274703550826 A 5000 5000 0.0 0,0 268.99082093885255 442.8170407927381 A 193.75 193.75 0.0 0,0 306.2426562180523 435.4071900481154 A 5000 5000 0.0 0,0 298.0783996702705 408.493243105647 A 165.625 165.625 0.0 0,1 266.23408886708364 414.8274703550826" fill="rgb(0,0,0)" stroke="rgb(0,0,255)" stroke-width="0" /><path d="M 201.92160032972987 408.49324310564714 A 5000 5000 0.0 0,0 193.75734378194815 435.4071900481156 A 193.75 193.75 0.0 0,0 231.00917906114793 442.81704079273817 A 5000 5000 0.0 0,0 233.76591113291678 414.8274703550826 A 165.625 165.625 0.0 0,1 201.92160032972987 408.49324310564714" fill="rgb(0,0,0)" stroke="rgb(0,0,255)" stroke-width="0" /><path d="M 144.92861231039632 378.02985633820344 A 5000 5000 0.0 0,0 127.08630119329382 399.77077533903037 A 193.75 193.75 0.0 0,0 158.666882239963 420.87224496749377 A 5000 5000 0.0 0,0 171.92491546319417 396.0682094076963 A 165.625 165.625 0.0 0,1 144.92861231039632 378.02985633820344" fill="rgb(0,0,0)" stroke="rgb(0,0,255)" stroke-width="0" /><path d="M 103.93179059230374 328.0750845368059 A 5000 5000 0.0 0,0 79.12775503250626 341.3331177600371 A 193.75 193.75 0.0 0,0 100.22922466096969 372.9136988067063 A 5000 5000 0.0 0,0 121.97014366179667 355.07138768960374 A 165.625 165.625 0.0 0,1 103.93179059230374 328.0750845368059" fill="rgb(0,0,0)" stroke="rgb(0,0,255)" stroke-width="0" /><path d="M 85.17252964491738 266.23408886708347 A 5000 5000 0.0 0,0 57.18295920726183 268.9908209388524 A 193.75 193.75 0.0 0,0 64.5928099518845 306.242656218052 A 5000 5000 0.0 0,0 91.50675689435289 298.07839967027024 A 165.625 165.625 0.0 0,1 85.17252964491738 266.23408886708347" fill="rgb(0,0,0)" stroke="rgb(0,0,255)" stroke-width="0" /><path d="M 91.50675689435283 201.9216003297299 A 5000 5000 0.0 0,0 64.59280995188445 193.75734378194818 A 193.75 193.75 0.0 0,0 57.18295920726183 231.00917906114776 A 5000 5000 0.0 0,0 85.17252964491738 233.76591113291664 A 165.625 165.625 0.0 0,1 91.50675689435283 201.9216003297299" fill="rgb(0,0,0)" stroke="rgb(0,0,255)" stroke-width="0" /><path d="M 121.97014366179658 144.92861231039635 A 5000 5000 0.0 0,0 100.2292246609696 127.08630119329383 A 193.75 193.75 0.0 0,0 79.1277550325062 158.666882239963 A 5000 5000 0.0 0,0 103.93179059230368 171.92491546319417 A 165.625 165.625 0.0 0,1 121.97014366179658 144.92861231039635" fill="rgb(0,0,0)" stroke="rgb(0,0,255)" stroke-width="0" /><path d="M 171.92491546319405 103.93179059230374 A 5000 5000 0.0 0,0 158.6668822399629 79.12775503250626 A 193.75 193.75 0.0 0,0 127.0863011932937 100.22922466096969 A 5000 5000 0.0 0,0 144.92861231039623 121.97014366179667 A 165.625 165.625 0.0 0,1 171.92491546319405 103.93179059230374" fill="rgb(0,0,0)" stroke="rgb(0,0,255)" stroke-width="0" /><path d="M 233.76591113291622 85.17252964491743 A 5000 5000 0.0 0,0 231.00917906114728 57.18295920726189 A 193.75 193.75 0.0 0,0 193.7573437819477 64.59280995188462 A 5000 5000 0.0 0,0 201.92160032972947 91.50675689435297 A 165.625 165.625 0.0 0,1 233.76591113291622 85.17252964491743" fill="rgb(0,0,0)" stroke="rgb(0,0,255)" stroke-width="0" /><path d="M 298.07839967027036 91.50675689435292 A 5000 5000 0.0 0,0 306.24265621805216 64.59280995188456 A 193.75 193.75 0.0 0,0 268.99082093885255 57.18295920726186 A 5000 5000 0.0 0,0 266.23408886708364 85.1725296449174 A 165.625 165.625 0.0 0,1 298.07839967027036 91.50675689435292" fill="rgb(0,0,0)" stroke="rgb(0,0,255)" stroke-width="0" /><path d="M 355.0713876896036 121.97014366179658 A 5000 5000 0.0 0,0 372.9136988067062 100.2292246609696 A 193.75 193.75 0.0 0,0 341.333117760037 79.1277550325062 A 5000 5000 0.0 0,0 328.07508453680583 103.93179059230368 A 165.625 165.625 0.0 0,1 355.0713876896036 121.97014366179658" fill="rgb(0,0,0)" stroke="rgb(0,0,255)" stroke-width="0" /><path d="M 396.06820940769614 171.92491546319377 A 5000 5000 0.0 0,0 420.87224496749354 158.66688223996255 A 193.75 193.75 0.0 0,0 399.7707753390301 127.08630119329342 A 5000 5000 0.0 0,0 378.0298563382031 144.92861231039598 A 165.625 165.625 0.0 0,1 396.06820940769614 171.92491546319377" fill="rgb(0,0,0)" stroke="rgb(0,0,255)" stroke-width="0" /><path d="M 443.5166196397521 240.49313809906258 A 5000 5000 0.0 0,0 471.6077418455226 239.1131097586039 A 221.875 221.875 0.0 0,0 469.47353814843575 217.44417598021647 A 5000 5000 0.0 0,0 441.65294880567626 221.57097057427353 A 193.75 193.75 0.0 0,1 443.5166196397521 240.49313809906258" fill="rgb(0,0,0)" stroke="rgb(0,0,255)" stroke-width="0" /><path d="M 441.6529488056764 278.4290294257262 A 5000 5000 0.0 0,0 469.4735381484358 282.55582401978324 A 221.875 221.875 0.0 0,0 471.60774184552264 260.8868902413958 A 5000 5000 0.0 0,0 443.51661963975215 259.50686190093717 A 193.75 193.75 0.0 0,1 441.6529488056764 278.4290294257262" fill="rgb(0,0,0)" stroke="rgb(0,0,255)" stroke-width="0" /><path d="M 432.4241626292104 315.2724090947424 A 5000 5000 0.0 0,0 458.9050894624828 324.7474362213985 A 221.875 221.875 0.0 0,0 465.22568430253955 303.91122741603647 A 5000 5000 0.0 0,0 437.94355530644293 297.0774098562572 A 193.75 193.75 0.0 0,1 432.4241626292104 315.2724090947424" fill="rgb(0,0,0)" stroke="rgb(0,0,255)" stroke-width="0" /><path d="M 416.18491818755285 349.60740668743654 A 5000 5000 0.0 0,0 440.3085353438105 364.06654636787084 A 221.875 221.875 0.0 0,0 450.5726244117641 344.8637863548437 A 5000 5000 0.0 0,0 425.1479255426672 332.838799352117 A 193.75 193.75 0.0 0,1 416.18491818755285 349.60740668743654" fill="rgb(0,0,0)" stroke="rgb(0,0,255)" stroke-width="0" /><path d="M 393.5592805375235 380.11454750160965 A 5000 5000 0.0 0,0 414.39853093813167 399.00214310668207 A 221.875 221.875 0.0 0,0 428.21167104726817 382.17078318425854 A 5000 5000 0.0 0,0 405.62145922437503 365.41674024540885 A 193.75 193.75 0.0 0,1 393.5592805375235 380.11454750160965" fill="rgb(0,0,0)" stroke="rgb(0,0,255)" stroke-width="0" /><path d="M 365.4167402454091 405.62145922437486 A 5000 5000 0.0 0,0 382.17078318425877 428.211671047268 A 221.875 221.875 0.0 0,0 399.0021431066823 414.39853093813144 A 5000 5000 0.0 0,0 380.1145475016099 393.55928053752325 A 193.75 193.75 0.0 0,1 365.4167402454091 405.62145922437486" fill="rgb(0,0,0)" stroke="rgb(0,0,255)" stroke-width="0" /><path d="M 332.83879935211723 425.1479255426671 A 5000 5000 0.0 0,0 344.86378635484397 450.57262441176397 A 221.875 221.875 0.0 0,0 364.0665463678711 440.3085353438104 A 5000 5000 0.0 0,0 349.60740668743676 416.18491818755274 A 193.75 193.75 0.0 0,1 332.83879935211723 425.1479255426671" fill="rgb(0,0,0)" stroke="rgb(0,0,255)" stroke-width="0" /><path d="M 297.0774098562576 437.9435553064428 A 5000 5000 0.0 0,0 303.9112274160369 465.2256843025394 A 221.875 221.875 0.0 0,0 324.747436221399 458.9050894624827 A 5000 5000 0.0 0,0 315.2724090947428 432.42416262921023 A 193.75 193.75 0.0 0,1 297.0774098562576 437.9435553064428" fill="rgb(0,0,0)" stroke="rgb(0,0,255)" stroke-width="0" /><path d="M 259.50686190093745 443.5166196397521 A 5000 5000 0.0 0,0 260.8868902413961 471.6077418455226 A 221.875 221.875 0.0 0,0 282.55582401978353 469.47353814843575 A 5000 5000 0.0 0,0 278.42902942572647 441.65294880567626 A 193.75 193.75 0.0 0,1 259.50686190093745 443.5166196397521" fill="rgb(0,0,0)" stroke="rgb(0,0,255)" stroke-width="0" /><path d="M 221.57097057427382 441.6529488056764 A 5000 5000 0.0 0,0 217.44417598021678 469.4735381484358 A 221.875 221.875 0.0 0,0 239.11310975860422 471.60774184552264 A 5000 5000 0.0 0,0 240.49313809906286 443.51661963975215 A 193.75 193.75 0.0 0,1 221.57097057427382 441.6529488056764" fill="rgb(0,0,0)" stroke="rgb(0,0,255)" stroke-width="0" /><path d="M 184.7275909052576 432.4241626292104 A 5000 5000 0.0 0,0 175.25256377860148 458.9050894624828 A 221.875 221.875 0.0 0,0 196.08877258396356 465.22568430253955 A 5000 5000 0.0 0,0 202.92259014374284 437.94355530644293 A 193.75 193.75 0.0 0,1 184.7275909052576 432.4241626292104" fill="rgb(0,0,0)" stroke="rgb(0,0,255)" stroke-width="0" /><path d="M 150.39259331256363 416.18491818755297 A 5000 5000 0.0 0,0 135.93345363212933 440.3085353438106 A 221.875 221.875 0.0 0,0 155.13621364515654 450.5726244117642 A 5000 5000 0.0 0,0 167.16120064788316 425.1479255426673 A 193.75 193.75 0.0 0,1 150.39259331256363 416.18491818755297" fill="rgb(0,0,0)" stroke="rgb(0,0,255)" stroke-width="0" /><path d="M 119.88545249839032 393.5592805375235 A 5000 5000 0.0 0,0 100.99785689331796 414.39853093813167 A 221.875 221.875 0.0 0,0 117.82921681574146 428.21167104726817 A 5000 5000 0.0 0,0 134.58325975459115 405.62145922437503 A 193.75 193.75 0.0 0,1 119.88545249839032 393.5592805375235" fill="rgb(0,0,0)" stroke="rgb(0,0,255)" stroke-width="0" /><path d="M 94.37854077562505 365.41674024540896 A 5000 5000 0.0 0,0 71.78832895273192 382.17078318425865 A 221.875 221.875 0.0 0,0 85.60146906186839 399.0021431066822 A 5000 5000 0.0 0,0 106.44071946247664 380.11454750160976 A 193.75 193.75 0.0 0,1 94.37854077562505 365.41674024540896" fill="rgb(0,0,0)" stroke="rgb(0,0,255)" stroke-width="0" /><path d="M 74.85207445733289 332.83879935211723 A 5000 5000 0.0 0,0 49.42737558823606 344.86378635484397 A 221.875 221.875 0.0 0,0 59.69146465618968 364.0665463678711 A 5000 5000 0.0 0,0 83.81508181244732 349.60740668743676 A 193.75 193.75 0.0 0,1 74.85207445733289 332.83879935211723" fill="rgb(0,0,0)" stroke="rgb(0,0,255)" stroke-width="0" /><path d="M 62.05644469355718 297.07740985625765 A 5000 5000 0.0 0,0 34.77431569746062 303.911227416037 A 221.875 221.875 0.0 0,0 41.094910537517336 324.747436221399 A 5000 5000 0.0 0,0 67.57583737078977 315.2724090947428 A 193.75 193.75 0.0 0,1 62.05644469355718 297.07740985625765" fill="rgb(0,0,0)" stroke="rgb(0,0,255)" stroke-width="0" /><path d="M 56.48338036024788 259.5068619009376 A 5000 5000 0.0 0,0 28.39225815447739 260.8868902413963 A 221.875 221.875 0.0 0,0 30.526461851564278 282.55582401978376 A 5000 5000 0.0 0,0 58.34705119432374 278.42902942572664 A 193.75 193.75 0.0 0,1 56.48338036024788 259.5068619009376" fill="rgb(0,0,0)" stroke="rgb(0,0,255)" stroke-width="0" /><path d="M 58.347051194323654 221.57097057427382 A 5000 5000 0.0 0,0 30.526461851564193 217.4441759802168 A 221.875 221.875 0.0 0,0 28.39225815447736 239.11310975860425 A 5000 5000 0.0 0,0 56.48338036024785 240.49313809906286 A 193.75 193.75 0.0 0,1 58.347051194323654 221.57097057427382" fill="rgb(0,0,0)" stroke="rgb(0,0,255)" stroke-width="0" /><path d="M 67.57583737078963 184.72759090525764 A 5000 5000 0.0 0,0 41.094910537517165 175.25256377860148 A 221.875 221.875 0.0 0,0 34.77431569746048 196.0887725839636 A 5000 5000 0.0 0,0 62.05644469355704 202.92259014374287 A 193.75 193.75 0.0 0,1 67.57583737078963 184.72759090525764" fill="rgb(0,0,0)" stroke="rgb(0,0,255)" stroke-width="0" /><path d="M 83.81508181244723 150.39259331256335 A 5000 5000 0.0 0,0 59.69146465618957 135.93345363212902 A 221.875 221.875 0.0 0,0 49.427375588236 155.1362136451562 A 5000 5000 0.0 0,0 74.85207445733286 167.16120064788288 A 193.75 193.75 0.0 0,1 83.81508181244723 150.39259331256335" fill="rgb(0,0,0)" stroke="rgb(0,0,255)" stroke-width="0" /><path d="M 106.44071946247652 119.88545249839035 A 5000 5000 0.0 0,0 85.60146906186827 100.99785689331799 A 221.875 221.875 0.0 0,0 71.7883289527318 117.82921681574149 A 5000 5000 0.0 0,0 94.37854077562497 134.58325975459115 A 193.75 193.75 0.0 0,1 106.44071946247652 119.88545249839035" fill="rgb(0,0,0)" stroke="rgb(0,0,255)" stroke-width="0" /><path d="M 134.58325975459076 94.37854077562525 A 5000 5000 0.0 0,0 117.82921681574103 71.78832895273214 A 221.875 221.875 0.0 0,0 100.99785689331756 85.60146906186867 A 5000 5000 0.0 0,0 119.88545249838998 106.44071946247686 A 193.75 193.75 0.0 0,1 134.58325975459076 94.37854077562525" fill="rgb(0,0,0)" stroke="rgb(0,0,255)" stroke-width="0" /><path d="M 167.16120064788242 74.85207445733306 A 5000 5000 0.0 0,0 155.13621364515566 49.42737558823626 A 221.875 221.875 0.0 0,0 135.93345363212853 59.69146465618988 A 5000 5000 0.0 0,0 150.39259331256295 83.81508181244749 A 193.75 193.75 0.0 0,1 167.16120064788242 74.85207445733306" fill="rgb(0,0,0)" stroke="rgb(0,0,255)" stroke-width="0" /><path d="M 202.92259014374235 62.05644469355718 A 5000 5000 0.0 0,0 196.08877258396302 34.77431569746062 A 221.875 221.875 0.0 0,0 175.25256377860097 41.094910537517336 A 5000 5000 0.0 0,0 184.7275909052572 67.57583737078977 A 193.75 193.75 0.0 0,1 202.92259014374235 62.05644469355718" fill="rgb(0,0,0)" stroke="rgb(0,0,255)" stroke-width="0" /><path d="M 240.49313809906272 56.48338036024785 A 5000 5000 0.0 0,0 239.11310975860408 28.39225815447736 A 221.875 221.875 0.0 0,0 217.44417598021664 30.52646185156422 A 5000 5000 0.0 0,0 221.57097057427367 58.34705119432368 A 193.75 193.75 0.0 0,1 240.49313809906272 56.48338036024785" fill="rgb(0,0,0)" stroke="rgb(0,0,255)" stroke-width="0" /><path d="M 278.4290294257262 58.347051194323654 A 5000 5000 0.0 0,0 282.5558240197832 30.526461851564193 A 221.875 221.875 0.0 0,0 260.88689024139575 28.39225815447736 A 5000 5000 0.0 0,0 259.5068619009371 56.48338036024785 A 193.75 193.75 0.0 0,1 278.4290294257262 58.347051194323654" fill="rgb(0,0,0)" stroke="rgb(0,0,255)" stroke-width="0" /><path d="M 315.27240909474233 67.5758373707896 A 5000 5000 0.0 0,0 324.7474362213985 41.09491053751714 A 221.875 221.875 0.0 0,0 303.9112274160364 34.77431569746048 A 5000 5000 0.0 0,0 297.07740985625713 62.05644469355704 A 193.75 193.75 0.0 0,1 315.27240909474233 67.5758373707896" fill="rgb(0,0,0)" stroke="rgb(0,0,255)" stroke-width="0" /><path d="M 349.6074066874363 83.81508181244706 A 5000 5000 0.0 0,0 364.0665463678706 59.69146465618937 A 221.875 221.875 0.0 0,0 344.86378635484346 49.42737558823583 A 5000 5000 0.0 0,0 332.8387993521168 74.85207445733269 A 193.75 193.75 0.0 0,1 349.6074066874363 83.81508181244706" fill="rgb(0,0,0)" stroke="rgb(0,0,255)" stroke-width="0" /><path d="M 380.11454750160965 106.44071946247652 A 5000 5000 0.0 0,0 399.002143106682 85.60146906186827 A 221.875 221.875 0.0 0,0 382.17078318425854 71.7883289527318 A 5000 5000 0.0 0,0 365.41674024540885 94.37854077562497 A 193.75 193.75 0.0 0,1 380.11454750160965 106.44071946247652" fill="rgb(0,0,0)" stroke="rgb(0,0,255)" stroke-width="0" /><path d="M 405.6214592243749 134.58325975459104 A 5000 5000 0.0 0,0 428.21167104726806 117.82921681574135 A 221.875 221.875 0.0 0,0 414.39853093813156 100.99785689331785 A 5000 5000 0.0 0,0 393.55928053752336 119.88545249839021 A 193.75 193.75 0.0 0,1 405.6214592243749 134.58325975459104" fill="rgb(0,0,0)" stroke="rgb(0,0,255)" stroke-width="0" /><path d="M 425.14792554266705 167.1612006478827 A 5000 5000 0.0 0,0 450.5726244117639 155.13621364515603 A 221.875 221.875 0.0 0,0 440.3085353438103 135.93345363212885 A 5000 5000 0.0 0,0 416.1849181875527 150.39259331256324 A 193.75 193.75 0.0 0,1 425.14792554266705 167.1612006478827" fill="rgb(0,0,0)" stroke="rgb(0,0,255)" stroke-width="0" /><path d="M 437.9435553064428 202.92259014374235 A 5000 5000 0.0 0,0 465.2256843025394 196.08877258396302 A 221.875 221.875 0.0 0,0 458.90508946248264 175.25256377860097 A 5000 5000 0.0 0,0 432.4241626292102 184.72759090525716 A 193.75 193.75 0.0 0,1 437.9435553064428 202.92259014374235" fill="rgb(0,0,0)" stroke="rgb(0,0,255)" stroke-width="0" /><path d="M 471.8081753982203 244.5549149214786 A 5000 5000 0.0 0,0 499.92470467405104 243.86469286927166 A 250.0 250.0 0.0 0,0 499.32261416967253 231.60885910008292 A 5000 5000 0.0 0,0 471.27382007558435 233.6778624513236 A 221.875 221.875 0.0 0,1 471.8081753982203 244.5549149214786" fill="rgb(0,0,0)" stroke="rgb(0,0,255)" stroke-width="0" /><path d="M 471.2738200755844 266.3221375486759 A 5000 5000 0.0 0,0 499.3226141696726 268.39114089991654 A 250.0 250.0 0.0 0,0 499.9247046740511 256.13530713072777 A 5000 5000 0.0 0,0 471.8081753982203 255.4450850785209 A 221.875 221.875 0.0 0,1 471.2738200755844 266.3221375486759" fill="rgb(0,0,0)" stroke="rgb(0,0,255)" stroke-width="0" /><path d="M 468.60847690504636 287.9321690686917 A 5000 5000 0.0 0,0 496.31941059723533 292.7404721900751 A 250.0 250.0 0.0 0,0 498.1198836496775 280.6026687998039 A 5000 5000 0.0 0,0 470.2063967390888 277.15986855982595 A 221.875 221.875 0.0 0,1 468.60847690504636 287.9321690686917" fill="rgb(0,0,0)" stroke="rgb(0,0,255)" stroke-width="0" /><path d="M 463.83781459836325 309.17689306474284 A 5000 5000 0.0 0,0 490.94401644886005 316.6781893687243 A 250.0 250.0 0.0 0,0 493.9255325096322 304.7753100392172 A 5000 5000 0.0 0,0 466.4839101022986 298.6130876598053 A 221.875 221.875 0.0 0,1 463.83781459836325 309.17689306474284" fill="rgb(0,0,0)" stroke="rgb(0,0,255)" stroke-width="0" /><path d="M 457.0077772414577 329.8517112312004 A 5000 5000 0.0 0,0 483.24819970868475 339.9737591337469 A 250.0 250.0 0.0 0,0 487.3820451482592 328.4204350997228 A 5000 5000 0.0 0,0 460.67656506908 319.5981361510039 A 221.875 221.875 0.0 0,1 457.0077772414577 329.8517112312004" fill="rgb(0,0,0)" stroke="rgb(0,0,255)" stroke-width="0" /><path d="M 448.18414182775507 349.75751376711565 A 5000 5000 0.0 0,0 473.3060752988789 362.4028324136514 A 250.0 250.0 0.0 0,0 478.55243892588277 351.3103285012473 A 5000 5000 0.0 0,0 452.84028954672095 339.91291654485696 A 221.875 221.875 0.0 0,1 448.18414182775507 349.75751376711565" fill="rgb(0,0,0)" stroke="rgb(0,0,255)" stroke-width="0" /><path d="M 437.4518847897789 368.70259691244945 A 5000 5000 0.0 0,0 461.21339131242695 383.749404971774 A 250.0 250.0 0.0 0,0 467.521747777178 373.22454805744576 A 5000 5000 0.0 0,0 443.0505511522455 359.3617864009831 A 221.875 221.875 0.0 0,1 437.4518847897789 368.70259691244945" fill="rgb(0,0,0)" stroke="rgb(0,0,255)" stroke-width="0" /><path d="M 424.9143636296534 386.50450916007645 A 5000 5000 0.0 0,0 447.0866069066517 403.8078976451566 A 250.0 250.0 0.0 0,0 454.396203287896 393.95204785446117 A 5000 5000 0.0 0,0 431.4016304180077 377.7574424708343 A 221.875 221.875 0.0 0,1 424.9143636296534 386.50450916007645" fill="rgb(0,0,0)" stroke="rgb(0,0,255)" stroke-width="0" /><path d="M 410.6923215298569 402.99180836353656 A 5000 5000 0.0 0,0 431.06177073786694 422.38513618426657 A 250.0 250.0 0.0 0,0 439.3022116266213 413.29321073844403 A 5000 5000 0.0 0,0 418.0057128186264 394.92272453036907 A 221.875 221.875 0.0 0,1 410.6923215298569 402.99180836353656" fill="rgb(0,0,0)" stroke="rgb(0,0,255)" stroke-width="0" /><path d="M 394.92272453036946 418.0057128186261 A 5000 5000 0.0 0,0 413.2932107384445 439.3022116266209 A 250.0 250.0 0.0 0,0 422.38513618426697 431.06177073786654 A 5000 5000 0.0 0,0 402.99180836353696 410.69232152985654 A 221.875 221.875 0.0 0,1 394.92272453036946 418.0057128186261" fill="rgb(0,0,0)" stroke="rgb(0,0,255)" stroke-width="0" /><path d="M 377.7574424708346 431.40163041800747 A 5000 5000 0.0 0,0 393.9520478544615 454.3962032878958 A 250.0 250.0 0.0 0,0 403.80789764515686 447.08660690665147 A 5000 5000 0.0 0,0 386.50450916007674 424.91436362965317 A 221.875 221.875 0.0 0,1 377.7574424708346 431.40163041800747" fill="rgb(0,0,0)" stroke="rgb(0,0,255)" stroke-width="0" /><path d="M 359.36178640098353 443.05055115224525 A 5000 5000 0.0 0,0 373.22454805744627 467.52174777717767 A 250.0 250.0 0.0 0,0 383.74940497177454 461.21339131242667 A 5000 5000 0.0 0,0 368.70259691244985 437.45188478977866 A 221.875 221.875 0.0 0,1 359.36178640098353 443.05055115224525" fill="rgb(0,0,0)" stroke="rgb(0,0,255)" stroke-width="0" /><path d="M 339.91291654485747 452.8402895467207 A 5000 5000 0.0 0,0 351.3103285012478 478.5524389258825 A 250.0 250.0 0.0 0,0 362.40283241365194 473.3060752988787 A 5000 5000 0.0 0,0 349.7575137671161 448.18414182775484 A 221.875 221.875 0.0 0,1 339.91291654485747 452.8402895467207" fill="rgb(0,0,0)" stroke="rgb(0,0,255)" stroke-width="0" /><path d="M 319.59813615100427 460.67656506907997 A 5000 5000 0.0 0,0 328.42043509972314 487.38204514825907 A 250.0 250.0 0.0 0,0 339.9737591337472 483.24819970868464 A 5000 5000 0.0 0,0 329.8517112312006 457.00777724145763 A 221.875 221.875 0.0 0,1 319.59813615100427 460.67656506907997" fill="rgb(0,0,0)" stroke="rgb(0,0,255)" stroke-width="0" /><path d="M 298.6130876598058 466.48391010229847 A 5000 5000 0.0 0,0 304.7753100392178 493.92553250963203 A 250.0 250.0 0.0 0,0 316.6781893687249 490.9440164488599 A 5000 5000 0.0 0,0 309.1768930647433 463.83781459836314 A 221.875 221.875 0.0 0,1 298.6130876598058 466.48391010229847" fill="rgb(0,0,0)" stroke="rgb(0,0,255)" stroke-width="0" /><path d="M 277.15986855982624 470.20639673908875 A 5000 5000 0.0 0,0 280.60266879980423 498.1198836496775 A 250.0 250.0 0.0 0,0 292.7404721900755 496.3194105972353 A 5000 5000 0.0 0,0 287.93216906869196 468.6084769050463 A 221.875 221.875 0.0 0,1 277.15986855982624 470.20639673908875" fill="rgb(0,0,0)" stroke="rgb(0,0,255)" stroke-width="0" /><path d="M 255.4450850785214 471.8081753982203 A 5000 5000 0.0 0,0 256.13530713072834 499.92470467405104 A 250.0 250.0 0.0 0,0 268.3911408999171 499.32261416967253 A 5000 5000 0.0 0,0 266.32213754867644 471.27382007558435 A 221.875 221.875 0.0 0,1 255.4450850785214 471.8081753982203" fill="rgb(0,0,0)" stroke="rgb(0,0,255)" stroke-width="0" /><path d="M 233.6778624513241 471.2738200755844 A 5000 5000 0.0 0,0 231.6088591000835 499.3226141696726 A 250.0 250.0 0.0 0,0 243.86469286927223 499.9247046740511 A 5000 5000 0.0 0,0 244.5549149214791 471.8081753982203 A 221.875 221.875 0.0 0,1 233.6778624513241 471.2738200755844" fill="rgb(0,0,0)" stroke="rgb(0,0,255)" stroke-width="0" /><path d="M 212.06783093130855 468.6084769050464 A 5000 5000 0.0 0,0 207.25952780992515 496.3194105972354 A 250.0 250.0 0.0 0,0 219.39733120019636 498.11988364967755 A 5000 5000 0.0 0,0 222.84013144017428 470.20639673908886 A 221.875 221.875 0.0 0,1 212.06783093130855 468.6084769050464" fill="rgb(0,0,0)" stroke="rgb(0,0,255)" stroke-width="0" /><path d="M 190.82310693525739 463.83781459836337 A 5000 5000 0.0 0,0 183.32181063127592 490.9440164488601 A 250.0 250.0 0.0 0,0 195.22468996078302 493.92553250963226 A 5000 5000 0.0 0,0 201.38691234019495 466.48391010229864 A 221.875 221.875 0.0 0,1 190.82310693525739 463.83781459836337" fill="rgb(0,0,0)" stroke="rgb(0,0,255)" stroke-width="0" /><path d="M 170.14828876879966 457.00777724145775 A 5000 5000 0.0 0,0 160.02624086625312 483.2481997086848 A 250.0 250.0 0.0 0,0 171.57956490027726 487.3820451482592 A 5000 5000 0.0 0,0 180.40186384899607 460.67656506908 A 221.875 221.875 0.0 0,1 170.14828876879966 457.00777724145775" fill="rgb(0,0,0)" stroke="rgb(0,0,255)" stroke-width="0" /><path d="M 150.24248623288435 448.18414182775507 A 5000 5000 0.0 0,0 137.59716758634858 473.3060752988789 A 250.0 250.0 0.0 0,0 148.68967149875272 478.55243892588277 A 5000 5000 0.0 0,0 160.08708345514304 452.84028954672095 A 221.875 221.875 0.0 0,1 150.24248623288435 448.18414182775507" fill="rgb(0,0,0)" stroke="rgb(0,0,255)" stroke-width="0" /><path d="M 131.29740308755055 437.4518847897789 A 5000 5000 0.0 0,0 116.250595028226 461.21339131242695 A 250.0 250.0 0.0 0,0 126.77545194255426 467.521747777178 A 5000 5000 0.0 0,0 140.63821359901692 443.0505511522455 A 221.875 221.875 0.0 0,1 131.29740308755055 437.4518847897789" fill="rgb(0,0,0)" stroke="rgb(0,0,255)" stroke-width="0" /><path d="M 113.49549083992372 424.9143636296535 A 5000 5000 0.0 0,0 96.19210235484363 447.0866069066518 A 250.0 250.0 0.0 0,0 106.047952145539 454.3962032878961 A 5000 5000 0.0 0,0 122.24255752916586 431.4016304180078 A 221.875 221.875 0.0 0,1 113.49549083992372 424.9143636296535" fill="rgb(0,0,0)" stroke="rgb(0,0,255)" stroke-width="0" /><path d="M 97.00819163646332 410.69232152985677 A 5000 5000 0.0 0,0 77.61486381573332 431.06177073786677 A 250.0 250.0 0.0 0,0 86.7067892615558 439.3022116266211 A 5000 5000 0.0 0,0 105.07727546963079 418.00571281862625 A 221.875 221.875 0.0 0,1 97.00819163646332 410.69232152985677" fill="rgb(0,0,0)" stroke="rgb(0,0,255)" stroke-width="0" /><path d="M 81.99428718137383 394.92272453036935 A 5000 5000 0.0 0,0 60.697788373378955 413.29321073844426 A 250.0 250.0 0.0 0,0 68.93822926213332 422.3851361842668 A 5000 5000 0.0 0,0 89.30767847014334 402.9918083635368 A 221.875 221.875 0.0 0,1 81.99428718137383 394.92272453036935" fill="rgb(0,0,0)" stroke="rgb(0,0,255)" stroke-width="0" /><path d="M 68.5983695819925 377.7574424708346 A 5000 5000 0.0 0,0 45.60379671210421 393.9520478544615 A 250.0 250.0 0.0 0,0 52.91339309334856 403.8078976451569 A 5000 5000 0.0 0,0 75.08563637034683 386.50450916007674 A 221.875 221.875 0.0 0,1 68.5983695819925 377.7574424708346" fill="rgb(0,0,0)" stroke="rgb(0,0,255)" stroke-width="0" /><path d="M 56.94944884775478 359.3617864009836 A 5000 5000 0.0 0,0 32.478252222822306 373.22454805744627 A 250.0 250.0 0.0 0,0 38.78660868757339 383.74940497177454 A 5000 5000 0.0 0,0 62.54811521022137 368.7025969124499 A 221.875 221.875 0.0 0,1 56.94944884775478 359.3617864009836" fill="rgb(0,0,0)" stroke="rgb(0,0,255)" stroke-width="0" /><path d="M 47.159710453279274 339.91291654485747 A 5000 5000 0.0 0,0 21.447561074117488 351.31032850124785 A 250.0 250.0 0.0 0,0 26.693924701121347 362.40283241365194 A 5000 5000 0.0 0,0 51.815858172245186 349.7575137671161 A 221.875 221.875 0.0 0,1 47.159710453279274 339.91291654485747" fill="rgb(0,0,0)" stroke="rgb(0,0,255)" stroke-width="0" /><path d="M 39.32343493092014 319.59813615100444 A 5000 5000 0.0 0,0 12.61795485174099 328.4204350997233 A 250.0 250.0 0.0 0,0 16.75180029131542 339.9737591337474 A 5000 5000 0.0 0,0 42.992222758542454 329.85171123120085 A 221.875 221.875 0.0 0,1 39.32343493092014 319.59813615100444" fill="rgb(0,0,0)" stroke="rgb(0,0,255)" stroke-width="0" /><path d="M 33.51608989770159 298.61308765980596 A 5000 5000 0.0 0,0 6.074467490367994 304.775310039218 A 250.0 250.0 0.0 0,0 9.055983551140173 316.6781893687251 A 5000 5000 0.0 0,0 36.16218540163692 309.1768930647435 A 221.875 221.875 0.0 0,1 33.51608989770159 298.61308765980596" fill="rgb(0,0,0)" stroke="rgb(0,0,255)" stroke-width="0" /><path d="M 29.793603260911254 277.1598685598263 A 5000 5000 0.0 0,0 1.8801163503225382 280.60266879980423 A 250.0 250.0 0.0 0,0 3.680589402764724 292.7404721900755 A 5000 5000 0.0 0,0 31.391523094953698 287.93216906869196 A 221.875 221.875 0.0 0,1 29.793603260911254 277.1598685598263" fill="rgb(0,0,0)" stroke="rgb(0,0,255)" stroke-width="0" /><path d="M 28.1918246017797 255.44508507852143 A 5000 5000 0.0 0,0 0.07529532594895727 256.1353071307284 A 250.0 250.0 0.0 0,0 0.6773858303274665 268.3911408999171 A 5000 5000 0.0 0,0 28.726179924415646 266.32213754867644 A 221.875 221.875 0.0 0,1 28.1918246017797 255.44508507852143" fill="rgb(0,0,0)" stroke="rgb(0,0,255)" stroke-width="0" /><path d="M 28.72617992441559 233.67786245132413 A 5000 5000 0.0 0,0 0.6773858303274096 231.60885910008352 A 250.0 250.0 0.0 0,0 0.07529532594892885 243.86469286927226 A 5000 5000 0.0 0,0 28.191824601779672 244.55491492147914 A 221.875 221.875 0.0 0,1 28.72617992441559 233.67786245132413" fill="rgb(0,0,0)" stroke="rgb(0,0,255)" stroke-width="0" /><path d="M 31.39152309495367 212.06783093130818 A 5000 5000 0.0 0,0 3.6805894027646957 207.25952780992472 A 250.0 250.0 0.0 0,0 1.8801163503225098 219.39733120019594 A 5000 5000 0.0 0,0 29.793603260911226 222.84013144017388 A 221.875 221.875 0.0 0,1 31.39152309495367 212.06783093130818" fill="rgb(0,0,0)" stroke="rgb(0,0,255)" stroke-width="0" /><path d="M 36.16218540163675 190.82310693525702 A 5000 5000 0.0 0,0 9.055983551140002 183.32181063127553 A 250.0 250.0 0.0 0,0 6.0744674903678515 195.2246899607826 A 5000 5000 0.0 0,0 33.51608989770148 201.38691234019456 A 221.875 221.875 0.0 0,1 36.16218540163675 190.82310693525702" fill="rgb(0,0,0)" stroke="rgb(0,0,255)" stroke-width="0" /><path d="M 42.992222758542255 170.14828876879966 A 5000 5000 0.0 0,0 16.75180029131519 160.02624086625315 A 250.0 250.0 0.0 0,0 12.617954851740762 171.57956490027726 A 5000 5000 0.0 0,0 39.323434930919944 180.40186384899607 A 221.875 221.875 0.0 0,1 42.992222758542255 170.14828876879966" fill="rgb(0,0,0)" stroke="rgb(0,0,255)" stroke-width="0" /><path d="M 51.81585817224493 150.24248623288437 A 5000 5000 0.0 0,0 26.693924701121063 137.59716758634858 A 250.0 250.0 0.0 0,0 21.447561074117232 148.68967149875274 A 5000 5000 0.0 0,0 47.15971045327905 160.08708345514304 A 221.875 221.875 0.0 0,1 51.81585817224493 150.24248623288437" fill="rgb(0,0,0)" stroke="rgb(0,0,255)" stroke-width="0" /><path d="M 62.548115210221084 131.29740308755055 A 5000 5000 0.0 0,0 38.78660868757305 116.250595028226 A 250.0 250.0 0.0 0,0 32.47825222282199 126.77545194255427 A 5000 5000 0.0 0,0 56.949448847754525 140.63821359901692 A 221.875 221.875 0.0 0,1 62.548115210221084 131.29740308755055" fill="rgb(0,0,0)" stroke="rgb(0,0,255)" stroke-width="0" /><path d="M 75.08563637034649 113.49549083992372 A 5000 5000 0.0 0,0 52.91339309334816 96.19210235484363 A 250.0 250.0 0.0 0,0 45.60379671210384 106.047952145539 A 5000 5000 0.0 0,0 68.59836958199216 122.24255752916586 A 221.875 221.875 0.0 0,1 75.08563637034649 113.49549083992372" fill="rgb(0,0,0)" stroke="rgb(0,0,255)" stroke-width="0" /><path d="M 89.30767847014297 97.00819163646361 A 5000 5000 0.0 0,0 68.93822926213292 77.61486381573366 A 250.0 250.0 0.0 0,0 60.69778837337856 86.70678926155617 A 5000 5000 0.0 0,0 81.99428718137347 105.0772754696311 A 221.875 221.875 0.0 0,1 89.30767847014297 97.00819163646361" fill="rgb(0,0,0)" stroke="rgb(0,0,255)" stroke-width="0" /><path d="M 105.07727546963037 81.99428718137409 A 5000 5000 0.0 0,0 86.70678926155534 60.69778837337924 A 250.0 250.0 0.0 0,0 77.61486381573286 68.93822926213366 A 5000 5000 0.0 0,0 97.0081916364629 89.30767847014363 A 221.875 221.875 0.0 0,1 105.07727546963037 81.99428718137409" fill="rgb(0,0,0)" stroke="rgb(0,0,255)" stroke-width="0" /><path d="M 122.2425575291654 68.5983695819925 A 5000 5000 0.0 0,0 106.04795214553846 45.60379671210421 A 250.0 250.0 0.0 0,0 96.19210235484312 52.91339309334856 A 5000 5000 0.0 0,0 113.49549083992326 75.08563637034683 A 221.875 221.875 0.0 0,1 122.2425575291654 68.5983695819925" fill="rgb(0,0,0)" stroke="rgb(0,0,255)" stroke-width="0" /><path d="M 140.6382135990164 56.94944884775478 A 5000 5000 0.0 0,0 126.7754519425537 32.478252222822306 A 250.0 250.0 0.0 0,0 116.25059502822546 38.78660868757339 A 5000 5000 0.0 0,0 131.2974030875501 62.54811521022137 A 221.875 221.875 0.0 0,1 140.6382135990164 56.94944884775478" fill="rgb(0,0,0)" stroke="rgb(0,0,255)" stroke-width="0" /><path d="M 160.08708345514253 47.159710453279274 A 5000 5000 0.0 0,0 148.68967149875215 21.447561074117488 A 250.0 250.0 0.0 0,0 137.597167586348 26.693924701121347 A 5000 5000 0.0 0,0 150.24248623288386 51.815858172245186 A 221.875 221.875 0.0 0,1 160.08708345514253 47.159710453279274" fill="rgb(0,0,0)" stroke="rgb(0,0,255)" stroke-width="0" /><path d="M 180.4018638489959 39.32343493092 A 5000 5000 0.0 0,0 171.5795649002771 12.617954851740848 A 250.0 250.0 0.0 0,0 160.02624086625295 16.751800291315277 A 5000 5000 0.0 0,0 170.1482887687995 42.99222275854231 A 221.875 221.875 0.0 0,1 180.4018638489959 39.32343493092" fill="rgb(0,0,0)" stroke="rgb(0,0,255)" stroke-width="0" /><path d="M 201.38691234019439 33.516089897701505 A 5000 5000 0.0 0,0 195.22468996078243 6.07446749036788 A 250.0 250.0 0.0 0,0 183.3218106312753 9.05598355114006 A 5000 5000 0.0 0,0 190.82310693525685 36.162185401636805 A 221.875 221.875 0.0 0,1 201.38691234019439 33.516089897701505" fill="rgb(0,0,0)" stroke="rgb(0,0,255)" stroke-width="0" /><path d="M 222.8401314401737 29.793603260911254 A 5000 5000 0.0 0,0 219.39733120019574 1.8801163503225382 A 250.0 250.0 0.0 0,0 207.25952780992452 3.680589402764724 A 5000 5000 0.0 0,0 212.067830931308 31.391523094953698 A 221.875 221.875 0.0 0,1 222.8401314401737 29.793603260911254" fill="rgb(0,0,0)" stroke="rgb(0,0,255)" stroke-width="0" /><path d="M 244.55491492147857 28.1918246017797 A 5000 5000 0.0 0,0 243.8646928692716 0.07529532594895727 A 250.0 250.0 0.0 0,0 231.6088591000829 0.6773858303274665 A 5000 5000 0.0 0,0 233.67786245132356 28.726179924415646 A 221.875 221.875 0.0 0,1 244.55491492147857 28.1918246017797" fill="rgb(0,0,0)" stroke="rgb(0,0,255)" stroke-width="0" /><path d="M 266.32213754867587 28.72617992441559 A 5000 5000 0.0 0,0 268.3911408999165 0.6773858303274096 A 250.0 250.0 0.0 0,0 256.1353071307277 0.07529532594892885 A 5000 5000 0.0 0,0 255.44508507852086 28.191824601779672 A 221.875 221.875 0.0 0,1 266.32213754867587 28.72617992441559" fill="rgb(0,0,0)" stroke="rgb(0,0,255)" stroke-width="0" /><path d="M 287.93216906869145 31.391523094953584 A 5000 5000 0.0 0,0 292.74047219007485 3.6805894027646104 A 250.0 250.0 0.0 0,0 280.6026687998036 1.880116350322453 A 5000 5000 0.0 0,0 277.1598685598257 29.79360326091117 A 221.875 221.875 0.0 0,1 287.93216906869145 31.391523094953584" fill="rgb(0,0,0)" stroke="rgb(0,0,255)" stroke-width="0" /><path d="M 309.1768930647426 36.162185401636634 A 5000 5000 0.0 0,0 316.678189368724 9.05598355113986 A 250.0 250.0 0.0 0,0 304.77531003921695 6.074467490367738 A 5000 5000 0.0 0,0 298.61308765980505 33.51608989770136 A 221.875 221.875 0.0 0,1 309.1768930647426 36.162185401636634" fill="rgb(0,0,0)" stroke="rgb(0,0,255)" stroke-width="0" /><path d="M 329.85171123120034 42.992222758542255 A 5000 5000 0.0 0,0 339.97375913374685 16.75180029131519 A 250.0 250.0 0.0 0,0 328.4204350997227 12.617954851740762 A 5000 5000 0.0 0,0 319.5981361510039 39.323434930919944 A 221.875 221.875 0.0 0,1 329.85171123120034 42.992222758542255" fill="rgb(0,0,0)" stroke="rgb(0,0,255)" stroke-width="0" /><path d="M 349.7575137671156 51.8158581722449 A 5000 5000 0.0 0,0 362.40283241365137 26.693924701121034 A 250.0 250.0 0.0 0,0 351.3103285012472 21.447561074117232 A 5000 5000 0.0 0,0 339.9129165448569 47.15971045327905 A 221.875 221.875 0.0 0,1 349.7575137671156 51.8158581722449" fill="rgb(0,0,0)" stroke="rgb(0,0,255)" stroke-width="0" /><path d="M 368.7025969124494 62.548115210221056 A 5000 5000 0.0 0,0 383.74940497177397 38.78660868757302 A 250.0 250.0 0.0 0,0 373.2245480574457 32.47825222282199 A 5000 5000 0.0 0,0 359.3617864009831 56.949448847754525 A 221.875 221.875 0.0 0,1 368.7025969124494 62.548115210221056" fill="rgb(0,0,0)" stroke="rgb(0,0,255)" stroke-width="0" /><path d="M 386.50450916007657 75.08563637034672 A 5000 5000 0.0 0,0 403.8078976451567 52.91339309334842 A 250.0 250.0 0.0 0,0 393.9520478544614 45.6037967121041 A 5000 5000 0.0 0,0 377.75744247083446 68.59836958199239 A 221.875 221.875 0.0 0,1 386.50450916007657 75.08563637034672" fill="rgb(0,0,0)" stroke="rgb(0,0,255)" stroke-width="0" /><path d="M 402.9918083635366 89.3076784701432 A 5000 5000 0.0 0,0 422.3851361842667 68.9382292621332 A 250.0 250.0 0.0 0,0 413.29321073844415 60.69778837337884 A 5000 5000 0.0 0,0 394.9227245303692 81.99428718137372 A 221.875 221.875 0.0 0,1 402.9918083635366 89.3076784701432" fill="rgb(0,0,0)" stroke="rgb(0,0,255)" stroke-width="0" /><path d="M 418.0057128186262 105.07727546963065 A 5000 5000 0.0 0,0 439.30221162662104 86.70678926155568 A 250.0 250.0 0.0 0,0 431.06177073786665 77.61486381573317 A 5000 5000 0.0 0,0 410.69232152985666 97.00819163646321 A 221.875 221.875 0.0 0,1 418.0057128186262 105.07727546963065" fill="rgb(0,0,0)" stroke="rgb(0,0,255)" stroke-width="0" /><path d="M 431.40163041800747 122.2425575291654 A 5000 5000 0.0 0,0 454.3962032878958 106.04795214553846 A 250.0 250.0 0.0 0,0 447.0866069066514 96.19210235484312 A 5000 5000 0.0 0,0 424.91436362965317 113.49549083992326 A 221.875 221.875 0.0 0,1 431.40163041800747 122.2425575291654" fill="rgb(0,0,0)" stroke="rgb(0,0,255)" stroke-width="0" /><path d="M 443.0505511522452 140.6382135990164 A 5000 5000 0.0 0,0 467.52174777717767 126.77545194255369 A 250.0 250.0 0.0 0,0 461.2133913124266 116.25059502822543 A 5000 5000 0.0 0,0 437.45188478977866 131.29740308755007 A 221.875 221.875 0.0 0,1 443.0505511522452 140.6382135990164" fill="rgb(0,0,0)" stroke="rgb(0,0,255)" stroke-width="0" /><path d="M 452.84028954672067 160.08708345514253 A 5000 5000 0.0 0,0 478.5524389258825 148.68967149875215 A 250.0 250.0 0.0 0,0 473.3060752988787 137.597167586348 A 5000 5000 0.0 0,0 448.18414182775484 150.24248623288383 A 221.875 221.875 0.0 0,1 452.84028954672067 160.08708345514253" fill="rgb(0,0,0)" stroke="rgb(0,0,255)" stroke-width="0" /><path d="M 460.67656506907986 180.40186384899553 A 5000 5000 0.0 0,0 487.382045148259 171.57956490027664 A 250.0 250.0 0.0 0,0 483.2481997086845 160.02624086625252 A 5000 5000 0.0 0,0 457.0077772414576 170.14828876879912 A 221.875 221.875 0.0 0,1 460.67656506907986 180.40186384899553" fill="rgb(0,0,0)" stroke="rgb(0,0,255)" stroke-width="0" /><path d="M 466.4839101022984 201.386912340194 A 5000 5000 0.0 0,0 493.92553250963203 195.22468996078197 A 250.0 250.0 0.0 0,0 490.9440164488598 183.32181063127487 A 5000 5000 0.0 0,0 463.8378145983631 190.82310693525645 A 221.875 221.875 0.0 0,1 466.4839101022984 201.386912340194" fill="rgb(0,0,0)" stroke="rgb(0,0,255)" stroke-width="0" /><path d="M 470.20639673908875 222.8401314401737 A 5000 5000 0.0 0,0 498.1198836496775 219.3973312001957 A 250.0 250.0 0.0 0,0 496.3194105972353 207.2595278099245 A 5000 5000 0.0 0,0 468.6084769050463 212.06783093130798 A 221.875 221.875 0.0 0,1 470.20639673908875 222.8401314401737" fill="rgb(0,0,0)" stroke="rgb(0,0,255)" stroke-width="0" /></svg>